<svg xmlns="http://www.w3.org/2000/svg" width="1920" height="2125" viewBox="0 0 1920 2125"><g><g><path fill="#efeae7" d="M1920 0v1916.632c1 28.368 6 58.368-2 83.368-1.375 4.5-3.203 8.156-5.404 11.076a25.614 25.614 0 0 1-2.323 2.681C1903 2019 1904 2034 1895 2032c-4-1-7-9-13.846-12.159a53.791 53.791 0 0 0-3.879-.987C1870 2018 1868 2029 1863 2027c-8-3-6-16-14.905-20.717a239.238 239.238 0 0 1-3.102-1.745A268.559 268.559 0 0 1 1839 2001c-12-8-25-11-39.292-10.903-3.439-.04-6.942-.065-10.508-.097h-60.545c-12.655 4-22.655 13-29.412-4.318a31.796 31.796 0 0 0-1.836-2.19c-1.86-1.883-3.782-3.242-6.407-2.492-7 3-8 14-15.962 18.444a52.896 52.896 0 0 0-2.635 2.453c-11.105 11.055-18.353 27.403-29.403 39.103-19 21-37-17-59-15-3 0-6 2-8 5-10 13-7 49-30 41-4-2.667-7.527-5.639-10.718-8.833-15.949-15.973-23.449-37.5-39.282-54.167-4-5-9-8-15.184-10.156-4.157-1.484-8.464-1.907-12.946-.826-4.481 1.081-9.137 3.668-13.99 8.205-2.885 2.388-5.771 4.833-8.729 7.179-2.957 2.348-5.984 4.598-9.151 6.598-4 2-9 4-14 3-5-1.25-9.984-2.922-14.957-4.853-4.973-1.935-9.934-4.129-14.886-6.865C1371 2000 1362 1977 1342 1963c-13-9-31-9-39 4-2.625 4-5.031 8.104-7.285 12.297C1275 2020 1270 2065 1252 2107c-4 7-10 23-19 15-12-12-14-30-19-46-3-8-7-17-16-20-13-4-28-8-31.613-22.804-1.449-4.121-2.543-8.66-3.653-13.055-1.109-4.391-2.234-8.641-3.734-12.141-2.5-5.5-6.25-10.25-11.02-13.5-2.384-1.625-5.024-2.873-7.914-3.56C1124 1990 1114 2006 1099 2009c-27 4-42-21-58.498-38.164-2.363-1.836-4.835-3.503-7.502-4.836-5-2-9-2-14 0-8.5 4-16 10.25-23.92 15.375-3.96 2.563-8.029 4.844-12.529 6.491C954 1987 944 2013 924 2029c-12 10-28-10-41-16-32-16-42 21-48.234 44.348-2.016 2.902-4.766 4.402-8.766 3.652-8-1.333-14.667-5.889-21.024-11.438-3.179-2.776-6.28-5.799-9.431-8.803C774 2019 751 1963 717 1991c-12 9.333-23.111 20-36.593 24.889-3.37 1.222-6.888 2.085-10.607 2.495-21.863-.264-32.003 16.196-41.08 33.984a738.88 738.88 0 0 0-2.457 4.872c-4.237 6.861-5.662 15.843-8.694 22.933a36.728 36.728 0 0 1-1.411 2.958C613 2087 612 2094 607 2095c-7 3-10-6-13.465-9.931a35.884 35.884 0 0 1-1.912-3.075c-3.627-6.506-6.132-15.018-8.641-21.043-.971-1.7-1.917-3.373-2.841-5.045C563.5 2025.813 553.75 1991.5 526 1969c-2.25-2.5-4.75-4.812-7.453-6.797-8.11-5.953-18.047-8.953-28.547-5.203-10 4-12 14-14 23-7 24-2 54-22 66-10 6-15-20-26.233-29.259-2.849-3.361-5.878-6.464-9.174-8.778a26.6 26.6 0 0 0-2.524-1.575 22.494 22.494 0 0 0-2.632-1.232C407 2002 400 1998 395 2003c-5 4-4 12-8.039 17.407-.67.97-1.36 1.872-2.068 2.747-6.377 7.862-14.268 13.721-24.893 16.846-4 1.5-8.25 2.254-12.006 1.796C335 2041 335 2019 325 2021c-31 5-29 48-39 74-4 10-12 10-18 1-18-25-19-54-31-80-6-14-18-28-35.303-25.927-3.12-.072-6.207-.073-9.293-.073h-68.041c-4.112.004-8.135.007-12.069.015C77 1992 65 2032 37 2047c-17 9-33-18-35-32-7-41-2-82-2-123.355V0z"/></g><g><path fill="#e54b4e" d="M677.91 202.23H403.59c-13.07 0-23.763-10.693-23.763-23.763v-9.702c0-13.068 10.693-23.762 23.763-23.762h274.32c13.07 0 23.762 10.694 23.762 23.763v9.7c0 13.07-10.693 23.763-23.763 23.763z"/></g><g><path fill="#e54b4e" d="M677.91 309.375H480.702c-13.07 0-23.763-10.692-23.763-23.763v-9.7c0-13.069 10.693-23.763 23.763-23.763H677.91c13.07 0 23.763 10.694 23.763 23.763v9.7c0 13.071-10.693 23.763-23.763 23.763z"/></g><g><path fill="#e54b4e" d="M456.94 360.29v-84.378c0-13.069 10.693-23.763 23.763-23.763h9.7c13.07 0 23.763 10.694 23.763 23.763v84.378c0 13.069-10.694 23.763-23.763 23.763h-9.7c-13.07 0-23.763-10.694-23.763-23.763z"/></g><g><path fill="#e54b4e" d="M677.91 1888.924H403.59c-13.07 0-23.763-10.693-23.763-23.763v-9.701c0-13.07 10.693-23.763 23.763-23.763h274.32c13.07 0 23.762 10.694 23.762 23.763v9.7c0 13.07-10.693 23.764-23.763 23.764z"/></g><g><path fill="#e54b4e" d="M379.828 1865.204V168.764c0-13.07 10.693-23.764 23.763-23.764h9.7c13.069 0 23.763 10.693 23.763 23.763v1696.441c0 13.07-10.694 23.763-23.763 23.763h-9.7c-13.07 0-23.763-10.694-23.763-23.763z"/></g><g><path fill="#e54b4e" d="M644.446 1865.204V275.912c0-13.069 10.693-23.763 23.763-23.763h9.7c13.07 0 23.763 10.694 23.763 23.763v1589.292c0 13.07-10.693 23.763-23.763 23.763h-9.7c-13.07 0-23.763-10.694-23.763-23.763z"/></g><g><path fill="#e54b4e" d="M741.257 1865.161V169.592c0-13.07 10.693-23.764 23.763-23.764h9.7c13.07 0 23.763 10.693 23.763 23.764v1695.57c0 13.068-10.693 23.762-23.763 23.762h-9.7c-13.07 0-23.763-10.694-23.763-23.763z"/></g><g><path fill="#e54b4e" d="M1267.898 1867.237V171.668c0-13.07 10.693-23.763 23.763-23.763h9.7c13.068 0 23.762 10.693 23.762 23.763v1695.57c0 13.068-10.694 23.762-23.763 23.762h-9.7c-13.07 0-23.763-10.694-23.763-23.763z"/></g><g><path fill="#e54b4e" d="M1204.487 1891h-127.68c-13.103 0-23.825-10.722-23.825-23.825v-9.843c0-13.103 10.722-23.825 23.825-23.825h127.68c13.104 0 23.825 10.722 23.825 23.825v9.843c0 13.103-10.72 23.825-23.825 23.825z"/></g><g><path fill="#e54b4e" d="M1204.6 202.23h-127.904c-13.042 0-23.713-10.671-23.713-23.714v-9.587c0-13.042 10.67-23.713 23.713-23.713H1204.6c13.042 0 23.713 10.67 23.713 23.713v9.587c0 13.043-10.671 23.714-23.713 23.714z"/></g><g><path fill="#e54b4e" d="M1228.313 168.978v1696.186c0 13.07-10.694 23.761-23.764 23.761h-9.7c-13.068 0-23.762-10.692-23.762-23.762V168.978c0-13.07 10.694-23.763 23.763-23.763h9.7c13.07 0 23.763 10.693 23.763 23.763z"/></g><g><path fill="#e54b4e" d="M1052.982 145.216h57.226V1891h-57.226z"/></g><g><path fill="#e54b4e" d="M989.635 203.515H861.83c-13.07 0-23.762-10.693-23.762-23.764v-9.7c0-13.07 10.693-23.763 23.762-23.763h127.805c13.069 0 23.763 10.694 23.763 23.763v9.7c0 13.07-10.694 23.764-23.763 23.764z"/></g><g><path fill="#e54b4e" d="M956.172 1867.237V171.668c0-13.07 10.693-23.763 23.763-23.763h9.7c13.069 0 23.763 10.693 23.763 23.763v1695.57c0 13.068-10.694 23.762-23.763 23.762h-9.7c-13.07 0-23.763-10.694-23.763-23.763z"/></g><g><path fill="#e54b4e" d="M838.067 1867.237V171.668c0-13.07 10.693-23.763 23.763-23.763h9.7c13.07 0 23.763 10.693 23.763 23.763v1695.57c0 13.068-10.693 23.762-23.763 23.762h-9.7c-13.07 0-23.763-10.694-23.763-23.763z"/></g><g><path fill="#e54b4e" d="M1482.813 1865.208V275.912c0-13.069 10.692-23.763 23.762-23.763h9.7c13.07 0 23.763 10.694 23.763 23.763v1589.296c0 6.535-2.67 12.478-6.833 16.869-10.205 10.923-32.206 8.923-43.37-.072-4.35-4.321-7.023-10.262-7.023-16.797z"/></g><g><path fill="#e54b4e" d="M1421.934 168.766v116.847c0 13.07-10.693 23.762-23.763 23.762h-9.7c-13.07 0-23.763-10.692-23.763-23.762V168.766c0-13.07 10.694-23.763 23.763-23.763h9.7c13.07 0 23.763 10.694 23.763 23.763z"/></g><g><path fill="#e54b4e" d="M1516.41 309.375h-127.736c-13.07 0-23.763-10.692-23.763-23.763v-9.7c0-13.069 10.693-23.763 23.763-23.763h127.736c13.07 0 23.763 10.694 23.763 23.763v9.7c0 13.071-10.694 23.763-23.763 23.763z"/></g><g><path fill="#e54b4e" d="M1516.855 1891.444C1495 1891 1474 1891 1452.373 1891h-63.839c-13.105 0-23.826-10.722-23.826-23.826v-9.842c0-13.104 10.721-23.826 23.825-23.826h127.68c13.104 0 23.826 10.722 23.826 23.826v9.842c0 6.552-2.662 12.518-6.78 16.975-4.114 4.462-9.832 7.334-16.403 7.295z"/></g><g><path fill="#e54b4e" d="M1516.275 202.23H1388.47c-13.069 0-23.762-10.693-23.762-23.763v-9.702c0-13.068 10.693-23.762 23.762-23.762h127.805c13.07 0 23.763 10.694 23.763 23.763v9.7c0 13.07-10.694 23.763-23.763 23.763z"/></g><g><path fill="#e54b4e" d="M1751.79 9.98L1771.96 0h-9l-19.06 9.37 49.7 25.03h-48.22v3.94h55.49v-3.69z"/></g><g><path fill="#e54b4e" d="M1800.873 56.842v3.946h-19.114v6.042c0 4.933-1.81 9.166-5.426 12.702-3.62 3.534-7.892 5.303-12.825 5.303-4.933 0-9.187-1.81-12.764-5.426-3.576-3.619-5.364-7.935-5.364-12.948v-9.619zm0 42.791h-55.493v-3.822h55.493zm-22.444-38.845h-29.72v5.796c0 3.863 1.459 7.233 4.378 10.112 2.918 2.876 6.37 4.316 10.36 4.316 3.986 0 7.479-1.46 10.48-4.378 3-2.919 4.502-6.27 4.502-10.05z"/></g><g><path fill="#e54b4e" d="M1800.873 202.97v3.947h-55.493v-3.946h20.841V165.36h-20.841v-3.947h55.493v3.947h-31.199v37.61z"/></g><g><path fill="#e54b4e" d="M1800.873 279.552h-55.493v-3.946h13.81c-4.684-2.303-8.384-5.756-11.097-10.36-2.713-4.604-4.07-9.537-4.07-14.798 0-8.057 2.856-14.964 8.57-20.716 5.714-5.756 12.558-8.633 20.534-8.633 7.973 0 14.817 2.877 20.532 8.633 5.713 5.752 8.57 12.659 8.57 20.716 0 5.26-1.398 10.297-4.192 15.107-2.796 4.809-6.496 8.158-11.098 10.05h13.934zm-45.812-46.923c-5.057 5.056-7.584 11.057-7.584 18.005 0 6.946 2.527 12.887 7.584 17.819 5.055 4.933 11.055 7.399 18.004 7.399 6.946 0 12.967-2.488 18.066-7.46 5.097-4.976 7.645-10.914 7.645-17.82 0-6.906-2.57-12.887-7.707-17.943-5.138-5.056-11.16-7.584-18.066-7.584-6.905 0-12.887 2.528-17.942 7.584z"/></g><g><path fill="#e54b4e" d="M1738.35 291.882h10.236v4.317l53.89 25.773-53.766 25.774v4.069h-10.36v-3.453h7.03v-53.274h-7.03zm55.74 29.72l-45.38-21.704v43.53z"/></g><g><path fill="#e54b4e" d="M1793.66 368.462c5.712 5.753 8.57 12.68 8.57 20.778 0 8.097-2.858 15.003-8.57 20.718-5.716 5.713-12.499 8.57-20.349 8.57s-14.695-2.796-20.531-8.385c-5.84-5.591-8.756-12.374-8.756-20.347v-1.234c0-7.728 2.938-14.449 8.817-20.163 5.877-5.714 12.72-8.57 20.533-8.57 7.808 0 14.57 2.877 20.285 8.633zm-2.53 38.66c5.097-4.976 7.646-10.914 7.646-17.819 0-6.907-2.57-12.888-7.707-17.944-5.139-5.055-11.16-7.584-18.067-7.584-6.905 0-12.886 2.529-17.942 7.584-5.057 5.056-7.584 11.057-7.584 18.005 0 6.947 2.527 12.887 7.584 17.82 5.056 4.932 11.056 7.398 18.004 7.398 6.946 0 12.968-2.487 18.066-7.46z"/></g><g><path fill="#e54b4e" d="M1745.38 430.121v-3.576l57.097 27.253-57.097 27.377v-4.317l48.71-23.429z"/></g><g><path fill="#e54b4e" d="M1797.297 518.046v-20.594h-51.917v-3.946h55.37v24.54z"/></g><g><path fill="#e54b4e" d="M1793.66 534.694c5.712 5.753 8.57 12.68 8.57 20.778 0 8.097-2.858 15.003-8.57 20.718-5.716 5.713-12.499 8.57-20.349 8.57s-14.695-2.796-20.531-8.385c-5.84-5.59-8.756-12.374-8.756-20.347v-1.234c0-7.728 2.938-14.449 8.817-20.163 5.877-5.714 12.72-8.57 20.533-8.57 7.808 0 14.57 2.877 20.285 8.633zm-2.53 38.66c5.097-4.976 7.646-10.914 7.646-17.819 0-6.906-2.57-12.887-7.707-17.943-5.139-5.055-11.16-7.584-18.067-7.584-6.905 0-12.886 2.529-17.942 7.584-5.057 5.056-7.584 11.057-7.584 18.005 0 6.947 2.527 12.887 7.584 17.82 5.056 4.932 11.056 7.398 18.004 7.398 6.946 0 12.968-2.487 18.066-7.46z"/></g><g><path fill="#e54b4e" d="M1745.38 642.102h55.493v4.44l-49.081 24.293 49.08 24.663v3.7h-55.492v-3.946h48.218l-49.697-25.034 50.19-24.663h-48.711z"/></g><g><path fill="#e54b4e" d="M1800.873 717.696v3.946h-19.114v6.042c0 4.933-1.81 9.166-5.426 12.702-3.62 3.534-7.892 5.303-12.825 5.303-4.933 0-9.187-1.81-12.764-5.426-3.576-3.62-5.364-7.935-5.364-12.948v-9.62zm0 42.79h-55.493v-3.821h55.493zm-22.444-38.844h-29.72v5.796c0 3.863 1.459 7.233 4.378 10.112 2.918 2.876 6.37 4.316 10.36 4.316 3.986 0 7.479-1.46 10.48-4.378 3-2.92 4.502-6.27 4.502-10.05z"/></g><g><path fill="#e54b4e" d="M1800.873 863.824v3.946h-55.493v-3.946h20.841v-37.61h-20.841v-3.948h55.493v3.947h-31.199v37.611z"/></g><g><path fill="#e54b4e" d="M1800.873 940.405h-55.493v-3.946h13.81c-4.684-2.303-8.384-5.756-11.097-10.359-2.713-4.605-4.07-9.538-4.07-14.799 0-8.057 2.856-14.964 8.57-20.716 5.714-5.756 12.558-8.633 20.534-8.633 7.973 0 14.817 2.877 20.532 8.633 5.713 5.752 8.57 12.66 8.57 20.716 0 5.261-1.398 10.297-4.192 15.107-2.796 4.81-6.496 8.158-11.098 10.051h13.934zm-45.812-46.923c-5.057 5.056-7.584 11.057-7.584 18.005 0 6.946 2.527 12.887 7.584 17.82 5.055 4.932 11.055 7.398 18.004 7.398 6.946 0 12.967-2.488 18.066-7.46 5.097-4.976 7.645-10.914 7.645-17.82 0-6.906-2.57-12.887-7.707-17.943-5.138-5.056-11.16-7.584-18.066-7.584-6.905 0-12.887 2.528-17.942 7.584z"/></g><g><path fill="#e54b4e" d="M1738.35 952.735h10.236v4.317l53.89 25.773-53.766 25.774v4.07h-10.36v-3.454h7.03v-53.274h-7.03zm55.74 29.72l-45.38-21.704v43.531z"/></g><g><path fill="#e54b4e" d="M1793.66 1029.315c5.712 5.753 8.57 12.68 8.57 20.778 0 8.097-2.858 15.003-8.57 20.718-5.716 5.714-12.499 8.57-20.349 8.57s-14.695-2.796-20.531-8.385c-5.84-5.59-8.756-12.374-8.756-20.347v-1.233c0-7.728 2.938-14.45 8.817-20.163 5.877-5.714 12.72-8.57 20.533-8.57 7.808 0 14.57 2.877 20.285 8.633zm-2.53 38.66c5.097-4.975 7.646-10.913 7.646-17.818 0-6.907-2.57-12.888-7.707-17.944-5.139-5.055-11.16-7.584-18.067-7.584-6.905 0-12.886 2.529-17.942 7.584-5.057 5.056-7.584 11.057-7.584 18.005 0 6.947 2.527 12.887 7.584 17.82 5.056 4.932 11.056 7.398 18.004 7.398 6.946 0 12.968-2.487 18.066-7.46z"/></g><g><path fill="#e54b4e" d="M1745.38 1090.975v-3.576l57.097 27.253-57.097 27.377v-4.317l48.71-23.43z"/></g><g><path fill="#e54b4e" d="M1797.297 1178.9v-20.595h-51.917v-3.946h55.37v24.54z"/></g><g><path fill="#e54b4e" d="M1793.66 1195.548c5.712 5.753 8.57 12.68 8.57 20.778 0 8.097-2.858 15.003-8.57 20.718-5.716 5.713-12.499 8.57-20.349 8.57s-14.695-2.796-20.531-8.385c-5.84-5.591-8.756-12.374-8.756-20.347v-1.234c0-7.728 2.938-14.449 8.817-20.163 5.877-5.714 12.72-8.57 20.533-8.57 7.808 0 14.57 2.877 20.285 8.633zm-2.53 38.66c5.097-4.976 7.646-10.914 7.646-17.819 0-6.907-2.57-12.888-7.707-17.944-5.139-5.055-11.16-7.584-18.067-7.584-6.905 0-12.886 2.529-17.942 7.584-5.057 5.056-7.584 11.057-7.584 18.005 0 6.947 2.527 12.887 7.584 17.82 5.056 4.932 11.056 7.398 18.004 7.398 6.946 0 12.968-2.487 18.066-7.46z"/></g><g><path fill="#e54b4e" d="M1745.38 1302.956h55.493v4.44l-49.081 24.293 49.08 24.663v3.7h-55.492v-3.946h48.218l-49.697-25.034 50.19-24.663h-48.711z"/></g><g><path fill="#e54b4e" d="M1800.873 1378.55v3.946h-19.114v6.042c0 4.933-1.81 9.166-5.426 12.702-3.62 3.534-7.892 5.303-12.825 5.303-4.933 0-9.187-1.81-12.764-5.426-3.576-3.619-5.364-7.935-5.364-12.948v-9.619zm0 42.791h-55.493v-3.822h55.493zm-22.444-38.845h-29.72v5.796c0 3.863 1.459 7.233 4.378 10.112 2.918 2.876 6.37 4.316 10.36 4.316 3.986 0 7.479-1.46 10.48-4.378 3-2.919 4.502-6.27 4.502-10.05z"/></g><g><path fill="#e54b4e" d="M1800.873 1524.678v3.946h-55.493v-3.946h20.841v-37.611h-20.841v-3.947h55.493v3.947h-31.199v37.61z"/></g><g><path fill="#e54b4e" d="M1800.873 1601.259h-55.493v-3.946h13.81c-4.684-2.303-8.384-5.756-11.097-10.359-2.713-4.605-4.07-9.538-4.07-14.799 0-8.057 2.856-14.964 8.57-20.716 5.714-5.756 12.558-8.633 20.534-8.633 7.973 0 14.817 2.877 20.532 8.633 5.713 5.752 8.57 12.659 8.57 20.716 0 5.261-1.398 10.297-4.192 15.107-2.796 4.809-6.496 8.158-11.098 10.051h13.934zm-45.812-46.923c-5.057 5.056-7.584 11.057-7.584 18.005 0 6.946 2.527 12.887 7.584 17.819 5.055 4.933 11.055 7.399 18.004 7.399 6.946 0 12.967-2.488 18.066-7.46 5.097-4.976 7.645-10.914 7.645-17.82 0-6.906-2.57-12.887-7.707-17.943-5.138-5.056-11.16-7.584-18.066-7.584-6.905 0-12.887 2.528-17.942 7.584z"/></g><g><path fill="#e54b4e" d="M1738.35 1613.589h10.236v4.317l53.89 25.773-53.766 25.774v4.069h-10.36v-3.453h7.03v-53.274h-7.03zm55.74 29.72l-45.38-21.704v43.53z"/></g><g><path fill="#e54b4e" d="M1793.66 1690.17c5.712 5.752 8.57 12.68 8.57 20.777 0 8.097-2.858 15.003-8.57 20.718-5.716 5.713-12.499 8.57-20.349 8.57s-14.695-2.796-20.531-8.385c-5.84-5.59-8.756-12.374-8.756-20.347v-1.234c0-7.728 2.938-14.449 8.817-20.163 5.877-5.714 12.72-8.57 20.533-8.57 7.808 0 14.57 2.877 20.285 8.633zm-2.53 38.66c5.097-4.977 7.646-10.915 7.646-17.82 0-6.907-2.57-12.888-7.707-17.944-5.139-5.055-11.16-7.584-18.067-7.584-6.905 0-12.886 2.53-17.942 7.584-5.057 5.056-7.584 11.057-7.584 18.005 0 6.947 2.527 12.887 7.584 17.82 5.056 4.932 11.056 7.398 18.004 7.398 6.946 0 12.968-2.487 18.066-7.46z"/></g><g><path fill="#e54b4e" d="M1745.38 1751.828v-3.576l57.097 27.253-57.097 27.377v-4.317l48.71-23.429z"/></g><g><path fill="#e54b4e" d="M1797.297 1839.753v-20.594h-51.917v-3.946h55.37v24.54z"/></g><g><path fill="#e54b4e" d="M1793.66 1856.401c5.712 5.753 8.57 12.68 8.57 20.778 0 8.097-2.858 15.003-8.57 20.718-5.716 5.714-12.499 8.57-20.349 8.57s-14.695-2.796-20.531-8.385c-5.84-5.59-8.756-12.374-8.756-20.347v-1.233c0-7.728 2.938-14.45 8.817-20.163 5.877-5.714 12.72-8.57 20.533-8.57 7.808 0 14.57 2.877 20.285 8.633zm-2.53 38.66c5.097-4.975 7.646-10.913 7.646-17.818 0-6.907-2.57-12.888-7.707-17.944-5.139-5.055-11.16-7.584-18.067-7.584-6.905 0-12.886 2.529-17.942 7.584-5.057 5.056-7.584 11.057-7.584 18.005 0 6.947 2.527 12.887 7.584 17.82 5.056 4.932 11.056 7.398 18.004 7.398 6.946 0 12.968-2.487 18.066-7.46z"/></g><g><path fill="#e54b4e" d="M1745.38 1963.81v3.45h48.71l-46.26 22.74h9.09l43.95-21.75v-4.44z"/></g><g><path fill="#e54b4e" d="M190.24 1944.04c-5.84-5.59-12.68-8.39-20.54-8.39-7.85 0-14.63 2.86-20.34 8.57-5.72 5.719-8.57 12.62-8.57 20.719 0 8.101 2.85 15.021 8.57 20.781 1.66 1.671 3.41 3.1 5.25 4.28h10.82c-5.02-.88-9.52-3.27-13.48-7.18-5.14-5.06-7.71-11.041-7.71-17.94 0-6.91 2.55-12.851 7.64-17.819 5.1-4.981 11.12-7.461 18.07-7.461 6.95 0 12.95 2.461 18.01 7.4 5.05 4.93 7.58 10.87 7.58 17.82 0 6.94-2.53 12.94-7.58 18-3.91 3.91-8.36 6.3-13.37 7.18h10.26c1.86-1.16 3.63-2.57 5.32-4.221 5.88-5.709 8.82-12.429 8.82-20.159v-1.24c0-7.97-2.91-14.75-8.75-20.34z"/></g><g><path fill="#e54b4e" d="M197.636 1878.31h-55.493v-4.44l49.08-24.293-49.08-24.663v-3.7h55.493v3.946h-48.218l49.697 25.034-50.19 24.663h48.71z"/></g><g><path fill="#e54b4e" d="M142.143 1759.926h55.493v3.822h-55.493zm0 42.79v-3.945h19.114v-6.042c0-4.933 1.809-9.166 5.426-12.702 3.619-3.534 7.892-5.303 12.825-5.303 4.933 0 9.187 1.81 12.764 5.426 3.576 3.618 5.364 7.934 5.364 12.947v9.62zm22.444-3.945h29.719v-5.796c0-3.863-1.458-7.233-4.377-10.112-2.918-2.877-6.37-4.317-10.36-4.317-3.986 0-7.48 1.46-10.481 4.378-3 2.92-4.501 6.27-4.501 10.05z"/></g><g><path fill="#e54b4e" d="M142.143 1656.588v-3.946h55.493v3.946h-20.841v37.61h20.84v3.948h-55.492v-3.947h31.199v-37.611z"/></g><g><path fill="#e54b4e" d="M142.143 1580.007h55.493v3.946h-13.811c4.685 2.303 8.385 5.756 11.098 10.359 2.713 4.605 4.069 9.538 4.069 14.799 0 8.057-2.855 14.964-8.57 20.716-5.713 5.756-12.557 8.633-20.533 8.633-7.973 0-14.817-2.877-20.532-8.633-5.713-5.752-8.571-12.66-8.571-20.716 0-5.261 1.399-10.297 4.193-15.107 2.796-4.81 6.496-8.158 11.098-10.051h-13.934zm45.812 46.923c5.057-5.056 7.584-11.057 7.584-18.005 0-6.946-2.527-12.887-7.584-17.82-5.055-4.932-11.055-7.398-18.004-7.398-6.946 0-12.967 2.488-18.066 7.46-5.097 4.976-7.645 10.914-7.645 17.82 0 6.906 2.57 12.887 7.707 17.943 5.138 5.056 11.16 7.584 18.066 7.584 6.905 0 12.887-2.528 17.942-7.584z"/></g><g><path fill="#e54b4e" d="M204.665 1567.677H194.43v-4.317l-53.891-25.773 53.767-25.774v-4.069h10.359v3.453h-7.03v53.274h7.03zm-55.74-29.72l45.38 21.704v-43.531z"/></g><g><path fill="#e54b4e" d="M149.356 1491.097c-5.713-5.753-8.57-12.68-8.57-20.778 0-8.097 2.857-15.003 8.57-20.718 5.715-5.713 12.498-8.57 20.348-8.57 7.851 0 14.696 2.796 20.532 8.385 5.84 5.59 8.756 12.374 8.756 20.347v1.234c0 7.728-2.938 14.449-8.817 20.163-5.877 5.714-12.72 8.57-20.533 8.57-7.809 0-14.57-2.877-20.286-8.633zm2.53-38.66c-5.098 4.976-7.647 10.914-7.647 17.819 0 6.907 2.57 12.888 7.707 17.944 5.14 5.055 11.16 7.584 18.067 7.584 6.905 0 12.886-2.53 17.942-7.584 5.057-5.056 7.584-11.057 7.584-18.005 0-6.947-2.527-12.887-7.584-17.82-5.056-4.932-11.056-7.398-18.004-7.398-6.946 0-12.968 2.487-18.066 7.46z"/></g><g><path fill="#e54b4e" d="M197.636 1429.438v3.575l-57.097-27.252 57.097-27.377v4.317l-48.711 23.429z"/></g><g><path fill="#e54b4e" d="M145.719 1341.513v20.594h51.917v3.946h-55.37v-24.54z"/></g><g><path fill="#e54b4e" d="M149.356 1324.864c-5.713-5.753-8.57-12.68-8.57-20.778 0-8.097 2.857-15.003 8.57-20.718 5.715-5.713 12.498-8.57 20.348-8.57 7.851 0 14.696 2.796 20.532 8.385 5.84 5.591 8.756 12.374 8.756 20.347v1.234c0 7.728-2.938 14.45-8.817 20.163-5.877 5.714-12.72 8.57-20.533 8.57-7.809 0-14.57-2.877-20.286-8.633zm2.53-38.66c-5.098 4.976-7.647 10.914-7.647 17.82 0 6.906 2.57 12.887 7.707 17.943 5.14 5.055 11.16 7.584 18.067 7.584 6.905 0 12.886-2.529 17.942-7.584 5.057-5.056 7.584-11.057 7.584-18.005 0-6.947-2.527-12.887-7.584-17.82-5.056-4.932-11.056-7.398-18.004-7.398-6.946 0-12.968 2.487-18.066 7.46z"/></g><g><path fill="#e54b4e" d="M197.636 1217.456h-55.493v-4.439l49.08-24.294-49.08-24.663v-3.7h55.493v3.946h-48.218l49.697 25.034-50.19 24.663h48.71z"/></g><g><path fill="#e54b4e" d="M142.143 1099.071h55.493v3.822h-55.493zm0 42.791v-3.946h19.114v-6.042c0-4.933 1.809-9.166 5.426-12.702 3.619-3.534 7.892-5.303 12.825-5.303 4.933 0 9.187 1.81 12.764 5.426 3.576 3.619 5.364 7.935 5.364 12.948v9.619zm22.444-3.946h29.719v-5.796c0-3.863-1.458-7.233-4.377-10.112-2.918-2.876-6.37-4.316-10.36-4.316-3.986 0-7.48 1.46-10.481 4.378-3 2.919-4.501 6.27-4.501 10.05z"/></g><g><path fill="#e54b4e" d="M142.143 995.734v-3.946h55.493v3.946h-20.841v37.611h20.84v3.947h-55.492v-3.947h31.199v-37.61z"/></g><g><path fill="#e54b4e" d="M142.143 919.153h55.493v3.946h-13.811c4.685 2.303 8.385 5.756 11.098 10.36 2.713 4.604 4.069 9.537 4.069 14.798 0 8.057-2.855 14.964-8.57 20.716-5.713 5.756-12.557 8.633-20.533 8.633-7.973 0-14.817-2.877-20.532-8.633-5.713-5.752-8.571-12.659-8.571-20.716 0-5.26 1.399-10.297 4.193-15.107 2.796-4.809 6.496-8.158 11.098-10.05h-13.934zm45.812 46.923c5.057-5.056 7.584-11.057 7.584-18.005 0-6.946-2.527-12.887-7.584-17.819-5.055-4.933-11.055-7.399-18.004-7.399-6.946 0-12.967 2.488-18.066 7.46-5.097 4.976-7.645 10.914-7.645 17.82 0 6.906 2.57 12.887 7.707 17.943 5.138 5.056 11.16 7.584 18.066 7.584 6.905 0 12.887-2.528 17.942-7.584z"/></g><g><path fill="#e54b4e" d="M204.665 906.823H194.43v-4.317l-53.891-25.773 53.767-25.774v-4.069h10.359v3.453h-7.03v53.274h7.03zm-55.74-29.72l45.38 21.705v-43.531z"/></g><g><path fill="#e54b4e" d="M149.356 830.243c-5.713-5.753-8.57-12.68-8.57-20.778 0-8.097 2.857-15.003 8.57-20.718 5.715-5.713 12.498-8.57 20.348-8.57 7.851 0 14.696 2.796 20.532 8.385 5.84 5.591 8.756 12.374 8.756 20.347v1.234c0 7.728-2.938 14.449-8.817 20.163-5.877 5.714-12.72 8.57-20.533 8.57-7.809 0-14.57-2.877-20.286-8.633zm2.53-38.66c-5.098 4.976-7.647 10.914-7.647 17.819 0 6.907 2.57 12.888 7.707 17.944 5.14 5.055 11.16 7.584 18.067 7.584 6.905 0 12.886-2.529 17.942-7.584 5.057-5.056 7.584-11.057 7.584-18.005 0-6.947-2.527-12.887-7.584-17.82-5.056-4.932-11.056-7.398-18.004-7.398-6.946 0-12.968 2.487-18.066 7.46z"/></g><g><path fill="#e54b4e" d="M197.636 768.584v3.576l-57.097-27.253 57.097-27.377v4.317l-48.711 23.429z"/></g><g><path fill="#e54b4e" d="M145.719 680.66v20.593h51.917v3.946h-55.37v-24.54z"/></g><g><path fill="#e54b4e" d="M149.356 664.01c-5.713-5.752-8.57-12.68-8.57-20.777 0-8.097 2.857-15.003 8.57-20.718 5.715-5.713 12.498-8.57 20.348-8.57 7.851 0 14.696 2.796 20.532 8.385 5.84 5.59 8.756 12.374 8.756 20.347v1.234c0 7.728-2.938 14.449-8.817 20.163-5.877 5.714-12.72 8.57-20.533 8.57-7.809 0-14.57-2.877-20.286-8.633zm2.53-38.66c-5.098 4.977-7.647 10.915-7.647 17.82 0 6.907 2.57 12.888 7.707 17.944 5.14 5.055 11.16 7.584 18.067 7.584 6.905 0 12.886-2.53 17.942-7.584 5.057-5.056 7.584-11.057 7.584-18.005 0-6.947-2.527-12.887-7.584-17.82-5.056-4.932-11.056-7.398-18.004-7.398-6.946 0-12.968 2.487-18.066 7.46z"/></g><g><path fill="#e54b4e" d="M197.636 556.602h-55.493v-4.439l49.08-24.294-49.08-24.663v-3.7h55.493v3.947h-48.218l49.697 25.034-50.19 24.663h48.71z"/></g><g><path fill="#e54b4e" d="M142.143 438.217h55.493v3.822h-55.493zm0 42.792v-3.946h19.114v-6.042c0-4.933 1.809-9.166 5.426-12.702 3.619-3.534 7.892-5.303 12.825-5.303 4.933 0 9.187 1.81 12.764 5.426 3.576 3.619 5.364 7.935 5.364 12.948v9.619zm22.444-3.947h29.719v-5.796c0-3.863-1.458-7.233-4.377-10.112-2.918-2.876-6.37-4.316-10.36-4.316-3.986 0-7.48 1.46-10.481 4.378-3 2.92-4.501 6.27-4.501 10.05z"/></g><g><path fill="#e54b4e" d="M142.143 334.88v-3.945h55.493v3.946h-20.841v37.61h20.84v3.948h-55.492v-3.947h31.199V334.88z"/></g><g><path fill="#e54b4e" d="M142.143 258.3h55.493v3.946h-13.811c4.685 2.303 8.385 5.756 11.098 10.359 2.713 4.605 4.069 9.538 4.069 14.799 0 8.057-2.855 14.964-8.57 20.716-5.713 5.756-12.557 8.633-20.533 8.633-7.973 0-14.817-2.877-20.532-8.633-5.713-5.752-8.571-12.66-8.571-20.716 0-5.261 1.399-10.297 4.193-15.107 2.796-4.81 6.496-8.158 11.098-10.051h-13.934zm45.812 46.923c5.057-5.056 7.584-11.057 7.584-18.005 0-6.946-2.527-12.887-7.584-17.82C182.9 264.467 176.9 262 169.95 262c-6.946 0-12.967 2.488-18.066 7.46-5.097 4.976-7.645 10.914-7.645 17.82 0 6.906 2.57 12.887 7.707 17.943 5.138 5.056 11.16 7.584 18.066 7.584 6.905 0 12.887-2.528 17.942-7.584z"/></g><g><path fill="#e54b4e" d="M204.665 245.97H194.43v-4.317l-53.891-25.773 53.767-25.774v-4.069h10.359v3.453h-7.03v53.274h7.03zm-55.74-29.72l45.38 21.704v-43.531z"/></g><g><path fill="#e54b4e" d="M149.356 169.39c-5.713-5.753-8.57-12.68-8.57-20.778 0-8.097 2.857-15.003 8.57-20.718 5.715-5.714 12.498-8.57 20.348-8.57 7.851 0 14.696 2.795 20.532 8.384 5.84 5.592 8.756 12.375 8.756 20.348v1.233c0 7.729-2.938 14.45-8.817 20.164-5.877 5.714-12.72 8.57-20.533 8.57-7.809 0-14.57-2.877-20.286-8.633zm2.53-38.66c-5.098 4.976-7.647 10.914-7.647 17.819 0 6.906 2.57 12.887 7.707 17.943 5.14 5.055 11.16 7.584 18.067 7.584 6.905 0 12.886-2.529 17.942-7.584 5.057-5.056 7.584-11.057 7.584-18.005 0-6.947-2.527-12.887-7.584-17.82-5.056-4.932-11.056-7.398-18.004-7.398-6.946 0-12.968 2.487-18.066 7.46z"/></g><g><path fill="#e54b4e" d="M197.636 107.73v3.577l-57.097-27.254 57.097-27.376v4.317l-48.711 23.429z"/></g><g><path fill="#e54b4e" d="M145.719 19.806V40.4h51.917v3.946h-55.37v-24.54z"/></g><g><path fill="#e54b4e" d="M188.21 0c-.08.09-.16.17-.25.26-5.06 5.06-11.04 7.58-17.95 7.58-6.9 0-12.93-2.52-18.06-7.58-.09-.09-.17-.17-.25-.26h-5.09c.82 1.09 1.74 2.141 2.75 3.16 5.71 5.75 12.47 8.63 20.28 8.63 7.81 0 14.66-2.86 20.53-8.57A33.692 33.692 0 0 0 193.09 0z"/></g></g></svg>