<svg xmlns="http://www.w3.org/2000/svg" width="573" height="552" viewBox="0 0 573 552"><g><g><path fill="none" stroke="#efeae7" stroke-miterlimit="20" stroke-width="3" d="M173 1.862l21.392 20.886"/></g><g><path fill="none" stroke="#efeae7" stroke-miterlimit="20" stroke-width="3" d="M194.392 1.862L173 22.748"/></g><g><path fill="none" stroke="#efeae7" stroke-miterlimit="20" stroke-width="3" d="M549.734 1.862l21.391 20.886"/></g><g><path fill="none" stroke="#efeae7" stroke-miterlimit="20" stroke-width="3" d="M571.125 1.862l-21.391 20.886"/></g><g><path fill="none" stroke="#efeae7" stroke-miterlimit="20" stroke-width="3" d="M507.875 1.862l21.391 20.886"/></g><g><path fill="none" stroke="#efeae7" stroke-miterlimit="20" stroke-width="3" d="M529.266 1.862l-21.391 20.886"/></g><g><path fill="none" stroke="#efeae7" stroke-miterlimit="20" stroke-width="3" d="M466.016 1.862l21.39 20.886"/></g><g><path fill="none" stroke="#efeae7" stroke-miterlimit="20" stroke-width="3" d="M487.406 1.862l-21.39 20.886"/></g><g><path fill="none" stroke="#efeae7" stroke-miterlimit="20" stroke-width="3" d="M424.156 1.862l21.391 20.886"/></g><g><path fill="none" stroke="#efeae7" stroke-miterlimit="20" stroke-width="3" d="M445.547 1.862l-21.391 20.886"/></g><g><path fill="none" stroke="#efeae7" stroke-miterlimit="20" stroke-width="3" d="M382.297 1.862l21.39 20.886"/></g><g><path fill="none" stroke="#efeae7" stroke-miterlimit="20" stroke-width="3" d="M403.688 1.862l-21.391 20.886"/></g><g><path fill="none" stroke="#efeae7" stroke-miterlimit="20" stroke-width="3" d="M340.438 1.862l21.39 20.886"/></g><g><path fill="none" stroke="#efeae7" stroke-miterlimit="20" stroke-width="3" d="M361.828 1.862l-21.39 20.886"/></g><g><path fill="none" stroke="#efeae7" stroke-miterlimit="20" stroke-width="3" d="M298.578 1.862l21.391 20.886"/></g><g><path fill="none" stroke="#efeae7" stroke-miterlimit="20" stroke-width="3" d="M319.969 1.862l-21.391 20.886"/></g><g><path fill="none" stroke="#efeae7" stroke-miterlimit="20" stroke-width="3" d="M256.719 1.862l21.392 20.886"/></g><g><path fill="none" stroke="#efeae7" stroke-miterlimit="20" stroke-width="3" d="M278.11 1.862l-21.392 20.886"/></g><g><path fill="none" stroke="#efeae7" stroke-miterlimit="20" stroke-width="3" d="M214.86 1.862l21.391 20.886"/></g><g><path fill="none" stroke="#efeae7" stroke-miterlimit="20" stroke-width="3" d="M236.251 1.862l-21.392 20.886"/></g><g><path fill="none" stroke="#efeae7" stroke-miterlimit="20" stroke-width="3" d="M173 54.688l21.392 20.885"/></g><g><path fill="none" stroke="#efeae7" stroke-miterlimit="20" stroke-width="3" d="M194.392 54.688L173 75.573"/></g><g><path fill="none" stroke="#efeae7" stroke-miterlimit="20" stroke-width="3" d="M549.734 54.688l21.391 20.885"/></g><g><path fill="none" stroke="#efeae7" stroke-miterlimit="20" stroke-width="3" d="M571.125 54.688l-21.391 20.885"/></g><g><path fill="none" stroke="#efeae7" stroke-miterlimit="20" stroke-width="3" d="M507.875 54.688l21.391 20.885"/></g><g><path fill="none" stroke="#efeae7" stroke-miterlimit="20" stroke-width="3" d="M529.266 54.688l-21.391 20.885"/></g><g><path fill="none" stroke="#efeae7" stroke-miterlimit="20" stroke-width="3" d="M466.016 54.688l21.39 20.885"/></g><g><path fill="none" stroke="#efeae7" stroke-miterlimit="20" stroke-width="3" d="M487.406 54.688l-21.39 20.885"/></g><g><path fill="none" stroke="#efeae7" stroke-miterlimit="20" stroke-width="3" d="M424.156 54.688l21.391 20.885"/></g><g><path fill="none" stroke="#efeae7" stroke-miterlimit="20" stroke-width="3" d="M445.547 54.688l-21.391 20.885"/></g><g><path fill="none" stroke="#efeae7" stroke-miterlimit="20" stroke-width="3" d="M382.297 54.688l21.39 20.885"/></g><g><path fill="none" stroke="#efeae7" stroke-miterlimit="20" stroke-width="3" d="M403.688 54.688l-21.391 20.885"/></g><g><path fill="none" stroke="#efeae7" stroke-miterlimit="20" stroke-width="3" d="M340.438 54.688l21.39 20.885"/></g><g><path fill="none" stroke="#efeae7" stroke-miterlimit="20" stroke-width="3" d="M361.828 54.688l-21.39 20.885"/></g><g><path fill="none" stroke="#efeae7" stroke-miterlimit="20" stroke-width="3" d="M298.578 54.688l21.391 20.885"/></g><g><path fill="none" stroke="#efeae7" stroke-miterlimit="20" stroke-width="3" d="M319.969 54.688l-21.391 20.885"/></g><g><path fill="none" stroke="#efeae7" stroke-miterlimit="20" stroke-width="3" d="M256.719 54.688l21.392 20.885"/></g><g><path fill="none" stroke="#efeae7" stroke-miterlimit="20" stroke-width="3" d="M278.11 54.688l-21.392 20.885"/></g><g><path fill="none" stroke="#efeae7" stroke-miterlimit="20" stroke-width="3" d="M214.86 54.688l21.391 20.885"/></g><g><path fill="none" stroke="#efeae7" stroke-miterlimit="20" stroke-width="3" d="M236.251 54.688l-21.392 20.885"/></g><g><path fill="none" stroke="#efeae7" stroke-miterlimit="20" stroke-width="3" d="M173 107.513l21.392 20.886"/></g><g><path fill="none" stroke="#efeae7" stroke-miterlimit="20" stroke-width="3" d="M194.392 107.513L173 128.399"/></g><g><path fill="none" stroke="#efeae7" stroke-miterlimit="20" stroke-width="3" d="M549.734 107.513l21.391 20.886"/></g><g><path fill="none" stroke="#efeae7" stroke-miterlimit="20" stroke-width="3" d="M571.125 107.513l-21.391 20.886"/></g><g><path fill="none" stroke="#efeae7" stroke-miterlimit="20" stroke-width="3" d="M507.875 107.513l21.391 20.886"/></g><g><path fill="none" stroke="#efeae7" stroke-miterlimit="20" stroke-width="3" d="M529.266 107.513l-21.391 20.886"/></g><g><path fill="none" stroke="#efeae7" stroke-miterlimit="20" stroke-width="3" d="M466.016 107.513l21.39 20.886"/></g><g><path fill="none" stroke="#efeae7" stroke-miterlimit="20" stroke-width="3" d="M487.406 107.513l-21.39 20.886"/></g><g><path fill="none" stroke="#efeae7" stroke-miterlimit="20" stroke-width="3" d="M424.156 107.513l21.391 20.886"/></g><g><path fill="none" stroke="#efeae7" stroke-miterlimit="20" stroke-width="3" d="M445.547 107.513l-21.391 20.886"/></g><g><path fill="none" stroke="#efeae7" stroke-miterlimit="20" stroke-width="3" d="M382.297 107.513l21.39 20.886"/></g><g><path fill="none" stroke="#efeae7" stroke-miterlimit="20" stroke-width="3" d="M403.688 107.513l-21.391 20.886"/></g><g><path fill="none" stroke="#efeae7" stroke-miterlimit="20" stroke-width="3" d="M340.438 107.513l21.39 20.886"/></g><g><path fill="none" stroke="#efeae7" stroke-miterlimit="20" stroke-width="3" d="M361.828 107.513l-21.39 20.886"/></g><g><path fill="none" stroke="#efeae7" stroke-miterlimit="20" stroke-width="3" d="M298.578 107.513l21.391 20.886"/></g><g><path fill="none" stroke="#efeae7" stroke-miterlimit="20" stroke-width="3" d="M319.969 107.513l-21.391 20.886"/></g><g><path fill="none" stroke="#efeae7" stroke-miterlimit="20" stroke-width="3" d="M256.719 107.513l21.392 20.886"/></g><g><path fill="none" stroke="#efeae7" stroke-miterlimit="20" stroke-width="3" d="M278.11 107.513l-21.392 20.886"/></g><g><path fill="none" stroke="#efeae7" stroke-miterlimit="20" stroke-width="3" d="M214.86 107.513l21.391 20.886"/></g><g><path fill="none" stroke="#efeae7" stroke-miterlimit="20" stroke-width="3" d="M236.251 107.513l-21.392 20.886"/></g><g><path fill="none" stroke="#efeae7" stroke-miterlimit="20" stroke-width="3" d="M173 160.338l21.392 20.886"/></g><g><path fill="none" stroke="#efeae7" stroke-miterlimit="20" stroke-width="3" d="M194.392 160.338L173 181.224"/></g><g><path fill="none" stroke="#efeae7" stroke-miterlimit="20" stroke-width="3" d="M549.734 160.338l21.391 20.886"/></g><g><path fill="none" stroke="#efeae7" stroke-miterlimit="20" stroke-width="3" d="M571.125 160.338l-21.391 20.886"/></g><g><path fill="none" stroke="#efeae7" stroke-miterlimit="20" stroke-width="3" d="M507.875 160.338l21.391 20.886"/></g><g><path fill="none" stroke="#efeae7" stroke-miterlimit="20" stroke-width="3" d="M529.266 160.338l-21.391 20.886"/></g><g><path fill="none" stroke="#efeae7" stroke-miterlimit="20" stroke-width="3" d="M466.016 160.338l21.39 20.886"/></g><g><path fill="none" stroke="#efeae7" stroke-miterlimit="20" stroke-width="3" d="M487.406 160.338l-21.39 20.886"/></g><g><path fill="none" stroke="#efeae7" stroke-miterlimit="20" stroke-width="3" d="M424.156 160.338l21.391 20.886"/></g><g><path fill="none" stroke="#efeae7" stroke-miterlimit="20" stroke-width="3" d="M445.547 160.338l-21.391 20.886"/></g><g><path fill="none" stroke="#efeae7" stroke-miterlimit="20" stroke-width="3" d="M382.297 160.338l21.39 20.886"/></g><g><path fill="none" stroke="#efeae7" stroke-miterlimit="20" stroke-width="3" d="M403.688 160.338l-21.391 20.886"/></g><g><path fill="none" stroke="#efeae7" stroke-miterlimit="20" stroke-width="3" d="M340.438 160.338l21.39 20.886"/></g><g><path fill="none" stroke="#efeae7" stroke-miterlimit="20" stroke-width="3" d="M361.828 160.338l-21.39 20.886"/></g><g><path fill="none" stroke="#efeae7" stroke-miterlimit="20" stroke-width="3" d="M298.578 160.338l21.391 20.886"/></g><g><path fill="none" stroke="#efeae7" stroke-miterlimit="20" stroke-width="3" d="M319.969 160.338l-21.391 20.886"/></g><g><path fill="none" stroke="#efeae7" stroke-miterlimit="20" stroke-width="3" d="M256.719 160.338l21.392 20.886"/></g><g><path fill="none" stroke="#efeae7" stroke-miterlimit="20" stroke-width="3" d="M278.11 160.338l-21.392 20.886"/></g><g><path fill="none" stroke="#efeae7" stroke-miterlimit="20" stroke-width="3" d="M214.86 160.338l21.391 20.886"/></g><g><path fill="none" stroke="#efeae7" stroke-miterlimit="20" stroke-width="3" d="M236.251 160.338l-21.392 20.886"/></g><g><path fill="none" stroke="#efeae7" stroke-miterlimit="20" stroke-width="3" d="M173 213.163l21.392 20.886"/></g><g><path fill="none" stroke="#efeae7" stroke-miterlimit="20" stroke-width="3" d="M194.392 213.163L173 234.05"/></g><g><path fill="none" stroke="#efeae7" stroke-miterlimit="20" stroke-width="3" d="M549.734 213.163l21.391 20.886"/></g><g><path fill="none" stroke="#efeae7" stroke-miterlimit="20" stroke-width="3" d="M571.125 213.163l-21.391 20.886"/></g><g><path fill="none" stroke="#efeae7" stroke-miterlimit="20" stroke-width="3" d="M507.875 213.163l21.391 20.886"/></g><g><path fill="none" stroke="#efeae7" stroke-miterlimit="20" stroke-width="3" d="M529.266 213.163l-21.391 20.886"/></g><g><path fill="none" stroke="#efeae7" stroke-miterlimit="20" stroke-width="3" d="M466.016 213.163l21.39 20.886"/></g><g><path fill="none" stroke="#efeae7" stroke-miterlimit="20" stroke-width="3" d="M487.406 213.163l-21.39 20.886"/></g><g><path fill="none" stroke="#efeae7" stroke-miterlimit="20" stroke-width="3" d="M424.156 213.163l21.391 20.886"/></g><g><path fill="none" stroke="#efeae7" stroke-miterlimit="20" stroke-width="3" d="M445.547 213.163l-21.391 20.886"/></g><g><path fill="none" stroke="#efeae7" stroke-miterlimit="20" stroke-width="3" d="M382.297 213.163l21.39 20.886"/></g><g><path fill="none" stroke="#efeae7" stroke-miterlimit="20" stroke-width="3" d="M403.688 213.163l-21.391 20.886"/></g><g><path fill="none" stroke="#efeae7" stroke-miterlimit="20" stroke-width="3" d="M340.438 213.163l21.39 20.886"/></g><g><path fill="none" stroke="#efeae7" stroke-miterlimit="20" stroke-width="3" d="M361.828 213.163l-21.39 20.886"/></g><g><path fill="none" stroke="#efeae7" stroke-miterlimit="20" stroke-width="3" d="M298.578 213.163l21.391 20.886"/></g><g><path fill="none" stroke="#efeae7" stroke-miterlimit="20" stroke-width="3" d="M319.969 213.163l-21.391 20.886"/></g><g><path fill="none" stroke="#efeae7" stroke-miterlimit="20" stroke-width="3" d="M256.719 213.163l21.392 20.886"/></g><g><path fill="none" stroke="#efeae7" stroke-miterlimit="20" stroke-width="3" d="M278.11 213.163l-21.392 20.886"/></g><g><path fill="none" stroke="#efeae7" stroke-miterlimit="20" stroke-width="3" d="M214.86 213.163l21.391 20.886"/></g><g><path fill="none" stroke="#efeae7" stroke-miterlimit="20" stroke-width="3" d="M236.251 213.163l-21.392 20.886"/></g><g><path fill="none" stroke="#efeae7" stroke-miterlimit="20" stroke-width="3" d="M173 265.988l21.392 20.886"/></g><g><path fill="none" stroke="#efeae7" stroke-miterlimit="20" stroke-width="3" d="M194.392 265.988L173 286.874"/></g><g><path fill="none" stroke="#efeae7" stroke-miterlimit="20" stroke-width="3" d="M549.734 265.988l21.391 20.886"/></g><g><path fill="none" stroke="#efeae7" stroke-miterlimit="20" stroke-width="3" d="M571.125 265.988l-21.391 20.886"/></g><g><path fill="none" stroke="#efeae7" stroke-miterlimit="20" stroke-width="3" d="M507.875 265.988l21.391 20.886"/></g><g><path fill="none" stroke="#efeae7" stroke-miterlimit="20" stroke-width="3" d="M529.266 265.988l-21.391 20.886"/></g><g><path fill="none" stroke="#efeae7" stroke-miterlimit="20" stroke-width="3" d="M466.016 265.988l21.39 20.886"/></g><g><path fill="none" stroke="#efeae7" stroke-miterlimit="20" stroke-width="3" d="M487.406 265.988l-21.39 20.886"/></g><g><path fill="none" stroke="#efeae7" stroke-miterlimit="20" stroke-width="3" d="M424.156 265.988l21.391 20.886"/></g><g><path fill="none" stroke="#efeae7" stroke-miterlimit="20" stroke-width="3" d="M445.547 265.988l-21.391 20.886"/></g><g><path fill="none" stroke="#efeae7" stroke-miterlimit="20" stroke-width="3" d="M382.297 265.988l21.39 20.886"/></g><g><path fill="none" stroke="#efeae7" stroke-miterlimit="20" stroke-width="3" d="M403.688 265.988l-21.391 20.886"/></g><g><path fill="none" stroke="#efeae7" stroke-miterlimit="20" stroke-width="3" d="M340.438 265.988l21.39 20.886"/></g><g><path fill="none" stroke="#efeae7" stroke-miterlimit="20" stroke-width="3" d="M361.828 265.988l-21.39 20.886"/></g><g><path fill="none" stroke="#efeae7" stroke-miterlimit="20" stroke-width="3" d="M298.578 265.988l21.391 20.886"/></g><g><path fill="none" stroke="#efeae7" stroke-miterlimit="20" stroke-width="3" d="M319.969 265.988l-21.391 20.886"/></g><g><path fill="none" stroke="#efeae7" stroke-miterlimit="20" stroke-width="3" d="M256.719 265.988l21.392 20.886"/></g><g><path fill="none" stroke="#efeae7" stroke-miterlimit="20" stroke-width="3" d="M278.11 265.988l-21.392 20.886"/></g><g><path fill="none" stroke="#efeae7" stroke-miterlimit="20" stroke-width="3" d="M214.86 265.988l21.391 20.886"/></g><g><path fill="none" stroke="#efeae7" stroke-miterlimit="20" stroke-width="3" d="M236.251 265.988l-21.392 20.886"/></g><g><path fill="none" stroke="#efeae7" stroke-miterlimit="20" stroke-width="3" d="M173 318.813l21.392 20.886"/></g><g><path fill="none" stroke="#efeae7" stroke-miterlimit="20" stroke-width="3" d="M194.392 318.813L173 339.7"/></g><g><path fill="none" stroke="#efeae7" stroke-miterlimit="20" stroke-width="3" d="M549.734 318.813l21.391 20.886"/></g><g><path fill="none" stroke="#efeae7" stroke-miterlimit="20" stroke-width="3" d="M571.125 318.813L549.734 339.7"/></g><g><path fill="none" stroke="#efeae7" stroke-miterlimit="20" stroke-width="3" d="M507.875 318.813l21.391 20.886"/></g><g><path fill="none" stroke="#efeae7" stroke-miterlimit="20" stroke-width="3" d="M529.266 318.813L507.875 339.7"/></g><g><path fill="none" stroke="#efeae7" stroke-miterlimit="20" stroke-width="3" d="M466.016 318.813l21.39 20.886"/></g><g><path fill="none" stroke="#efeae7" stroke-miterlimit="20" stroke-width="3" d="M487.406 318.813l-21.39 20.886"/></g><g><path fill="none" stroke="#efeae7" stroke-miterlimit="20" stroke-width="3" d="M424.156 318.813l21.391 20.886"/></g><g><path fill="none" stroke="#efeae7" stroke-miterlimit="20" stroke-width="3" d="M445.547 318.813L424.156 339.7"/></g><g><path fill="none" stroke="#efeae7" stroke-miterlimit="20" stroke-width="3" d="M382.297 318.813l21.39 20.886"/></g><g><path fill="none" stroke="#efeae7" stroke-miterlimit="20" stroke-width="3" d="M403.688 318.813L382.296 339.7"/></g><g><path fill="none" stroke="#efeae7" stroke-miterlimit="20" stroke-width="3" d="M340.438 318.813l21.39 20.886"/></g><g><path fill="none" stroke="#efeae7" stroke-miterlimit="20" stroke-width="3" d="M361.828 318.813l-21.39 20.886"/></g><g><path fill="none" stroke="#efeae7" stroke-miterlimit="20" stroke-width="3" d="M298.578 318.813L319.97 339.7"/></g><g><path fill="none" stroke="#efeae7" stroke-miterlimit="20" stroke-width="3" d="M319.969 318.813L298.578 339.7"/></g><g><path fill="none" stroke="#efeae7" stroke-miterlimit="20" stroke-width="3" d="M256.719 318.813L278.11 339.7"/></g><g><path fill="none" stroke="#efeae7" stroke-miterlimit="20" stroke-width="3" d="M278.11 318.813L256.718 339.7"/></g><g><path fill="none" stroke="#efeae7" stroke-miterlimit="20" stroke-width="3" d="M214.86 318.813L236.25 339.7"/></g><g><path fill="none" stroke="#efeae7" stroke-miterlimit="20" stroke-width="3" d="M236.251 318.813L214.859 339.7"/></g><g><path fill="none" stroke="#efeae7" stroke-miterlimit="20" stroke-width="3" d="M173 371.639l21.392 20.886"/></g><g><path fill="none" stroke="#efeae7" stroke-miterlimit="20" stroke-width="3" d="M194.392 371.639L173 392.525"/></g><g><path fill="none" stroke="#efeae7" stroke-miterlimit="20" stroke-width="3" d="M549.734 371.639l21.391 20.886"/></g><g><path fill="none" stroke="#efeae7" stroke-miterlimit="20" stroke-width="3" d="M571.125 371.639l-21.391 20.886"/></g><g><path fill="none" stroke="#efeae7" stroke-miterlimit="20" stroke-width="3" d="M507.875 371.639l21.391 20.886"/></g><g><path fill="none" stroke="#efeae7" stroke-miterlimit="20" stroke-width="3" d="M529.266 371.639l-21.391 20.886"/></g><g><path fill="none" stroke="#efeae7" stroke-miterlimit="20" stroke-width="3" d="M466.016 371.639l21.39 20.886"/></g><g><path fill="none" stroke="#efeae7" stroke-miterlimit="20" stroke-width="3" d="M487.406 371.639l-21.39 20.886"/></g><g><path fill="none" stroke="#efeae7" stroke-miterlimit="20" stroke-width="3" d="M424.156 371.639l21.391 20.886"/></g><g><path fill="none" stroke="#efeae7" stroke-miterlimit="20" stroke-width="3" d="M445.547 371.639l-21.391 20.886"/></g><g><path fill="none" stroke="#efeae7" stroke-miterlimit="20" stroke-width="3" d="M382.297 371.639l21.39 20.886"/></g><g><path fill="none" stroke="#efeae7" stroke-miterlimit="20" stroke-width="3" d="M403.688 371.639l-21.391 20.886"/></g><g><path fill="none" stroke="#efeae7" stroke-miterlimit="20" stroke-width="3" d="M340.438 371.639l21.39 20.886"/></g><g><path fill="none" stroke="#efeae7" stroke-miterlimit="20" stroke-width="3" d="M361.828 371.639l-21.39 20.886"/></g><g><path fill="none" stroke="#efeae7" stroke-miterlimit="20" stroke-width="3" d="M298.578 371.639l21.391 20.886"/></g><g><path fill="none" stroke="#efeae7" stroke-miterlimit="20" stroke-width="3" d="M319.969 371.639l-21.391 20.886"/></g><g><path fill="none" stroke="#efeae7" stroke-miterlimit="20" stroke-width="3" d="M256.719 371.639l21.392 20.886"/></g><g><path fill="none" stroke="#efeae7" stroke-miterlimit="20" stroke-width="3" d="M278.11 371.639l-21.392 20.886"/></g><g><path fill="none" stroke="#efeae7" stroke-miterlimit="20" stroke-width="3" d="M214.86 371.639l21.391 20.886"/></g><g><path fill="none" stroke="#efeae7" stroke-miterlimit="20" stroke-width="3" d="M236.251 371.639l-21.392 20.886"/></g><g><path fill="none" stroke="#efeae7" stroke-miterlimit="20" stroke-width="3" d="M173 424.464l21.392 20.886"/></g><g><path fill="none" stroke="#efeae7" stroke-miterlimit="20" stroke-width="3" d="M194.392 424.464L173 445.35"/></g><g><path fill="none" stroke="#efeae7" stroke-miterlimit="20" stroke-width="3" d="M549.734 424.464l21.391 20.886"/></g><g><path fill="none" stroke="#efeae7" stroke-miterlimit="20" stroke-width="3" d="M571.125 424.464l-21.391 20.886"/></g><g><path fill="none" stroke="#efeae7" stroke-miterlimit="20" stroke-width="3" d="M507.875 424.464l21.391 20.886"/></g><g><path fill="none" stroke="#efeae7" stroke-miterlimit="20" stroke-width="3" d="M529.266 424.464l-21.391 20.886"/></g><g><path fill="none" stroke="#efeae7" stroke-miterlimit="20" stroke-width="3" d="M466.016 424.464l21.39 20.886"/></g><g><path fill="none" stroke="#efeae7" stroke-miterlimit="20" stroke-width="3" d="M487.406 424.464l-21.39 20.886"/></g><g><path fill="none" stroke="#efeae7" stroke-miterlimit="20" stroke-width="3" d="M424.156 424.464l21.391 20.886"/></g><g><path fill="none" stroke="#efeae7" stroke-miterlimit="20" stroke-width="3" d="M445.547 424.464l-21.391 20.886"/></g><g><path fill="none" stroke="#efeae7" stroke-miterlimit="20" stroke-width="3" d="M382.297 424.464l21.39 20.886"/></g><g><path fill="none" stroke="#efeae7" stroke-miterlimit="20" stroke-width="3" d="M403.688 424.464l-21.391 20.886"/></g><g><path fill="none" stroke="#efeae7" stroke-miterlimit="20" stroke-width="3" d="M340.438 424.464l21.39 20.886"/></g><g><path fill="none" stroke="#efeae7" stroke-miterlimit="20" stroke-width="3" d="M361.828 424.464l-21.39 20.886"/></g><g><path fill="none" stroke="#efeae7" stroke-miterlimit="20" stroke-width="3" d="M298.578 424.464l21.391 20.886"/></g><g><path fill="none" stroke="#efeae7" stroke-miterlimit="20" stroke-width="3" d="M319.969 424.464l-21.391 20.886"/></g><g><path fill="none" stroke="#efeae7" stroke-miterlimit="20" stroke-width="3" d="M256.719 424.464l21.392 20.886"/></g><g><path fill="none" stroke="#efeae7" stroke-miterlimit="20" stroke-width="3" d="M278.11 424.464l-21.392 20.886"/></g><g><path fill="none" stroke="#efeae7" stroke-miterlimit="20" stroke-width="3" d="M214.86 424.464l21.391 20.886"/></g><g><path fill="none" stroke="#efeae7" stroke-miterlimit="20" stroke-width="3" d="M236.251 424.464l-21.392 20.886"/></g><g><path fill="none" stroke="#efeae7" stroke-miterlimit="20" stroke-width="3" d="M173 477.29l21.392 20.885"/></g><g><path fill="none" stroke="#efeae7" stroke-miterlimit="20" stroke-width="3" d="M194.392 477.29L173 498.174"/></g><g><path fill="none" stroke="#efeae7" stroke-miterlimit="20" stroke-width="3" d="M549.734 477.29l21.391 20.885"/></g><g><path fill="none" stroke="#efeae7" stroke-miterlimit="20" stroke-width="3" d="M571.125 477.29l-21.391 20.885"/></g><g><path fill="none" stroke="#efeae7" stroke-miterlimit="20" stroke-width="3" d="M507.875 477.29l21.391 20.885"/></g><g><path fill="none" stroke="#efeae7" stroke-miterlimit="20" stroke-width="3" d="M529.266 477.29l-21.391 20.885"/></g><g><path fill="none" stroke="#efeae7" stroke-miterlimit="20" stroke-width="3" d="M466.016 477.29l21.39 20.885"/></g><g><path fill="none" stroke="#efeae7" stroke-miterlimit="20" stroke-width="3" d="M487.406 477.29l-21.39 20.885"/></g><g><path fill="none" stroke="#efeae7" stroke-miterlimit="20" stroke-width="3" d="M424.156 477.29l21.391 20.885"/></g><g><path fill="none" stroke="#efeae7" stroke-miterlimit="20" stroke-width="3" d="M445.547 477.29l-21.391 20.885"/></g><g><path fill="none" stroke="#efeae7" stroke-miterlimit="20" stroke-width="3" d="M382.297 477.29l21.39 20.885"/></g><g><path fill="none" stroke="#efeae7" stroke-miterlimit="20" stroke-width="3" d="M403.688 477.29l-21.391 20.885"/></g><g><path fill="none" stroke="#efeae7" stroke-miterlimit="20" stroke-width="3" d="M340.438 477.29l21.39 20.885"/></g><g><path fill="none" stroke="#efeae7" stroke-miterlimit="20" stroke-width="3" d="M361.828 477.29l-21.39 20.885"/></g><g><path fill="none" stroke="#efeae7" stroke-miterlimit="20" stroke-width="3" d="M298.578 477.29l21.391 20.885"/></g><g><path fill="none" stroke="#efeae7" stroke-miterlimit="20" stroke-width="3" d="M319.969 477.29l-21.391 20.885"/></g><g><path fill="none" stroke="#efeae7" stroke-miterlimit="20" stroke-width="3" d="M256.719 477.29l21.392 20.885"/></g><g><path fill="none" stroke="#efeae7" stroke-miterlimit="20" stroke-width="3" d="M278.11 477.29l-21.392 20.885"/></g><g><path fill="none" stroke="#efeae7" stroke-miterlimit="20" stroke-width="3" d="M214.86 477.29l21.391 20.885"/></g><g><path fill="none" stroke="#efeae7" stroke-miterlimit="20" stroke-width="3" d="M236.251 477.29l-21.392 20.885"/></g><g><path fill="none" stroke="#efeae7" stroke-miterlimit="20" stroke-width="3" d="M173 530.114L194.392 551"/></g><g><path fill="none" stroke="#efeae7" stroke-miterlimit="20" stroke-width="3" d="M194.392 530.114L173 551"/></g><g><path fill="none" stroke="#efeae7" stroke-miterlimit="20" stroke-width="3" d="M549.734 530.114L571.125 551"/></g><g><path fill="none" stroke="#efeae7" stroke-miterlimit="20" stroke-width="3" d="M571.125 530.114L549.734 551"/></g><g><path fill="none" stroke="#efeae7" stroke-miterlimit="20" stroke-width="3" d="M507.875 530.114L529.266 551"/></g><g><path fill="none" stroke="#efeae7" stroke-miterlimit="20" stroke-width="3" d="M529.266 530.114L507.875 551"/></g><g><path fill="none" stroke="#efeae7" stroke-miterlimit="20" stroke-width="3" d="M466.016 530.114L487.406 551"/></g><g><path fill="none" stroke="#efeae7" stroke-miterlimit="20" stroke-width="3" d="M487.406 530.114L466.016 551"/></g><g><path fill="none" stroke="#efeae7" stroke-miterlimit="20" stroke-width="3" d="M424.156 530.114L445.547 551"/></g><g><path fill="none" stroke="#efeae7" stroke-miterlimit="20" stroke-width="3" d="M445.547 530.114L424.156 551"/></g><g><path fill="none" stroke="#efeae7" stroke-miterlimit="20" stroke-width="3" d="M382.297 530.114L403.687 551"/></g><g><path fill="none" stroke="#efeae7" stroke-miterlimit="20" stroke-width="3" d="M403.688 530.114L382.296 551"/></g><g><path fill="none" stroke="#efeae7" stroke-miterlimit="20" stroke-width="3" d="M340.438 530.114L361.827 551"/></g><g><path fill="none" stroke="#efeae7" stroke-miterlimit="20" stroke-width="3" d="M361.828 530.114L340.438 551"/></g><g><path fill="none" stroke="#efeae7" stroke-miterlimit="20" stroke-width="3" d="M298.578 530.114L319.97 551"/></g><g><path fill="none" stroke="#efeae7" stroke-miterlimit="20" stroke-width="3" d="M319.969 530.114L298.578 551"/></g><g><path fill="none" stroke="#efeae7" stroke-miterlimit="20" stroke-width="3" d="M256.719 530.114L278.11 551"/></g><g><path fill="none" stroke="#efeae7" stroke-miterlimit="20" stroke-width="3" d="M278.11 530.114L256.718 551"/></g><g><path fill="none" stroke="#efeae7" stroke-miterlimit="20" stroke-width="3" d="M214.86 530.114L236.25 551"/></g><g><path fill="none" stroke="#efeae7" stroke-miterlimit="20" stroke-width="3" d="M236.251 530.114L214.859 551"/></g><g><path fill="none" stroke="#efeae7" stroke-miterlimit="20" stroke-width="3" d="M86 1.862l21.392 20.886"/></g><g><path fill="none" stroke="#efeae7" stroke-miterlimit="20" stroke-width="3" d="M107.392 1.862L86 22.748"/></g><g><path fill="none" stroke="#efeae7" stroke-miterlimit="20" stroke-width="3" d="M127.86 1.862l21.391 20.886"/></g><g><path fill="none" stroke="#efeae7" stroke-miterlimit="20" stroke-width="3" d="M149.251 1.862l-21.392 20.886"/></g><g><path fill="none" stroke="#efeae7" stroke-miterlimit="20" stroke-width="3" d="M86 54.688l21.392 20.885"/></g><g><path fill="none" stroke="#efeae7" stroke-miterlimit="20" stroke-width="3" d="M107.392 54.688L86 75.573"/></g><g><path fill="none" stroke="#efeae7" stroke-miterlimit="20" stroke-width="3" d="M127.86 54.688l21.391 20.885"/></g><g><path fill="none" stroke="#efeae7" stroke-miterlimit="20" stroke-width="3" d="M149.251 54.688l-21.392 20.885"/></g><g><path fill="none" stroke="#efeae7" stroke-miterlimit="20" stroke-width="3" d="M86 107.513l21.392 20.886"/></g><g><path fill="none" stroke="#efeae7" stroke-miterlimit="20" stroke-width="3" d="M107.392 107.513L86 128.399"/></g><g><path fill="none" stroke="#efeae7" stroke-miterlimit="20" stroke-width="3" d="M127.86 107.513l21.391 20.886"/></g><g><path fill="none" stroke="#efeae7" stroke-miterlimit="20" stroke-width="3" d="M149.251 107.513l-21.392 20.886"/></g><g><path fill="none" stroke="#efeae7" stroke-miterlimit="20" stroke-width="3" d="M86 160.338l21.392 20.886"/></g><g><path fill="none" stroke="#efeae7" stroke-miterlimit="20" stroke-width="3" d="M107.392 160.338L86 181.224"/></g><g><path fill="none" stroke="#efeae7" stroke-miterlimit="20" stroke-width="3" d="M127.86 160.338l21.391 20.886"/></g><g><path fill="none" stroke="#efeae7" stroke-miterlimit="20" stroke-width="3" d="M149.251 160.338l-21.392 20.886"/></g><g><path fill="none" stroke="#efeae7" stroke-miterlimit="20" stroke-width="3" d="M86 213.163l21.392 20.886"/></g><g><path fill="none" stroke="#efeae7" stroke-miterlimit="20" stroke-width="3" d="M107.392 213.163L86 234.05"/></g><g><path fill="none" stroke="#efeae7" stroke-miterlimit="20" stroke-width="3" d="M127.86 213.163l21.391 20.886"/></g><g><path fill="none" stroke="#efeae7" stroke-miterlimit="20" stroke-width="3" d="M149.251 213.163l-21.392 20.886"/></g><g><path fill="none" stroke="#efeae7" stroke-miterlimit="20" stroke-width="3" d="M86 265.988l21.392 20.886"/></g><g><path fill="none" stroke="#efeae7" stroke-miterlimit="20" stroke-width="3" d="M107.392 265.988L86 286.874"/></g><g><path fill="none" stroke="#efeae7" stroke-miterlimit="20" stroke-width="3" d="M127.86 265.988l21.391 20.886"/></g><g><path fill="none" stroke="#efeae7" stroke-miterlimit="20" stroke-width="3" d="M149.251 265.988l-21.392 20.886"/></g><g><path fill="none" stroke="#efeae7" stroke-miterlimit="20" stroke-width="3" d="M86 318.813l21.392 20.886"/></g><g><path fill="none" stroke="#efeae7" stroke-miterlimit="20" stroke-width="3" d="M107.392 318.813L86 339.7"/></g><g><path fill="none" stroke="#efeae7" stroke-miterlimit="20" stroke-width="3" d="M127.86 318.813L149.25 339.7"/></g><g><path fill="none" stroke="#efeae7" stroke-miterlimit="20" stroke-width="3" d="M149.251 318.813L127.859 339.7"/></g><g><path fill="none" stroke="#efeae7" stroke-miterlimit="20" stroke-width="3" d="M86 371.639l21.392 20.886"/></g><g><path fill="none" stroke="#efeae7" stroke-miterlimit="20" stroke-width="3" d="M107.392 371.639L86 392.525"/></g><g><path fill="none" stroke="#efeae7" stroke-miterlimit="20" stroke-width="3" d="M127.86 371.639l21.391 20.886"/></g><g><path fill="none" stroke="#efeae7" stroke-miterlimit="20" stroke-width="3" d="M149.251 371.639l-21.392 20.886"/></g><g><path fill="none" stroke="#efeae7" stroke-miterlimit="20" stroke-width="3" d="M86 424.464l21.392 20.886"/></g><g><path fill="none" stroke="#efeae7" stroke-miterlimit="20" stroke-width="3" d="M107.392 424.464L86 445.35"/></g><g><path fill="none" stroke="#efeae7" stroke-miterlimit="20" stroke-width="3" d="M127.86 424.464l21.391 20.886"/></g><g><path fill="none" stroke="#efeae7" stroke-miterlimit="20" stroke-width="3" d="M149.251 424.464l-21.392 20.886"/></g><g><path fill="none" stroke="#efeae7" stroke-miterlimit="20" stroke-width="3" d="M86 477.29l21.392 20.885"/></g><g><path fill="none" stroke="#efeae7" stroke-miterlimit="20" stroke-width="3" d="M107.392 477.29L86 498.174"/></g><g><path fill="none" stroke="#efeae7" stroke-miterlimit="20" stroke-width="3" d="M127.86 477.29l21.391 20.885"/></g><g><path fill="none" stroke="#efeae7" stroke-miterlimit="20" stroke-width="3" d="M149.251 477.29l-21.392 20.885"/></g><g><path fill="none" stroke="#efeae7" stroke-miterlimit="20" stroke-width="3" d="M86 530.114L107.392 551"/></g><g><path fill="none" stroke="#efeae7" stroke-miterlimit="20" stroke-width="3" d="M107.392 530.114L86 551"/></g><g><path fill="none" stroke="#efeae7" stroke-miterlimit="20" stroke-width="3" d="M127.86 530.114L149.25 551"/></g><g><path fill="none" stroke="#efeae7" stroke-miterlimit="20" stroke-width="3" d="M149.251 530.114L127.859 551"/></g><g><path fill="none" stroke="#efeae7" stroke-miterlimit="20" stroke-width="3" d="M1 1.862l21.392 20.886"/></g><g><path fill="none" stroke="#efeae7" stroke-miterlimit="20" stroke-width="3" d="M22.392 1.862L1 22.748"/></g><g><path fill="none" stroke="#efeae7" stroke-miterlimit="20" stroke-width="3" d="M42.86 1.862L64.25 22.748"/></g><g><path fill="none" stroke="#efeae7" stroke-miterlimit="20" stroke-width="3" d="M64.251 1.862L42.859 22.748"/></g><g><path fill="none" stroke="#efeae7" stroke-miterlimit="20" stroke-width="3" d="M1 54.688l21.392 20.885"/></g><g><path fill="none" stroke="#efeae7" stroke-miterlimit="20" stroke-width="3" d="M22.392 54.688L1 75.573"/></g><g><path fill="none" stroke="#efeae7" stroke-miterlimit="20" stroke-width="3" d="M42.86 54.688L64.25 75.573"/></g><g><path fill="none" stroke="#efeae7" stroke-miterlimit="20" stroke-width="3" d="M64.251 54.688L42.859 75.573"/></g><g><path fill="none" stroke="#efeae7" stroke-miterlimit="20" stroke-width="3" d="M1 107.513l21.392 20.886"/></g><g><path fill="none" stroke="#efeae7" stroke-miterlimit="20" stroke-width="3" d="M22.392 107.513L1 128.399"/></g><g><path fill="none" stroke="#efeae7" stroke-miterlimit="20" stroke-width="3" d="M42.86 107.513l21.391 20.886"/></g><g><path fill="none" stroke="#efeae7" stroke-miterlimit="20" stroke-width="3" d="M64.251 107.513l-21.392 20.886"/></g><g><path fill="none" stroke="#efeae7" stroke-miterlimit="20" stroke-width="3" d="M1 160.338l21.392 20.886"/></g><g><path fill="none" stroke="#efeae7" stroke-miterlimit="20" stroke-width="3" d="M22.392 160.338L1 181.224"/></g><g><path fill="none" stroke="#efeae7" stroke-miterlimit="20" stroke-width="3" d="M42.86 160.338l21.391 20.886"/></g><g><path fill="none" stroke="#efeae7" stroke-miterlimit="20" stroke-width="3" d="M64.251 160.338l-21.392 20.886"/></g><g><path fill="none" stroke="#efeae7" stroke-miterlimit="20" stroke-width="3" d="M1 213.163l21.392 20.886"/></g><g><path fill="none" stroke="#efeae7" stroke-miterlimit="20" stroke-width="3" d="M22.392 213.163L1 234.05"/></g><g><path fill="none" stroke="#efeae7" stroke-miterlimit="20" stroke-width="3" d="M42.86 213.163L64.25 234.05"/></g><g><path fill="none" stroke="#efeae7" stroke-miterlimit="20" stroke-width="3" d="M64.251 213.163L42.859 234.05"/></g><g><path fill="none" stroke="#efeae7" stroke-miterlimit="20" stroke-width="3" d="M1 265.988l21.392 20.886"/></g><g><path fill="none" stroke="#efeae7" stroke-miterlimit="20" stroke-width="3" d="M22.392 265.988L1 286.874"/></g><g><path fill="none" stroke="#efeae7" stroke-miterlimit="20" stroke-width="3" d="M42.86 265.988l21.391 20.886"/></g><g><path fill="none" stroke="#efeae7" stroke-miterlimit="20" stroke-width="3" d="M64.251 265.988l-21.392 20.886"/></g><g><path fill="none" stroke="#efeae7" stroke-miterlimit="20" stroke-width="3" d="M1 318.813L22.392 339.7"/></g><g><path fill="none" stroke="#efeae7" stroke-miterlimit="20" stroke-width="3" d="M22.392 318.813L1 339.7"/></g><g><path fill="none" stroke="#efeae7" stroke-miterlimit="20" stroke-width="3" d="M42.86 318.813L64.25 339.7"/></g><g><path fill="none" stroke="#efeae7" stroke-miterlimit="20" stroke-width="3" d="M64.251 318.813L42.859 339.7"/></g><g><path fill="none" stroke="#efeae7" stroke-miterlimit="20" stroke-width="3" d="M1 371.639l21.392 20.886"/></g><g><path fill="none" stroke="#efeae7" stroke-miterlimit="20" stroke-width="3" d="M22.392 371.639L1 392.525"/></g><g><path fill="none" stroke="#efeae7" stroke-miterlimit="20" stroke-width="3" d="M42.86 371.639l21.391 20.886"/></g><g><path fill="none" stroke="#efeae7" stroke-miterlimit="20" stroke-width="3" d="M64.251 371.639l-21.392 20.886"/></g><g><path fill="none" stroke="#efeae7" stroke-miterlimit="20" stroke-width="3" d="M1 424.464l21.392 20.886"/></g><g><path fill="none" stroke="#efeae7" stroke-miterlimit="20" stroke-width="3" d="M22.392 424.464L1 445.35"/></g><g><path fill="none" stroke="#efeae7" stroke-miterlimit="20" stroke-width="3" d="M42.86 424.464L64.25 445.35"/></g><g><path fill="none" stroke="#efeae7" stroke-miterlimit="20" stroke-width="3" d="M64.251 424.464L42.859 445.35"/></g><g><path fill="none" stroke="#efeae7" stroke-miterlimit="20" stroke-width="3" d="M1 477.29l21.392 20.885"/></g><g><path fill="none" stroke="#efeae7" stroke-miterlimit="20" stroke-width="3" d="M22.392 477.29L1 498.174"/></g><g><path fill="none" stroke="#efeae7" stroke-miterlimit="20" stroke-width="3" d="M42.86 477.29l21.391 20.885"/></g><g><path fill="none" stroke="#efeae7" stroke-miterlimit="20" stroke-width="3" d="M64.251 477.29l-21.392 20.885"/></g><g><path fill="none" stroke="#efeae7" stroke-miterlimit="20" stroke-width="3" d="M1 530.114L22.392 551"/></g><g><path fill="none" stroke="#efeae7" stroke-miterlimit="20" stroke-width="3" d="M22.392 530.114L1 551"/></g><g><path fill="none" stroke="#efeae7" stroke-miterlimit="20" stroke-width="3" d="M42.86 530.114L64.25 551"/></g><g><path fill="none" stroke="#efeae7" stroke-miterlimit="20" stroke-width="3" d="M64.251 530.114L42.859 551"/></g></g></svg>