<svg xmlns="http://www.w3.org/2000/svg" width="161" height="214" viewBox="0 0 161 214"><g><g><path fill="#e54b4e" d="M97.533 105.152C93.611 93.517 81 87.265 69.365 91.187c-10.904 3.675-17.2 15.065-14.516 26.255 8.003 27.824 37.277 52.794 64.087 74.011a4.448 4.448 0 0 0 5.523-6.972c-25.735-20.363-53.79-44.204-61.065-69.494-2.035-7.084 2.058-14.478 9.142-16.513 7.085-2.036 14.477 2.057 16.514 9.141 4.854 16.895 28.998 37.775 51.966 55.951a4.448 4.448 0 0 0 5.523-6.972c-12.129-9.577-44.248-34.99-49.006-51.442z"/></g><g><path fill="#e54b4e" d="M131.235 93.69c-9.666-29.637-40.984-46.378-70.997-37.953-30.684 8.805-48.42 40.816-39.616 71.501.007.021.012.044.018.065 7.301 25.362-8.349 32.395-13.338 33.942a4.446 4.446 0 1 0 2.667 8.483c13.597-4.25 26.802-18.549 19.217-44.889-7.478-25.955 7.501-53.058 33.456-60.536l.041-.01c25.663-7.215 52.403 7.33 60.29 32.793.106.347.255.68.446.988.462.764 1.414 2.374 29.994 25.565a4.448 4.448 0 0 0 6.256-.644 4.448 4.448 0 0 0-.646-6.256c-10.386-8.43-25.565-20.959-27.788-23.049z"/></g><g><path fill="#e54b4e" d="M114.642 100.235C108.5 79.028 86.369 66.78 65.138 72.838c-20.846 6.435-32.945 28.126-27.47 49.245 8.983 40.905 2.269 50.348-16.156 56.111a4.446 4.446 0 1 0 2.668 8.483c25.743-8.003 31.337-24.828 22.23-66.505-4.423-16.528 4.929-33.612 21.236-38.79 16.522-4.69 33.73 4.846 38.513 21.342 1.778 6.065 6.5 14.388 42.915 43.208a4.447 4.447 0 1 0 5.522-6.97c-33.054-26.145-38.71-34.423-39.954-38.727z"/></g><g><path fill="#e54b4e" d="M126.878 162.126c-15.046-11.418-40.23-30.519-46.427-52.056a4.446 4.446 0 0 0-8.546 2.454c7.007 24.383 33.666 44.605 49.593 56.689a118.223 118.223 0 0 1 9.337 7.47 4.446 4.446 0 0 0 6.287-6.286 116.81 116.81 0 0 0-10.244-8.271z"/></g><g><path fill="#e54b4e" d="M102.814 193.054a29.038 29.038 0 0 0-22.176-15.063c-15.118 0-17.457 25.698-17.786 30.847a4.446 4.446 0 0 0 4.162 4.713h.285a4.446 4.446 0 0 0 4.446-4.171c.56-9.158 4.064-22.497 8.893-22.497 6.588 0 11.266 6.349 15.018 11.444a47.803 47.803 0 0 0 4.065 5.034 4.446 4.446 0 0 0 6.287-6.287 39.74 39.74 0 0 1-3.193-4.02z"/></g><g><path fill="#e54b4e" d="M62.648 154.407a4.446 4.446 0 0 0-8.475 2.668c3.807 11.89-3.672 35.223-14.92 38.877a4.447 4.447 0 0 0 2.656 8.487l.092-.03c17.108-5.513 25.36-35.23 20.647-50.002z"/></g><g><path fill="#e54b4e" d="M157.592 93.726c-5.558-1.778-9.924-8.893-14.983-17.011-10.706-17.304-25.388-41.003-66.417-41.003C34.467 35.76.655 69.574.607 111.297a4.446 4.446 0 1 0 8.892 0c.039-36.817 29.875-66.653 66.693-66.692 36.076 0 48.712 20.399 58.868 36.796 5.975 9.648 11.133 17.98 19.794 20.79a4.446 4.446 0 0 0 2.84-8.426l-.092-.03z"/></g><g><path fill="#e54b4e" d="M9.498 146.866a4.445 4.445 0 0 0 3.976-6.437 39.38 39.38 0 0 1-3.976-11.347 4.446 4.446 0 1 0-8.893 0 45.47 45.47 0 0 0 4.918 15.331 4.447 4.447 0 0 0 3.975 2.453z"/></g><g><path fill="#e54b4e" d="M7.186 52.848a4.446 4.446 0 0 0 6.118-1.494c3.86-6.367 22.871-24.534 58.442-24.534 34.182 0 58.503 17.313 62.886 24.534a4.449 4.449 0 0 0 6.11 1.494 4.449 4.449 0 0 0 1.494-6.11c-6.101-10.048-33.035-28.811-70.49-28.811-39.83 0-61.18 20.8-66.053 28.82a4.447 4.447 0 0 0 1.494 6.1z"/></g><g><path fill="#e54b4e" d="M33.508 17.536c2.036-.89 3.762-1.779 5.397-2.668 6.688-3.37 11.499-5.834 32.84-5.834a100.854 100.854 0 0 1 42.265 6.768c1.699.631 3.406 1.262 5.193 1.876.467.162.956.246 1.45.25a4.447 4.447 0 0 0 1.449-8.654c-1.725-.595-3.361-1.2-4.997-1.778A109.641 109.641 0 0 0 71.745.142c-23.51 0-29.398 3.023-36.868 6.856-1.502.773-3.102 1.592-4.971 2.428a4.447 4.447 0 1 0 3.628 8.11z"/></g><g><path fill="#e54b4e" d="M151.98 77.08a4.446 4.446 0 0 0 8.476-2.669 112.252 112.252 0 0 0-9.346-18.763 4.448 4.448 0 0 0-7.577 4.66 105.382 105.382 0 0 1 8.448 16.771z"/></g><g><path fill="#e54b4e" d="M121.667 192.413a4.444 4.444 0 0 1-2.757-.96c-26.81-21.227-56.057-46.186-64.06-74.01-2.866-11.94 4.49-23.94 16.428-26.806 11.19-2.686 22.579 3.611 26.255 14.515 4.731 16.443 36.85 41.865 48.908 51.434a4.447 4.447 0 1 1-5.513 6.972c-22.969-18.176-47.13-39.047-51.976-55.952-2.036-7.08-9.427-11.172-16.509-9.136-7.082 2.036-11.172 9.427-9.136 16.508 7.274 25.29 35.329 49.131 61.054 69.495a4.447 4.447 0 0 1-2.765 7.931z"/></g><g><path fill="#e54b4e" d="M8.61 169.907a4.447 4.447 0 0 1-1.326-8.688c4.971-1.556 20.622-8.59 13.34-33.943-8.826-30.678 8.89-62.7 39.57-71.525l.044-.013c30.017-8.432 61.34 8.312 71.006 37.952 2.215 2.081 17.393 14.62 27.78 23.05a4.448 4.448 0 1 1-5.603 6.901c-28.588-23.2-29.54-24.81-30.002-25.576a4.44 4.44 0 0 1-.436-.978c-7.889-25.469-34.633-40.014-60.299-32.795-25.962 7.46-40.96 34.552-33.5 60.512l.002.01c7.576 26.33-5.62 40.638-19.225 44.888a4.374 4.374 0 0 1-1.352.205z"/></g><g><path fill="#e54b4e" d="M22.837 186.882a4.445 4.445 0 0 1-1.325-8.688c18.426-5.762 25.13-15.223 16.148-56.111-5.471-21.117 6.626-42.805 27.469-49.245 21.23-6.043 43.355 6.199 49.513 27.397 1.236 4.295 6.883 12.574 39.882 38.7a4.445 4.445 0 1 1-5.513 6.97c-36.46-28.828-41.181-37.16-42.915-43.207-4.765-16.514-21.993-26.06-38.522-21.341-16.324 5.18-25.677 22.294-21.225 38.833 9.149 41.687 3.556 58.467-22.232 66.505a4.335 4.335 0 0 1-1.28.187z"/></g><g><path fill="#e54b4e" d="M133.992 177.99a4.442 4.442 0 0 1-3.148-1.299 118.965 118.965 0 0 0-9.337-7.478c-15.926-12.084-42.586-32.306-49.593-56.689a4.446 4.446 0 1 1 8.503-2.603c.014.05.03.098.043.148 6.223 21.537 31.372 40.64 46.418 52.056a117.877 117.877 0 0 1 10.253 8.28 4.446 4.446 0 0 1-3.139 7.585z"/></g><g><path fill="#e54b4e" d="M67.299 213.56h-.284a4.446 4.446 0 0 1-4.162-4.713c.32-5.15 2.668-30.848 17.785-30.848a29.076 29.076 0 0 1 22.23 15.073 38.163 38.163 0 0 0 3.184 4.019 4.446 4.446 0 0 1-6.287 6.287 46.45 46.45 0 0 1-4.064-5.024c-3.788-5.122-8.465-11.471-15.064-11.471-4.82 0-8.332 13.339-8.892 22.507a4.445 4.445 0 0 1-4.446 4.17z"/></g><g><path fill="#e54b4e" d="M40.622 204.667a4.445 4.445 0 0 1-1.369-8.679c11.24-3.654 18.674-26.988 14.921-38.877a4.445 4.445 0 1 1 8.465-2.668c4.722 14.771-3.557 44.462-20.648 50.046a4.43 4.43 0 0 1-1.369.178z"/></g><g><path fill="#e54b4e" d="M5.053 115.743a4.445 4.445 0 0 1-4.446-4.446c.049-41.724 33.86-75.536 75.585-75.585 41.029 0 55.71 23.698 66.425 41.003 5.06 8.154 9.426 15.206 14.984 17.01a4.45 4.45 0 0 1 2.916 5.573 4.448 4.448 0 0 1-5.663 2.884c-8.661-2.809-13.82-11.142-19.795-20.79-10.155-16.388-22.791-36.788-58.867-36.788-36.818.04-66.655 29.876-66.694 66.694a4.445 4.445 0 0 1-4.445 4.445z"/></g><g><path fill="#e54b4e" d="M9.498 146.866a4.44 4.44 0 0 1-3.983-2.454 45.337 45.337 0 0 1-4.909-15.33 4.446 4.446 0 0 1 8.893 0 39.501 39.501 0 0 0 3.975 11.346 4.448 4.448 0 0 1-3.976 6.438z"/></g><g><path fill="#e54b4e" d="M138.439 53.496c-1.557.001-3-.812-3.807-2.143-4.375-7.22-28.704-24.534-62.886-24.534-35.57 0-54.581 18.167-58.45 24.534a4.445 4.445 0 0 1-6.05 1.712 4.443 4.443 0 0 1-1.543-6.327c4.863-8.012 26.215-28.81 66.044-28.81 37.454 0 64.389 18.761 70.489 28.82a4.446 4.446 0 0 1-3.797 6.748z"/></g><g><path fill="#e54b4e" d="M120.653 17.927a4.461 4.461 0 0 1-1.449-.24c-1.78-.614-3.504-1.253-5.202-1.876a100.89 100.89 0 0 0-42.257-6.776c-21.342 0-26.153 2.463-32.795 5.87-1.636.844-3.37 1.724-5.398 2.667a4.454 4.454 0 0 1-3.6-8.146c1.875-.845 3.467-1.663 4.98-2.437C42.346 3.166 48.242.143 71.745.143a109.585 109.585 0 0 1 45.35 7.327c1.636.604 3.273 1.219 4.997 1.778a4.446 4.446 0 0 1-1.44 8.679z"/></g><g><path fill="#e54b4e" d="M156.223 80.174a4.445 4.445 0 0 1-4.233-3.095 105.485 105.485 0 0 0-8.448-16.806 4.45 4.45 0 0 1 1.458-6.12 4.45 4.45 0 0 1 6.119 1.46 112.319 112.319 0 0 1 9.336 18.763 4.445 4.445 0 0 1-4.232 5.798z"/></g></g></svg>