<svg xmlns="http://www.w3.org/2000/svg" width="1365" height="255" viewBox="0 0 1365 255"><g><g><path fill="#e54b4e" d="M-.014 107.789V28.224h3.917v13.465c2.203-4.487 5.65-8.08 10.343-10.772 4.692-2.693 9.567-4.04 14.628-4.04 8.079 0 14.953 2.837 20.626 8.508 5.67 5.673 8.507 12.467 8.507 20.38 0 7.917-2.836 14.71-8.507 20.382-5.673 5.673-12.547 8.508-20.626 8.508-4.896 0-9.67-1.328-14.322-3.98-4.651-2.65-8.201-6.221-10.65-10.71v37.824zm11.2-34.09c5.019 5.019 10.974 7.528 17.87 7.528 6.896 0 12.793-2.51 17.689-7.528 4.897-5.02 7.345-10.975 7.345-17.872 0-6.895-2.47-12.872-7.406-17.932-4.938-5.06-10.833-7.59-17.688-7.59-6.855 0-12.791 2.552-17.81 7.65-5.02 5.102-7.528 11.079-7.528 17.933 0 6.855 2.509 12.792 7.528 17.81z"/></g><g><path fill="#e54b4e" d="M125.82 28.224v55.084h-3.917v-13.71c-2.286 4.65-5.714 8.324-10.283 11.017-4.57 2.693-9.468 4.04-14.689 4.04-7.999 0-14.853-2.835-20.565-8.508-5.713-5.671-8.568-12.465-8.568-20.381 0-7.914 2.855-14.708 8.568-20.381 5.712-5.671 12.566-8.508 20.565-8.508 5.221 0 10.221 1.389 14.995 4.162 4.774 2.776 8.098 6.448 9.977 11.017V28.224zM79.242 73.699c5.02 5.019 10.975 7.528 17.872 7.528 6.895 0 12.791-2.51 17.688-7.528 4.896-5.02 7.344-10.975 7.344-17.872 0-6.895-2.469-12.872-7.406-17.932-4.938-5.06-10.833-7.59-17.688-7.59-6.855 0-12.79 2.552-17.81 7.65-5.019 5.102-7.528 11.079-7.528 17.933 0 6.855 2.51 12.792 7.528 17.81z"/></g><g><path fill="#e54b4e" d="M153.85 27.244c3.508 0 6.426 1.123 8.752 3.366 2.326 2.246 3.49 4.695 3.49 7.345 0 2.653-.552 4.835-1.654 6.55-1.102 1.713-2.387 2.937-3.856 3.672 3.672.978 6.813 3.203 9.426 6.671 2.611 3.47 3.917 7.488 3.917 12.057 0 4.571-1.898 8.712-5.692 12.424-3.795 3.715-8.305 5.57-13.527 5.57-6.937 0-12.282-2.773-16.035-8.324V69.23c1.224 3.673 3.223 6.653 5.998 8.936 2.773 2.286 6.161 3.428 10.16 3.428 3.998 0 7.528-1.549 10.588-4.652 3.06-3.1 4.591-6.752 4.591-10.955 0-4.202-1.53-7.875-4.59-11.017-3.06-3.14-6.63-4.712-10.712-4.712h-2.937v-3.306h2.448c2.203 0 4.08-.814 5.631-2.448 1.55-1.63 2.326-3.55 2.326-5.753 0-2.203-.777-4.12-2.326-5.753-1.55-1.632-3.428-2.448-5.63-2.448-4.572 0-7.755 2.897-9.549 8.69v-7.71c2.611-2.857 5.671-4.286 9.181-4.286z"/></g><g><path fill="#e54b4e" d="M188 107.789V28.224h3.918v13.465c2.203-4.487 5.65-8.08 10.343-10.772 4.692-2.693 9.567-4.04 14.628-4.04 8.079 0 14.953 2.837 20.626 8.508 5.67 5.673 8.507 12.467 8.507 20.38 0 7.917-2.836 14.71-8.507 20.382-5.673 5.673-12.547 8.508-20.626 8.508-4.896 0-9.67-1.328-14.322-3.98-4.651-2.65-8.201-6.221-10.65-10.71v37.824zm11.2-34.09c5.02 5.019 10.975 7.528 17.872 7.528 6.895 0 12.792-2.51 17.688-7.528 4.897-5.02 7.345-10.975 7.345-17.872 0-6.895-2.47-12.872-7.406-17.932-4.938-5.06-10.833-7.59-17.688-7.59-6.855 0-12.791 2.552-17.81 7.65-5.02 5.102-7.528 11.079-7.528 17.933 0 6.855 2.509 12.792 7.528 17.81z"/></g><g><path fill="#e54b4e" d="M313.834 28.224v55.084h-3.916v-13.71c-2.286 4.65-5.714 8.324-10.283 11.017-4.57 2.693-9.468 4.04-14.689 4.04-7.999 0-14.853-2.835-20.565-8.508-5.713-5.671-8.568-12.465-8.568-20.381 0-7.914 2.855-14.708 8.568-20.381 5.712-5.671 12.566-8.508 20.565-8.508 5.221 0 10.221 1.389 14.995 4.162 4.774 2.776 8.098 6.448 9.977 11.017V28.224zM267.26 73.699c5.019 5.019 10.975 7.528 17.872 7.528 6.895 0 12.79-2.51 17.688-7.528 4.896-5.02 7.344-10.975 7.344-17.872 0-6.895-2.47-12.872-7.406-17.932-4.938-5.06-10.833-7.59-17.688-7.59-6.855 0-12.791 2.552-17.81 7.65-5.02 5.102-7.528 11.079-7.528 17.933 0 6.855 2.509 12.792 7.528 17.81z"/></g><g><path fill="#e54b4e" d="M379.506 35.63c5.67 5.673 8.508 12.405 8.508 20.197 0 7.794-2.755 14.588-8.263 20.38-5.508 5.796-12.18 8.693-20.014 8.693H357.9c-7.59 0-14.18-2.98-19.77-8.937-5.59-5.956-8.384-12.81-8.384-20.564v-9.303c0-9.06 1.876-16.443 5.63-22.156 1.55-2.367 3.774-4.59 6.672-6.671 2.896-2.081 5.488-3.652 7.773-4.713 2.284-1.06 5.344-2.366 9.18-3.917l22.279-8.814v3.55l-22.278 8.936c-16.975 6.774-25.461 16.567-25.461 29.378v1.1c2.366-4.894 5.875-8.73 10.527-11.505 4.65-2.773 9.588-4.162 14.81-4.162 8.08 0 14.954 2.837 20.627 8.508zm-38.314 38.314c5.019 5.018 10.975 7.528 17.872 7.528 6.895 0 12.79-2.51 17.688-7.528 4.896-5.02 7.345-10.975 7.345-17.873 0-6.894-2.47-12.871-7.406-17.932-4.94-5.06-10.834-7.59-17.688-7.59-6.855 0-12.792 2.552-17.811 7.65-5.02 5.102-7.528 11.08-7.528 17.934 0 6.855 2.509 12.792 7.528 17.81z"/></g><g><path fill="#e54b4e" d="M406.374 35.385c5.711-5.67 12.587-8.508 20.626-8.508 8.037 0 14.891 2.837 20.564 8.508 5.671 5.672 8.508 12.405 8.508 20.197 0 7.794-2.775 14.588-8.324 20.381-5.55 5.796-12.283 8.691-20.197 8.691h-1.225c-7.67 0-14.342-2.917-20.013-8.752-5.673-5.834-8.508-12.628-8.508-20.382 0-7.752 2.856-14.463 8.57-20.135zm38.375 2.51c-4.939-5.06-10.833-7.59-17.689-7.59-6.854 0-12.79 2.551-17.81 7.65-5.018 5.101-7.528 11.078-7.528 17.933s2.51 12.792 7.528 17.81c5.02 5.02 10.975 7.528 17.873 7.528 6.894 0 12.791-2.508 17.687-7.528 4.897-5.018 7.345-10.975 7.345-17.87 0-6.897-2.47-12.873-7.406-17.934z"/></g><g><path fill="#e54b4e" d="M510.055 28.347v3.427H489v51.534h-3.917V31.774H464.03v-3.427z"/></g><g><path fill="#e54b4e" d="M576.03 28.224v55.084h-3.915v-13.71c-2.287 4.65-5.713 8.324-10.283 11.017-4.571 2.693-9.468 4.04-14.69 4.04-7.997 0-14.853-2.835-20.564-8.508-5.713-5.671-8.568-12.465-8.568-20.381 0-7.914 2.855-14.708 8.568-20.381 5.71-5.671 12.567-8.508 20.565-8.508 5.22 0 10.222 1.389 14.995 4.162 4.774 2.776 8.099 6.448 9.977 11.017V28.224zm-46.575 45.475c5.019 5.019 10.975 7.528 17.87 7.528 6.897 0 12.793-2.51 17.69-7.528 4.896-5.02 7.345-10.975 7.345-17.872 0-6.895-2.47-12.872-7.407-17.932-4.938-5.06-10.833-7.59-17.687-7.59-6.856 0-12.792 2.552-17.811 7.65-5.018 5.102-7.528 11.079-7.528 17.933 0 6.855 2.51 12.792 7.528 17.81z"/></g><g><path fill="#e54b4e" d="M618.505 84.777c-7.754 0-14.424-2.896-20.013-8.691-5.59-5.794-8.385-12.588-8.385-20.382 0-7.792 2.855-14.524 8.568-20.197C604.386 29.836 611.446 27 619.852 27c8.404 0 15.626 3.347 21.666 10.037l-38.435 37.947c5.303 4.244 10.404 6.365 15.3 6.365 4.897 0 9.283-1.12 13.16-3.366 3.874-2.243 7.078-5.243 9.608-8.997v6.243c-5.795 6.365-12.895 9.548-21.299 9.548zm-16.952-46.822c-5.018 5.019-7.528 10.793-7.528 17.322s2.16 12.24 6.487 17.136l35.62-35.376c-5.06-4.406-10.833-6.61-17.32-6.61-6.488 0-12.24 2.51-17.26 7.528z"/></g><g><path fill="#2a292e" d="M707.37 28.22L683 76.72v6.63l24.13-47.9v47.86h3.91V28.22z"/></g><g><path fill="#2a292e" d="M772.248 28.224h3.917V47.32l21.789-19.096h5.019l-25.216 22.034 31.581 33.05h-5.264l-27.909-29.011v29.01h-3.917z"/></g><g><path fill="#2a292e" d="M821.578 107.789V28.224h3.917v13.465c2.203-4.487 5.651-8.08 10.344-10.772 4.691-2.693 9.566-4.04 14.628-4.04 8.079 0 14.952 2.837 20.626 8.508 5.671 5.673 8.507 12.467 8.507 20.38 0 7.917-2.836 14.71-8.507 20.382-5.674 5.673-12.547 8.508-20.626 8.508-4.897 0-9.671-1.328-14.322-3.98-4.652-2.65-8.202-6.221-10.65-10.71v37.824zm11.2-34.09c5.019 5.019 10.975 7.528 17.872 7.528 6.895 0 12.791-2.51 17.688-7.528 4.896-5.02 7.345-10.975 7.345-17.872 0-6.895-2.469-12.872-7.406-17.932-4.938-5.06-10.834-7.59-17.688-7.59-6.855 0-12.792 2.552-17.811 7.65-5.018 5.102-7.528 11.079-7.528 17.933 0 6.855 2.51 12.792 7.528 17.81z"/></g><g><path fill="#2a292e" d="M917.79 84.777c-7.754 0-14.424-2.896-20.013-8.691-5.591-5.794-8.385-12.588-8.385-20.382 0-7.792 2.855-14.524 8.568-20.197C903.67 29.836 910.73 27 919.137 27c8.404 0 15.626 3.347 21.666 10.037l-38.435 37.947c5.303 4.244 10.404 6.365 15.3 6.365 4.897 0 9.283-1.12 13.159-3.366 3.875-2.243 7.079-5.243 9.609-8.997v6.243c-5.795 6.365-12.895 9.548-21.3 9.548zm-16.953-46.822c-5.018 5.019-7.528 10.793-7.528 17.322s2.16 12.24 6.487 17.136l35.62-35.376c-5.06-4.406-10.832-6.61-17.32-6.61-6.487 0-12.24 2.51-17.26 7.528z"/></g><g><path fill="#2a292e" d="M1007.391 28.224v55.084h-3.916v-13.71c-2.287 4.65-5.713 8.324-10.283 11.017-4.57 2.693-9.468 4.04-14.689 4.04-7.998 0-14.854-2.835-20.565-8.508-5.713-5.671-8.568-12.465-8.568-20.381 0-7.914 2.855-14.708 8.568-20.381 5.711-5.671 12.567-8.508 20.565-8.508 5.221 0 10.222 1.389 14.995 4.162 4.774 2.776 8.1 6.448 9.977 11.017V28.224zm-46.576 45.475c5.02 5.019 10.975 7.528 17.871 7.528 6.896 0 12.792-2.51 17.69-7.528 4.895-5.02 7.344-10.975 7.344-17.872 0-6.895-2.47-12.872-7.407-17.932-4.938-5.06-10.833-7.59-17.687-7.59-6.856 0-12.792 2.552-17.81 7.65-5.019 5.102-7.529 11.079-7.529 17.933 0 6.855 2.51 12.792 7.528 17.81z"/></g><g><path fill="#2a292e" d="M1065.657 28.347v3.427h-21.055v51.534h-3.917V31.774h-21.053v-3.427z"/></g><g><path fill="#2a292e" d="M1124.78 28.347v54.96h-3.795v-48.84l-39.66 48.84h-3.428v-54.96h3.795v48.84l39.538-48.84z"/></g><g><path fill="#2a292e" d="M1143.14 28.224h10.282c3.183 0 5.814 1.083 7.895 3.244 2.081 2.163 3.121 5.04 3.121 8.63 0 3.592-1.51 6.365-4.529 8.323 3.264.979 6.018 3.102 8.263 6.365 2.244 3.266 3.366 7.06 3.366 11.385 0 4.326-1.756 8.262-5.264 11.811-3.509 3.55-7.794 5.326-12.852 5.326h-10.282zm3.917 3.305v15.668h6.732c1.959 0 3.672-.754 5.142-2.264 1.468-1.509 2.203-3.305 2.203-5.386s-.777-3.937-2.326-5.57c-1.551-1.631-3.305-2.448-5.264-2.448zm0 18.973v29.501h6.61c3.917 0 7.283-1.448 10.099-4.346 2.815-2.895 4.222-6.384 4.222-10.466 0-4.08-1.407-7.547-4.222-10.405-2.816-2.855-6.182-4.284-10.099-4.284z"/></g><g><path fill="#2a292e" d="M1226.865 28.224h3.917v55.084h-3.917V62.62h-37.335v20.688h-3.917V28.224h3.917v30.97h37.335z"/></g><g><path fill="#2a292e" d="M1253.427 35.385c5.711-5.67 12.587-8.508 20.626-8.508 8.037 0 14.891 2.837 20.564 8.508 5.671 5.672 8.508 12.405 8.508 20.197 0 7.794-2.775 14.588-8.324 20.381-5.551 5.796-12.283 8.691-20.197 8.691h-1.224c-7.672 0-14.344-2.917-20.015-8.752-5.673-5.834-8.507-12.628-8.507-20.382 0-7.752 2.856-14.463 8.569-20.135zm38.375 2.51c-4.939-5.06-10.833-7.59-17.688-7.59-6.855 0-12.792 2.551-17.81 7.65-5.019 5.101-7.529 11.078-7.529 17.933s2.51 12.792 7.529 17.81c5.018 5.02 10.974 7.528 17.871 7.528 6.895 0 12.792-2.508 17.688-7.528 4.897-5.018 7.345-10.975 7.345-17.87 0-6.897-2.47-12.873-7.406-17.934z"/></g><g><path fill="#2a292e" d="M1341.316 84.777c-7.754 0-14.424-2.896-20.013-8.691-5.591-5.794-8.385-12.588-8.385-20.382 0-7.792 2.855-14.524 8.568-20.197 5.711-5.671 12.771-8.507 21.177-8.507 8.404 0 15.626 3.347 21.666 10.037l-38.435 37.947c5.303 4.244 10.404 6.365 15.3 6.365 4.897 0 9.283-1.12 13.159-3.366 3.875-2.243 7.079-5.243 9.609-8.997v6.243c-5.795 6.365-12.895 9.548-21.299 9.548zm-16.953-46.822c-5.018 5.019-7.528 10.793-7.528 17.322s2.161 12.24 6.487 17.136l35.621-35.376c-5.06-4.406-10.833-6.61-17.32-6.61-6.488 0-12.241 2.51-17.26 7.528z"/></g><g><path fill="#e54b4e" d="M-.015 175.113h44.312v55.084H40.38v-51.656H3.902v51.656H-.015z"/></g><g><path fill="#e54b4e" d="M62.658 254.678v-79.565h3.917v13.465c2.203-4.487 5.65-8.079 10.343-10.772 4.692-2.693 9.567-4.04 14.628-4.04 8.08 0 14.953 2.837 20.626 8.508 5.671 5.673 8.507 12.467 8.507 20.381 0 7.916-2.836 14.71-8.507 20.381-5.673 5.673-12.547 8.508-20.626 8.508-4.896 0-9.67-1.328-14.322-3.979-4.65-2.65-8.2-6.222-10.649-10.71v37.823zm11.2-34.09c5.02 5.02 10.974 7.528 17.871 7.528 6.895 0 12.792-2.509 17.688-7.528 4.897-5.019 7.345-10.975 7.345-17.872 0-6.895-2.469-12.872-7.406-17.932-4.938-5.06-10.833-7.59-17.688-7.59-6.855 0-12.79 2.552-17.81 7.65-5.019 5.102-7.528 11.08-7.528 17.933 0 6.855 2.51 12.792 7.528 17.811z"/></g><g><path fill="#e54b4e" d="M139.039 182.275c5.712-5.671 12.587-8.508 20.626-8.508 8.037 0 14.892 2.837 20.565 8.508 5.67 5.672 8.507 12.405 8.507 20.197 0 7.794-2.775 14.588-8.324 20.38-5.55 5.797-12.282 8.692-20.197 8.692h-1.224c-7.672 0-14.343-2.917-20.014-8.752-5.673-5.834-8.507-12.628-8.507-20.382 0-7.752 2.855-14.463 8.568-20.135zm38.375 2.509c-4.938-5.06-10.833-7.59-17.688-7.59-6.855 0-12.791 2.552-17.81 7.65-5.02 5.102-7.528 11.079-7.528 17.934s2.509 12.792 7.528 17.81c5.019 5.02 10.975 7.528 17.872 7.528 6.895 0 12.79-2.508 17.688-7.528 4.896-5.018 7.344-10.975 7.344-17.871 0-6.896-2.47-12.872-7.406-17.933z"/></g><g><path fill="#e54b4e" d="M202.814 230.197v-55.084h4.407l24.114 48.72 24.482-48.72h3.672v55.084h-3.917v-47.86l-24.849 49.33-24.482-49.822v48.352z"/></g><g><path fill="#e54b4e" d="M282.133 182.275c5.712-5.671 12.587-8.508 20.626-8.508 8.037 0 14.892 2.837 20.565 8.508 5.671 5.672 8.507 12.405 8.507 20.197 0 7.794-2.775 14.588-8.324 20.38-5.55 5.797-12.282 8.692-20.197 8.692h-1.224c-7.672 0-14.343-2.917-20.014-8.752-5.673-5.834-8.507-12.628-8.507-20.382 0-7.752 2.855-14.463 8.568-20.135zm38.375 2.509c-4.938-5.06-10.833-7.59-17.688-7.59-6.855 0-12.79 2.552-17.81 7.65-5.019 5.102-7.528 11.079-7.528 17.934s2.51 12.792 7.528 17.81c5.02 5.02 10.975 7.528 17.872 7.528 6.895 0 12.791-2.508 17.688-7.528 4.896-5.018 7.344-10.975 7.344-17.871 0-6.896-2.469-12.872-7.406-17.933z"/></g><g><path fill="#e54b4e" d="M683 76.72v6.63l-.72 1.43-24.48-49.82v48.35h-3.43V28.22h4.41l24.11 48.72z"/></g></g></svg>