<svg xmlns="http://www.w3.org/2000/svg" width="121" height="120" viewBox="0 0 121 120"><g><g><path fill="#2a292e" d="M120.5 60c0 33.137-26.863 60-60 60S.5 93.137.5 60s26.863-60 60-60 60 26.863 60 60z"/></g><g><path fill="#efeae7" d="M90.194 29.76H30.806c-3.532 0-6.422-2.89-6.422-6.422 0-3.532 2.89-6.422 6.422-6.422h59.388c3.531 0 6.421 2.89 6.421 6.422 0 3.532-2.89 6.422-6.42 6.422z"/></g><g><path fill="#efeae7" d="M90.194 53.806H48.112c-3.532 0-6.42-2.89-6.42-6.421 0-3.532 2.888-6.422 6.42-6.422h42.082c3.531 0 6.421 2.89 6.421 6.422 0 3.53-2.89 6.42-6.42 6.42z"/></g><g><path fill="#efeae7" d="M57.357 80.722V64.19c0-3.532 2.89-6.422 6.422-6.422 3.532 0 6.421 2.89 6.421 6.422v16.53c0 3.533-2.889 6.423-6.42 6.423-3.533 0-6.423-2.89-6.423-6.422z"/></g><g><path fill="#efeae7" d="M41.69 64.144v-16.76c0-3.532 2.89-6.422 6.422-6.422 3.532 0 6.422 2.89 6.422 6.422v16.76c0 3.532-2.89 6.422-6.422 6.422-3.531 0-6.421-2.89-6.421-6.422z"/></g><g><path fill="#efeae7" d="M63.78 70.611H48.156c-3.53 0-6.42-2.89-6.42-6.42 0-3.533 2.89-6.423 6.42-6.423H63.78c3.532 0 6.421 2.89 6.421 6.422 0 3.531-2.889 6.421-6.42 6.421z"/></g><g><path fill="#efeae7" d="M63.78 87.19H48.156c-3.53 0-6.42-2.89-6.42-6.423 0-3.531 2.89-6.421 6.42-6.421H63.78c3.532 0 6.421 2.89 6.421 6.421 0 3.533-2.889 6.423-6.42 6.423z"/></g><g><path fill="#efeae7" d="M90.194 103.084H30.806c-3.532 0-6.422-2.89-6.422-6.422 0-3.532 2.89-6.422 6.422-6.422h59.388c3.531 0 6.421 2.89 6.421 6.422 0 3.532-2.89 6.422-6.42 6.422z"/></g><g><path fill="#efeae7" d="M24.384 96.662V23.338c0-3.532 2.89-6.422 6.422-6.422 3.532 0 6.421 2.89 6.421 6.422v73.324c0 3.532-2.889 6.422-6.42 6.422-3.533 0-6.423-2.89-6.423-6.422z"/></g><g><path fill="#efeae7" d="M83.772 96.662V47.385c0-3.533 2.89-6.422 6.422-6.422 3.531 0 6.421 2.89 6.421 6.422v49.277c0 3.532-2.89 6.422-6.42 6.422-3.533 0-6.423-2.89-6.423-6.422z"/></g></g></svg>