<svg xmlns="http://www.w3.org/2000/svg" width="73" height="73" viewBox="0 0 73 73"><g><g><path fill="#e54b4e" d="M49.67.736c12.467 0 22.577 10.11 22.577 22.577v27.093c0 12.468-10.11 22.577-22.577 22.577H22.577C10.11 72.983 0 62.874 0 50.406V23.313C0 10.846 10.11.736 22.577.736zm15.804 22.577c0-8.715-7.089-15.803-15.804-15.803H22.577c-8.715 0-15.804 7.088-15.804 15.803v27.093c0 8.715 7.09 15.805 15.804 15.805H49.67c8.715 0 15.804-7.09 15.804-15.805z"/></g><g><path fill="#e54b4e" d="M36.123 18.798c9.976 0 18.063 8.087 18.063 18.062 0 9.975-8.087 18.061-18.062 18.061-9.975 0-18.062-8.086-18.062-18.06 0-9.976 8.087-18.063 18.062-18.063zm0 29.35c6.223 0 11.29-5.066 11.29-11.288 0-6.227-5.067-11.289-11.29-11.289-6.221 0-11.288 5.062-11.288 11.29 0 6.221 5.066 11.287 11.288 11.287z"/></g><g><path fill="#e54b4e" d="M55.54 15.037a2.407 2.407 0 1 1 0 4.813 2.407 2.407 0 0 1 0-4.813z"/></g></g></svg>