<svg xmlns="http://www.w3.org/2000/svg" width="621" height="741" viewBox="0 0 621 741"><g><g><path fill="none" stroke="#e54b4e" stroke-miterlimit="20" stroke-width="2" d="M565.001 111.413v0H56.573c-30.237 0-54.976-24.74-54.976-54.976v0C1.597 26.2 26.336 1.46 56.573 1.46h508.428c30.236 0 54.976 24.74 54.976 54.976v0c0 30.237-24.74 54.976-54.976 54.976z"/></g><g><path fill="none" stroke="#e54b4e" stroke-miterlimit="20" stroke-width="2" d="M565.001 317.279v0H204.734c-30.236 0-54.975-24.74-54.975-54.976s24.739-54.975 54.975-54.975h360.267c30.236 0 54.976 24.739 54.976 54.975 0 30.237-24.74 54.976-54.976 54.976z"/></g><g><path fill="none" stroke="#e54b4e" stroke-miterlimit="20" stroke-width="2" d="M283.884 547.709v0-141.533c0-30.237 24.739-54.976 54.976-54.976v0c30.236 0 54.976 24.739 54.976 54.976v141.533c0 30.236-24.74 54.976-54.976 54.976v0c-30.237 0-54.976-24.74-54.976-54.976z"/></g><g><path fill="none" stroke="#e54b4e" stroke-miterlimit="20" stroke-width="2" d="M149.759 405.786v0-143.483c0-30.237 24.739-54.975 54.976-54.975 30.236 0 54.975 24.738 54.975 54.975v143.483c0 30.236-24.74 54.976-54.975 54.976-30.237 0-54.976-24.74-54.976-54.976z"/></g><g><path fill="none" stroke="#e54b4e" stroke-miterlimit="20" stroke-width="2" d="M338.86 461.151v0H205.125c-30.237 0-54.976-24.739-54.976-54.976 0-30.236 24.739-54.975 54.976-54.975H338.86c30.236 0 54.976 24.74 54.976 54.975 0 30.237-24.74 54.976-54.976 54.976z"/></g><g><path fill="none" stroke="#e54b4e" stroke-miterlimit="20" stroke-width="2" d="M338.86 603.074v0H205.125c-30.237 0-54.976-24.738-54.976-54.976 0-30.236 24.739-54.975 54.976-54.975H338.86c30.236 0 54.976 24.74 54.976 54.975 0 30.238-24.74 54.976-54.976 54.976z"/></g><g><path fill="none" stroke="#e54b4e" stroke-miterlimit="20" stroke-width="2" d="M565.001 739.15v0H56.573c-30.237 0-54.976-24.74-54.976-54.977s24.739-54.975 54.976-54.975h508.428c30.236 0 54.976 24.738 54.976 54.975 0 30.237-24.74 54.976-54.976 54.976z"/></g><g><path fill="none" stroke="#e54b4e" stroke-miterlimit="20" stroke-width="2" d="M1.597 684.174v0V56.437C1.597 26.2 26.337 1.46 56.573 1.46v0c30.236 0 54.976 24.739 54.976 54.976v627.737c0 30.236-24.74 54.976-54.976 54.976v0c-30.237 0-54.976-24.74-54.976-54.976z"/></g><g><path fill="none" stroke="#e54b4e" stroke-miterlimit="20" stroke-width="2" d="M510.025 684.174v0-421.871c0-30.236 24.739-54.975 54.976-54.975v0c30.236 0 54.976 24.739 54.976 54.975v421.87c0 30.237-24.74 54.977-54.976 54.977v0c-30.237 0-54.976-24.74-54.976-54.976z"/></g></g></svg>