<svg xmlns="http://www.w3.org/2000/svg" viewBox="0 0 1789.96 330.98"><defs><style>.cls-1{opacity:0.37;}.cls-2{fill:none;stroke:#e54b4e;stroke-miterlimit:10;stroke-width:2px;}</style></defs><g id="Слой_2" data-name="Слой 2"><g id="Layer_1" data-name="Layer 1"><g class="cls-1"><rect class="cls-2" x="904.73" y="280.21" width="149.88" height="49.15" rx="24.57"/><rect class="cls-2" x="904.73" y="1.09" width="149.88" height="48.74" rx="24.37"/><rect class="cls-2" x="866.21" y="140.57" width="327.87" height="48.92" rx="24.46" transform="translate(865.12 1195.18) rotate(-90)"/><rect class="cls-2" x="765.05" y="140.77" width="328.26" height="48.92" rx="24.46" transform="translate(1094.41 -763.96) rotate(90)"/><rect class="cls-2" x="1354.56" y="280.21" width="149.88" height="49.15" rx="24.57"/><rect class="cls-2" x="1354.56" y="1.09" width="149.88" height="48.74" rx="24.37"/><rect class="cls-2" x="1354.56" y="140.1" width="149.88" height="48.74" rx="24.37"/><rect class="cls-2" x="1214.89" y="140.77" width="328.26" height="48.92" rx="24.46" transform="translate(1544.25 -1213.79) rotate(90)"/><rect class="cls-2" x="42.93" y="98.98" width="269.23" height="48.92" rx="24.46" transform="translate(-13.36 225) rotate(-62.82)"/><rect class="cls-2" x="-58.86" y="98.98" width="269.23" height="48.92" rx="24.46" transform="translate(0.55 247.21) rotate(-117.18)"/><rect class="cls-2" x="64.17" y="141.23" width="327.35" height="48.92" rx="24.46" transform="translate(393.52 -62.15) rotate(90)"/><rect class="cls-2" x="-138.21" y="141.23" width="327.35" height="48.92" rx="24.46" transform="translate(191.15 140.23) rotate(90)"/><rect class="cls-2" x="1012.54" y="141.23" width="384.08" height="48.92" rx="24.46" transform="translate(402.68 1079.7) rotate(-56.57)"/><rect class="cls-2" x="1012.54" y="141.23" width="384.08" height="48.92" rx="24.46" transform="translate(1729.94 1262.26) rotate(-123.43)"/><rect class="cls-2" x="1040.91" y="141.23" width="327.35" height="48.92" rx="24.46" transform="translate(1370.27 -1038.9) rotate(90)"/><rect class="cls-2" x="662.14" y="98.98" width="269.23" height="48.92" rx="24.46" transform="translate(323.03 775.85) rotate(-62.82)"/><rect class="cls-2" x="560.35" y="98.98" width="269.23" height="48.92" rx="24.46" transform="translate(902.58 798.06) rotate(-117.18)"/><rect class="cls-2" x="683.38" y="141.23" width="327.35" height="48.92" rx="24.46" transform="translate(1012.74 -681.37) rotate(90)"/><rect class="cls-2" x="481" y="141.23" width="327.35" height="48.92" rx="24.46" transform="translate(810.36 -478.99) rotate(90)"/><rect class="cls-2" x="1579.58" y="98.98" width="269.23" height="48.92" rx="24.46" transform="translate(821.44 1592.01) rotate(-62.82)"/><rect class="cls-2" x="1477.8" y="98.98" width="269.23" height="48.92" rx="24.46" transform="translate(2239.07 1614.22) rotate(-117.18)"/><rect class="cls-2" x="1600.82" y="141.23" width="327.35" height="48.92" rx="24.46" transform="translate(1930.18 -1598.81) rotate(90)"/><rect class="cls-2" x="1398.44" y="141.23" width="327.35" height="48.92" rx="24.46" transform="translate(1727.8 -1396.43) rotate(90)"/><rect class="cls-2" x="145.5" y="140.84" width="327.35" height="48.92" rx="24.46" transform="translate(474.47 -143.88) rotate(90)"/><rect class="cls-2" x="317.36" y="140.84" width="327.35" height="48.92" rx="24.46" transform="translate(646.33 -315.74) rotate(90)"/><rect class="cls-2" x="328.21" y="222.64" width="163.74" height="48.92" rx="24.46" transform="translate(657.17 -162.98) rotate(90)"/><rect class="cls-2" x="284.71" y="280.05" width="149.82" height="48.92" rx="24.46" transform="translate(719.25 609.02) rotate(180)"/><rect class="cls-2" x="284.65" y="164.1" width="149.88" height="48.92" rx="24.46" transform="translate(719.19 377.12) rotate(-180)"/></g></g></g></svg>