<svg xmlns="http://www.w3.org/2000/svg" viewBox="0 0 524.08 799.28"><defs><style>.cls-1{fill:none;stroke:#2a292e;stroke-miterlimit:10;stroke-width:3px;}</style></defs><g id="Слой_2" data-name="Слой 2"><g id="Layer_1" data-name="Layer 1"><line class="cls-1" x1="501.64" y1="1.07" x2="523.03" y2="21.96"/><line class="cls-1" x1="1.05" y1="1.07" x2="22.44" y2="21.96"/><line class="cls-1" x1="22.44" y1="1.07" x2="1.05" y2="21.96"/><line class="cls-1" x1="419.64" y1="1.07" x2="441.03" y2="21.96"/><line class="cls-1" x1="441.03" y1="1.07" x2="419.64" y2="21.96"/><line class="cls-1" x1="377.78" y1="1.07" x2="399.17" y2="21.96"/><line class="cls-1" x1="399.17" y1="1.07" x2="377.78" y2="21.96"/><line class="cls-1" x1="335.92" y1="1.07" x2="357.31" y2="21.96"/><line class="cls-1" x1="357.31" y1="1.07" x2="335.92" y2="21.96"/><line class="cls-1" x1="294.06" y1="1.07" x2="315.45" y2="21.96"/><line class="cls-1" x1="315.45" y1="1.07" x2="294.06" y2="21.96"/><line class="cls-1" x1="252.2" y1="1.07" x2="273.6" y2="21.96"/><line class="cls-1" x1="273.6" y1="1.07" x2="252.2" y2="21.96"/><line class="cls-1" x1="210.34" y1="1.07" x2="231.74" y2="21.96"/><line class="cls-1" x1="231.74" y1="1.07" x2="210.34" y2="21.96"/><line class="cls-1" x1="168.49" y1="1.07" x2="189.88" y2="21.96"/><line class="cls-1" x1="189.88" y1="1.07" x2="168.49" y2="21.96"/><line class="cls-1" x1="126.63" y1="1.07" x2="148.02" y2="21.96"/><line class="cls-1" x1="148.02" y1="1.07" x2="126.63" y2="21.96"/><line class="cls-1" x1="84.77" y1="1.07" x2="106.16" y2="21.96"/><line class="cls-1" x1="106.16" y1="1.07" x2="84.77" y2="21.96"/><line class="cls-1" x1="42.91" y1="1.07" x2="64.3" y2="21.96"/><line class="cls-1" x1="64.3" y1="1.07" x2="42.91" y2="21.96"/><line class="cls-1" x1="1.05" y1="53.9" x2="22.44" y2="74.78"/><line class="cls-1" x1="22.44" y1="53.9" x2="1.05" y2="74.78"/><line class="cls-1" x1="419.64" y1="53.9" x2="441.03" y2="74.78"/><line class="cls-1" x1="441.03" y1="53.9" x2="419.64" y2="74.78"/><line class="cls-1" x1="377.78" y1="53.9" x2="399.17" y2="74.78"/><line class="cls-1" x1="399.17" y1="53.9" x2="377.78" y2="74.78"/><line class="cls-1" x1="335.92" y1="53.9" x2="357.31" y2="74.78"/><line class="cls-1" x1="357.31" y1="53.9" x2="335.92" y2="74.78"/><line class="cls-1" x1="294.06" y1="53.9" x2="315.45" y2="74.78"/><line class="cls-1" x1="315.45" y1="53.9" x2="294.06" y2="74.78"/><line class="cls-1" x1="252.2" y1="53.9" x2="273.6" y2="74.78"/><line class="cls-1" x1="273.6" y1="53.9" x2="252.2" y2="74.78"/><line class="cls-1" x1="210.34" y1="53.9" x2="231.74" y2="74.78"/><line class="cls-1" x1="231.74" y1="53.9" x2="210.34" y2="74.78"/><line class="cls-1" x1="168.49" y1="53.9" x2="189.88" y2="74.78"/><line class="cls-1" x1="189.88" y1="53.9" x2="168.49" y2="74.78"/><line class="cls-1" x1="126.63" y1="53.9" x2="148.02" y2="74.78"/><line class="cls-1" x1="148.02" y1="53.9" x2="126.63" y2="74.78"/><line class="cls-1" x1="84.77" y1="53.9" x2="106.16" y2="74.78"/><line class="cls-1" x1="106.16" y1="53.9" x2="84.77" y2="74.78"/><line class="cls-1" x1="42.91" y1="53.9" x2="64.3" y2="74.78"/><line class="cls-1" x1="64.3" y1="53.9" x2="42.91" y2="74.78"/><line class="cls-1" x1="1.05" y1="106.72" x2="22.44" y2="127.61"/><line class="cls-1" x1="22.44" y1="106.72" x2="1.05" y2="127.61"/><line class="cls-1" x1="419.64" y1="106.72" x2="441.03" y2="127.61"/><line class="cls-1" x1="441.03" y1="106.72" x2="419.64" y2="127.61"/><line class="cls-1" x1="377.78" y1="106.72" x2="399.17" y2="127.61"/><line class="cls-1" x1="399.17" y1="106.72" x2="377.78" y2="127.61"/><line class="cls-1" x1="335.92" y1="106.72" x2="357.31" y2="127.61"/><line class="cls-1" x1="357.31" y1="106.72" x2="335.92" y2="127.61"/><line class="cls-1" x1="294.06" y1="106.72" x2="315.45" y2="127.61"/><line class="cls-1" x1="315.45" y1="106.72" x2="294.06" y2="127.61"/><line class="cls-1" x1="252.2" y1="106.72" x2="273.6" y2="127.61"/><line class="cls-1" x1="273.6" y1="106.72" x2="252.2" y2="127.61"/><line class="cls-1" x1="210.34" y1="106.72" x2="231.74" y2="127.61"/><line class="cls-1" x1="231.74" y1="106.72" x2="210.34" y2="127.61"/><line class="cls-1" x1="168.49" y1="106.72" x2="189.88" y2="127.61"/><line class="cls-1" x1="189.88" y1="106.72" x2="168.49" y2="127.61"/><line class="cls-1" x1="126.63" y1="106.72" x2="148.02" y2="127.61"/><line class="cls-1" x1="148.02" y1="106.72" x2="126.63" y2="127.61"/><line class="cls-1" x1="84.77" y1="106.72" x2="106.16" y2="127.61"/><line class="cls-1" x1="106.16" y1="106.72" x2="84.77" y2="127.61"/><line class="cls-1" x1="42.91" y1="106.72" x2="64.3" y2="127.61"/><line class="cls-1" x1="64.3" y1="106.72" x2="42.91" y2="127.61"/><line class="cls-1" x1="1.05" y1="159.55" x2="22.44" y2="180.43"/><line class="cls-1" x1="22.44" y1="159.55" x2="1.05" y2="180.43"/><line class="cls-1" x1="419.64" y1="159.55" x2="441.03" y2="180.43"/><line class="cls-1" x1="441.03" y1="159.55" x2="419.64" y2="180.43"/><line class="cls-1" x1="377.78" y1="159.55" x2="399.17" y2="180.43"/><line class="cls-1" x1="399.17" y1="159.55" x2="377.78" y2="180.43"/><line class="cls-1" x1="335.92" y1="159.55" x2="357.31" y2="180.43"/><line class="cls-1" x1="357.31" y1="159.55" x2="335.92" y2="180.43"/><line class="cls-1" x1="294.06" y1="159.55" x2="315.45" y2="180.43"/><line class="cls-1" x1="315.45" y1="159.55" x2="294.06" y2="180.43"/><line class="cls-1" x1="252.2" y1="159.55" x2="273.6" y2="180.43"/><line class="cls-1" x1="273.6" y1="159.55" x2="252.2" y2="180.43"/><line class="cls-1" x1="210.34" y1="159.55" x2="231.74" y2="180.43"/><line class="cls-1" x1="231.74" y1="159.55" x2="210.34" y2="180.43"/><line class="cls-1" x1="168.49" y1="159.55" x2="189.88" y2="180.43"/><line class="cls-1" x1="189.88" y1="159.55" x2="168.49" y2="180.43"/><line class="cls-1" x1="126.63" y1="159.55" x2="148.02" y2="180.43"/><line class="cls-1" x1="148.02" y1="159.55" x2="126.63" y2="180.43"/><line class="cls-1" x1="84.77" y1="159.55" x2="106.16" y2="180.43"/><line class="cls-1" x1="106.16" y1="159.55" x2="84.77" y2="180.43"/><line class="cls-1" x1="42.91" y1="159.55" x2="64.3" y2="180.43"/><line class="cls-1" x1="64.3" y1="159.55" x2="42.91" y2="180.43"/><line class="cls-1" x1="1.05" y1="212.37" x2="22.44" y2="233.26"/><line class="cls-1" x1="22.44" y1="212.37" x2="1.05" y2="233.26"/><line class="cls-1" x1="419.64" y1="212.37" x2="441.03" y2="233.26"/><line class="cls-1" x1="441.03" y1="212.37" x2="419.64" y2="233.26"/><line class="cls-1" x1="377.78" y1="212.37" x2="399.17" y2="233.26"/><line class="cls-1" x1="399.17" y1="212.37" x2="377.78" y2="233.26"/><line class="cls-1" x1="335.92" y1="212.37" x2="357.31" y2="233.26"/><line class="cls-1" x1="357.31" y1="212.37" x2="335.92" y2="233.26"/><line class="cls-1" x1="294.06" y1="212.37" x2="315.45" y2="233.26"/><line class="cls-1" x1="315.45" y1="212.37" x2="294.06" y2="233.26"/><line class="cls-1" x1="252.2" y1="212.37" x2="273.6" y2="233.26"/><line class="cls-1" x1="273.6" y1="212.37" x2="252.2" y2="233.26"/><line class="cls-1" x1="210.34" y1="212.37" x2="231.74" y2="233.26"/><line class="cls-1" x1="231.74" y1="212.37" x2="210.34" y2="233.26"/><line class="cls-1" x1="168.49" y1="212.37" x2="189.88" y2="233.26"/><line class="cls-1" x1="189.88" y1="212.37" x2="168.49" y2="233.26"/><line class="cls-1" x1="126.63" y1="212.37" x2="148.02" y2="233.26"/><line class="cls-1" x1="148.02" y1="212.37" x2="126.63" y2="233.26"/><line class="cls-1" x1="84.77" y1="212.37" x2="106.16" y2="233.26"/><line class="cls-1" x1="106.16" y1="212.37" x2="84.77" y2="233.26"/><line class="cls-1" x1="42.91" y1="212.37" x2="64.3" y2="233.26"/><line class="cls-1" x1="64.3" y1="212.37" x2="42.91" y2="233.26"/><line class="cls-1" x1="1.05" y1="265.2" x2="22.44" y2="286.09"/><line class="cls-1" x1="22.44" y1="265.2" x2="1.05" y2="286.09"/><line class="cls-1" x1="419.64" y1="265.2" x2="441.03" y2="286.09"/><line class="cls-1" x1="441.03" y1="265.2" x2="419.64" y2="286.09"/><line class="cls-1" x1="377.78" y1="265.2" x2="399.17" y2="286.09"/><line class="cls-1" x1="399.17" y1="265.2" x2="377.78" y2="286.09"/><line class="cls-1" x1="335.92" y1="265.2" x2="357.31" y2="286.09"/><line class="cls-1" x1="357.31" y1="265.2" x2="335.92" y2="286.09"/><line class="cls-1" x1="294.06" y1="265.2" x2="315.45" y2="286.09"/><line class="cls-1" x1="315.45" y1="265.2" x2="294.06" y2="286.09"/><line class="cls-1" x1="252.2" y1="265.2" x2="273.6" y2="286.09"/><line class="cls-1" x1="273.6" y1="265.2" x2="252.2" y2="286.09"/><line class="cls-1" x1="210.34" y1="265.2" x2="231.74" y2="286.09"/><line class="cls-1" x1="231.74" y1="265.2" x2="210.34" y2="286.09"/><line class="cls-1" x1="168.49" y1="265.2" x2="189.88" y2="286.09"/><line class="cls-1" x1="189.88" y1="265.2" x2="168.49" y2="286.09"/><line class="cls-1" x1="126.63" y1="265.2" x2="148.02" y2="286.09"/><line class="cls-1" x1="148.02" y1="265.2" x2="126.63" y2="286.09"/><line class="cls-1" x1="84.77" y1="265.2" x2="106.16" y2="286.09"/><line class="cls-1" x1="106.16" y1="265.2" x2="84.77" y2="286.09"/><line class="cls-1" x1="42.91" y1="265.2" x2="64.3" y2="286.09"/><line class="cls-1" x1="64.3" y1="265.2" x2="42.91" y2="286.09"/><line class="cls-1" x1="1.05" y1="318.02" x2="22.44" y2="338.91"/><line class="cls-1" x1="22.44" y1="318.02" x2="1.05" y2="338.91"/><line class="cls-1" x1="419.64" y1="318.02" x2="441.03" y2="338.91"/><line class="cls-1" x1="441.03" y1="318.02" x2="419.64" y2="338.91"/><line class="cls-1" x1="377.78" y1="318.02" x2="399.17" y2="338.91"/><line class="cls-1" x1="399.17" y1="318.02" x2="377.78" y2="338.91"/><line class="cls-1" x1="335.92" y1="318.02" x2="357.31" y2="338.91"/><line class="cls-1" x1="357.31" y1="318.02" x2="335.92" y2="338.91"/><line class="cls-1" x1="294.06" y1="318.02" x2="315.45" y2="338.91"/><line class="cls-1" x1="315.45" y1="318.02" x2="294.06" y2="338.91"/><line class="cls-1" x1="252.2" y1="318.02" x2="273.6" y2="338.91"/><line class="cls-1" x1="273.6" y1="318.02" x2="252.2" y2="338.91"/><line class="cls-1" x1="210.34" y1="318.02" x2="231.74" y2="338.91"/><line class="cls-1" x1="231.74" y1="318.02" x2="210.34" y2="338.91"/><line class="cls-1" x1="168.49" y1="318.02" x2="189.88" y2="338.91"/><line class="cls-1" x1="189.88" y1="318.02" x2="168.49" y2="338.91"/><line class="cls-1" x1="126.63" y1="318.02" x2="148.02" y2="338.91"/><line class="cls-1" x1="148.02" y1="318.02" x2="126.63" y2="338.91"/><line class="cls-1" x1="84.77" y1="318.02" x2="106.16" y2="338.91"/><line class="cls-1" x1="106.16" y1="318.02" x2="84.77" y2="338.91"/><line class="cls-1" x1="42.91" y1="318.02" x2="64.3" y2="338.91"/><line class="cls-1" x1="64.3" y1="318.02" x2="42.91" y2="338.91"/><line class="cls-1" x1="1.05" y1="370.85" x2="22.44" y2="391.74"/><line class="cls-1" x1="22.44" y1="370.85" x2="1.05" y2="391.74"/><line class="cls-1" x1="419.64" y1="370.85" x2="441.03" y2="391.74"/><line class="cls-1" x1="441.03" y1="370.85" x2="419.64" y2="391.74"/><line class="cls-1" x1="377.78" y1="370.85" x2="399.17" y2="391.74"/><line class="cls-1" x1="399.17" y1="370.85" x2="377.78" y2="391.74"/><line class="cls-1" x1="335.92" y1="370.85" x2="357.31" y2="391.74"/><line class="cls-1" x1="357.31" y1="370.85" x2="335.92" y2="391.74"/><line class="cls-1" x1="294.06" y1="370.85" x2="315.45" y2="391.74"/><line class="cls-1" x1="315.45" y1="370.85" x2="294.06" y2="391.74"/><line class="cls-1" x1="252.2" y1="370.85" x2="273.6" y2="391.74"/><line class="cls-1" x1="273.6" y1="370.85" x2="252.2" y2="391.74"/><line class="cls-1" x1="210.34" y1="370.85" x2="231.74" y2="391.74"/><line class="cls-1" x1="231.74" y1="370.85" x2="210.34" y2="391.74"/><line class="cls-1" x1="168.49" y1="370.85" x2="189.88" y2="391.74"/><line class="cls-1" x1="189.88" y1="370.85" x2="168.49" y2="391.74"/><line class="cls-1" x1="126.63" y1="370.85" x2="148.02" y2="391.74"/><line class="cls-1" x1="148.02" y1="370.85" x2="126.63" y2="391.74"/><line class="cls-1" x1="84.77" y1="370.85" x2="106.16" y2="391.74"/><line class="cls-1" x1="106.16" y1="370.85" x2="84.77" y2="391.74"/><line class="cls-1" x1="42.91" y1="370.85" x2="64.3" y2="391.74"/><line class="cls-1" x1="64.3" y1="370.85" x2="42.91" y2="391.74"/><line class="cls-1" x1="1.05" y1="423.68" x2="22.44" y2="444.56"/><line class="cls-1" x1="22.44" y1="423.68" x2="1.05" y2="444.56"/><line class="cls-1" x1="419.64" y1="423.68" x2="441.03" y2="444.56"/><line class="cls-1" x1="441.03" y1="423.68" x2="419.64" y2="444.56"/><line class="cls-1" x1="377.78" y1="423.68" x2="399.17" y2="444.56"/><line class="cls-1" x1="399.17" y1="423.68" x2="377.78" y2="444.56"/><line class="cls-1" x1="335.92" y1="423.68" x2="357.31" y2="444.56"/><line class="cls-1" x1="357.31" y1="423.68" x2="335.92" y2="444.56"/><line class="cls-1" x1="294.06" y1="423.68" x2="315.45" y2="444.56"/><line class="cls-1" x1="315.45" y1="423.68" x2="294.06" y2="444.56"/><line class="cls-1" x1="252.2" y1="423.68" x2="273.6" y2="444.56"/><line class="cls-1" x1="273.6" y1="423.68" x2="252.2" y2="444.56"/><line class="cls-1" x1="210.34" y1="423.68" x2="231.74" y2="444.56"/><line class="cls-1" x1="231.74" y1="423.68" x2="210.34" y2="444.56"/><line class="cls-1" x1="168.49" y1="423.68" x2="189.88" y2="444.56"/><line class="cls-1" x1="189.88" y1="423.68" x2="168.49" y2="444.56"/><line class="cls-1" x1="126.63" y1="423.68" x2="148.02" y2="444.56"/><line class="cls-1" x1="148.02" y1="423.68" x2="126.63" y2="444.56"/><line class="cls-1" x1="84.77" y1="423.68" x2="106.16" y2="444.56"/><line class="cls-1" x1="106.16" y1="423.68" x2="84.77" y2="444.56"/><line class="cls-1" x1="42.91" y1="423.68" x2="64.3" y2="444.56"/><line class="cls-1" x1="64.3" y1="423.68" x2="42.91" y2="444.56"/><line class="cls-1" x1="1.05" y1="476.5" x2="22.44" y2="497.39"/><line class="cls-1" x1="22.44" y1="476.5" x2="1.05" y2="497.39"/><line class="cls-1" x1="419.64" y1="476.5" x2="441.03" y2="497.39"/><line class="cls-1" x1="441.03" y1="476.5" x2="419.64" y2="497.39"/><line class="cls-1" x1="377.78" y1="476.5" x2="399.17" y2="497.39"/><line class="cls-1" x1="399.17" y1="476.5" x2="377.78" y2="497.39"/><line class="cls-1" x1="335.92" y1="476.5" x2="357.31" y2="497.39"/><line class="cls-1" x1="357.31" y1="476.5" x2="335.92" y2="497.39"/><line class="cls-1" x1="294.06" y1="476.5" x2="315.45" y2="497.39"/><line class="cls-1" x1="315.45" y1="476.5" x2="294.06" y2="497.39"/><line class="cls-1" x1="252.2" y1="476.5" x2="273.6" y2="497.39"/><line class="cls-1" x1="273.6" y1="476.5" x2="252.2" y2="497.39"/><line class="cls-1" x1="210.34" y1="476.5" x2="231.74" y2="497.39"/><line class="cls-1" x1="231.74" y1="476.5" x2="210.34" y2="497.39"/><line class="cls-1" x1="168.49" y1="476.5" x2="189.88" y2="497.39"/><line class="cls-1" x1="189.88" y1="476.5" x2="168.49" y2="497.39"/><line class="cls-1" x1="126.63" y1="476.5" x2="148.02" y2="497.39"/><line class="cls-1" x1="148.02" y1="476.5" x2="126.63" y2="497.39"/><line class="cls-1" x1="84.77" y1="476.5" x2="106.16" y2="497.39"/><line class="cls-1" x1="106.16" y1="476.5" x2="84.77" y2="497.39"/><line class="cls-1" x1="42.91" y1="476.5" x2="64.3" y2="497.39"/><line class="cls-1" x1="64.3" y1="476.5" x2="42.91" y2="497.39"/><line class="cls-1" x1="1.05" y1="529.33" x2="22.44" y2="550.21"/><line class="cls-1" x1="22.44" y1="529.33" x2="1.05" y2="550.21"/><line class="cls-1" x1="419.64" y1="529.33" x2="441.03" y2="550.21"/><line class="cls-1" x1="441.03" y1="529.33" x2="419.64" y2="550.21"/><line class="cls-1" x1="377.78" y1="529.33" x2="399.17" y2="550.21"/><line class="cls-1" x1="399.17" y1="529.33" x2="377.78" y2="550.21"/><line class="cls-1" x1="523.03" y1="1.07" x2="501.64" y2="21.96"/><line class="cls-1" x1="459.78" y1="1.07" x2="481.17" y2="21.96"/><line class="cls-1" x1="481.17" y1="1.07" x2="459.78" y2="21.96"/><line class="cls-1" x1="501.64" y1="53.9" x2="523.03" y2="74.78"/><line class="cls-1" x1="523.03" y1="53.9" x2="501.64" y2="74.78"/><line class="cls-1" x1="459.78" y1="53.9" x2="481.17" y2="74.78"/><line class="cls-1" x1="481.17" y1="53.9" x2="459.78" y2="74.78"/><line class="cls-1" x1="501.64" y1="106.72" x2="523.03" y2="127.61"/><line class="cls-1" x1="523.03" y1="106.72" x2="501.64" y2="127.61"/><line class="cls-1" x1="459.78" y1="106.72" x2="481.17" y2="127.61"/><line class="cls-1" x1="481.17" y1="106.72" x2="459.78" y2="127.61"/><line class="cls-1" x1="501.64" y1="159.55" x2="523.03" y2="180.43"/><line class="cls-1" x1="523.03" y1="159.55" x2="501.64" y2="180.43"/><line class="cls-1" x1="459.78" y1="159.55" x2="481.17" y2="180.43"/><line class="cls-1" x1="481.17" y1="159.55" x2="459.78" y2="180.43"/><line class="cls-1" x1="501.64" y1="212.37" x2="523.03" y2="233.26"/><line class="cls-1" x1="523.03" y1="212.37" x2="501.64" y2="233.26"/><line class="cls-1" x1="459.78" y1="212.37" x2="481.17" y2="233.26"/><line class="cls-1" x1="481.17" y1="212.37" x2="459.78" y2="233.26"/><line class="cls-1" x1="501.64" y1="265.2" x2="523.03" y2="286.09"/><line class="cls-1" x1="523.03" y1="265.2" x2="501.64" y2="286.09"/><line class="cls-1" x1="459.78" y1="265.2" x2="481.17" y2="286.09"/><line class="cls-1" x1="481.17" y1="265.2" x2="459.78" y2="286.09"/><line class="cls-1" x1="501.64" y1="318.02" x2="523.03" y2="338.91"/><line class="cls-1" x1="523.03" y1="318.02" x2="501.64" y2="338.91"/><line class="cls-1" x1="459.78" y1="318.02" x2="481.17" y2="338.91"/><line class="cls-1" x1="481.17" y1="318.02" x2="459.78" y2="338.91"/><line class="cls-1" x1="501.64" y1="370.85" x2="523.03" y2="391.74"/><line class="cls-1" x1="523.03" y1="370.85" x2="501.64" y2="391.74"/><line class="cls-1" x1="459.78" y1="370.85" x2="481.17" y2="391.74"/><line class="cls-1" x1="481.17" y1="370.85" x2="459.78" y2="391.74"/><line class="cls-1" x1="501.64" y1="423.68" x2="523.03" y2="444.56"/><line class="cls-1" x1="523.03" y1="423.68" x2="501.64" y2="444.56"/><line class="cls-1" x1="459.78" y1="423.68" x2="481.17" y2="444.56"/><line class="cls-1" x1="481.17" y1="423.68" x2="459.78" y2="444.56"/><line class="cls-1" x1="501.64" y1="476.5" x2="523.03" y2="497.39"/><line class="cls-1" x1="523.03" y1="476.5" x2="501.64" y2="497.39"/><line class="cls-1" x1="459.78" y1="476.5" x2="481.17" y2="497.39"/><line class="cls-1" x1="481.17" y1="476.5" x2="459.78" y2="497.39"/><line class="cls-1" x1="501.64" y1="529.33" x2="523.03" y2="550.21"/><line class="cls-1" x1="523.03" y1="529.33" x2="501.64" y2="550.21"/><line class="cls-1" x1="459.78" y1="529.33" x2="481.17" y2="550.21"/><line class="cls-1" x1="481.17" y1="529.33" x2="459.78" y2="550.21"/><line class="cls-1" x1="335.92" y1="529.33" x2="357.31" y2="550.21"/><line class="cls-1" x1="357.31" y1="529.33" x2="335.92" y2="550.21"/><line class="cls-1" x1="294.06" y1="529.33" x2="315.45" y2="550.21"/><line class="cls-1" x1="315.45" y1="529.33" x2="294.06" y2="550.21"/><line class="cls-1" x1="252.2" y1="529.33" x2="273.6" y2="550.21"/><line class="cls-1" x1="273.6" y1="529.33" x2="252.2" y2="550.21"/><line class="cls-1" x1="210.34" y1="529.33" x2="231.74" y2="550.21"/><line class="cls-1" x1="231.74" y1="529.33" x2="210.34" y2="550.21"/><line class="cls-1" x1="168.49" y1="529.33" x2="189.88" y2="550.21"/><line class="cls-1" x1="189.88" y1="529.33" x2="168.49" y2="550.21"/><line class="cls-1" x1="126.63" y1="529.33" x2="148.02" y2="550.21"/><line class="cls-1" x1="148.02" y1="529.33" x2="126.63" y2="550.21"/><line class="cls-1" x1="84.77" y1="529.33" x2="106.16" y2="550.21"/><line class="cls-1" x1="106.16" y1="529.33" x2="84.77" y2="550.21"/><line class="cls-1" x1="42.91" y1="529.33" x2="64.3" y2="550.21"/><line class="cls-1" x1="64.3" y1="529.33" x2="42.91" y2="550.21"/><line class="cls-1" x1="1.05" y1="570.68" x2="22.44" y2="591.56"/><line class="cls-1" x1="22.44" y1="570.68" x2="1.05" y2="591.56"/><line class="cls-1" x1="419.64" y1="570.68" x2="441.03" y2="591.56"/><line class="cls-1" x1="441.03" y1="570.68" x2="419.64" y2="591.56"/><line class="cls-1" x1="377.78" y1="570.68" x2="399.17" y2="591.56"/><line class="cls-1" x1="399.17" y1="570.68" x2="377.78" y2="591.56"/><line class="cls-1" x1="335.92" y1="570.68" x2="357.31" y2="591.56"/><line class="cls-1" x1="357.31" y1="570.68" x2="335.92" y2="591.56"/><line class="cls-1" x1="294.06" y1="570.68" x2="315.45" y2="591.56"/><line class="cls-1" x1="315.45" y1="570.68" x2="294.06" y2="591.56"/><line class="cls-1" x1="252.2" y1="570.68" x2="273.6" y2="591.56"/><line class="cls-1" x1="273.6" y1="570.68" x2="252.2" y2="591.56"/><line class="cls-1" x1="210.34" y1="570.68" x2="231.74" y2="591.56"/><line class="cls-1" x1="231.74" y1="570.68" x2="210.34" y2="591.56"/><line class="cls-1" x1="168.49" y1="570.68" x2="189.88" y2="591.56"/><line class="cls-1" x1="189.88" y1="570.68" x2="168.49" y2="591.56"/><line class="cls-1" x1="126.63" y1="570.68" x2="148.02" y2="591.56"/><line class="cls-1" x1="148.02" y1="570.68" x2="126.63" y2="591.56"/><line class="cls-1" x1="84.77" y1="570.68" x2="106.16" y2="591.56"/><line class="cls-1" x1="106.16" y1="570.68" x2="84.77" y2="591.56"/><line class="cls-1" x1="42.91" y1="570.68" x2="64.3" y2="591.56"/><line class="cls-1" x1="64.3" y1="570.68" x2="42.91" y2="591.56"/><line class="cls-1" x1="1.05" y1="623.5" x2="22.44" y2="644.39"/><line class="cls-1" x1="22.44" y1="623.5" x2="1.05" y2="644.39"/><line class="cls-1" x1="419.64" y1="623.5" x2="441.03" y2="644.39"/><line class="cls-1" x1="441.03" y1="623.5" x2="419.64" y2="644.39"/><line class="cls-1" x1="377.78" y1="623.5" x2="399.17" y2="644.39"/><line class="cls-1" x1="399.17" y1="623.5" x2="377.78" y2="644.39"/><line class="cls-1" x1="335.92" y1="623.5" x2="357.31" y2="644.39"/><line class="cls-1" x1="357.31" y1="623.5" x2="335.92" y2="644.39"/><line class="cls-1" x1="294.06" y1="623.5" x2="315.45" y2="644.39"/><line class="cls-1" x1="315.45" y1="623.5" x2="294.06" y2="644.39"/><line class="cls-1" x1="252.2" y1="623.5" x2="273.6" y2="644.39"/><line class="cls-1" x1="273.6" y1="623.5" x2="252.2" y2="644.39"/><line class="cls-1" x1="210.34" y1="623.5" x2="231.74" y2="644.39"/><line class="cls-1" x1="231.74" y1="623.5" x2="210.34" y2="644.39"/><line class="cls-1" x1="168.49" y1="623.5" x2="189.88" y2="644.39"/><line class="cls-1" x1="189.88" y1="623.5" x2="168.49" y2="644.39"/><line class="cls-1" x1="126.63" y1="623.5" x2="148.02" y2="644.39"/><line class="cls-1" x1="148.02" y1="623.5" x2="126.63" y2="644.39"/><line class="cls-1" x1="84.77" y1="623.5" x2="106.16" y2="644.39"/><line class="cls-1" x1="106.16" y1="623.5" x2="84.77" y2="644.39"/><line class="cls-1" x1="42.91" y1="623.5" x2="64.3" y2="644.39"/><line class="cls-1" x1="64.3" y1="623.5" x2="42.91" y2="644.39"/><line class="cls-1" x1="1.05" y1="676.33" x2="22.44" y2="697.21"/><line class="cls-1" x1="22.44" y1="676.33" x2="1.05" y2="697.21"/><line class="cls-1" x1="419.64" y1="676.33" x2="441.03" y2="697.21"/><line class="cls-1" x1="441.03" y1="676.33" x2="419.64" y2="697.21"/><line class="cls-1" x1="377.78" y1="676.33" x2="399.17" y2="697.21"/><line class="cls-1" x1="399.17" y1="676.33" x2="377.78" y2="697.21"/><line class="cls-1" x1="501.64" y1="570.68" x2="523.03" y2="591.56"/><line class="cls-1" x1="523.03" y1="570.68" x2="501.64" y2="591.56"/><line class="cls-1" x1="459.78" y1="570.68" x2="481.17" y2="591.56"/><line class="cls-1" x1="481.17" y1="570.68" x2="459.78" y2="591.56"/><line class="cls-1" x1="501.64" y1="623.5" x2="523.03" y2="644.39"/><line class="cls-1" x1="523.03" y1="623.5" x2="501.64" y2="644.39"/><line class="cls-1" x1="459.78" y1="623.5" x2="481.17" y2="644.39"/><line class="cls-1" x1="481.17" y1="623.5" x2="459.78" y2="644.39"/><line class="cls-1" x1="501.64" y1="676.33" x2="523.03" y2="697.21"/><line class="cls-1" x1="523.03" y1="676.33" x2="501.64" y2="697.21"/><line class="cls-1" x1="459.78" y1="676.33" x2="481.17" y2="697.21"/><line class="cls-1" x1="481.17" y1="676.33" x2="459.78" y2="697.21"/><line class="cls-1" x1="335.92" y1="676.33" x2="357.31" y2="697.21"/><line class="cls-1" x1="357.31" y1="676.33" x2="335.92" y2="697.21"/><line class="cls-1" x1="294.06" y1="676.33" x2="315.45" y2="697.21"/><line class="cls-1" x1="315.45" y1="676.33" x2="294.06" y2="697.21"/><line class="cls-1" x1="252.2" y1="676.33" x2="273.6" y2="697.21"/><line class="cls-1" x1="273.6" y1="676.33" x2="252.2" y2="697.21"/><line class="cls-1" x1="210.34" y1="676.33" x2="231.74" y2="697.21"/><line class="cls-1" x1="231.74" y1="676.33" x2="210.34" y2="697.21"/><line class="cls-1" x1="168.49" y1="676.33" x2="189.88" y2="697.21"/><line class="cls-1" x1="189.88" y1="676.33" x2="168.49" y2="697.21"/><line class="cls-1" x1="126.63" y1="676.33" x2="148.02" y2="697.21"/><line class="cls-1" x1="148.02" y1="676.33" x2="126.63" y2="697.21"/><line class="cls-1" x1="84.77" y1="676.33" x2="106.16" y2="697.21"/><line class="cls-1" x1="106.16" y1="676.33" x2="84.77" y2="697.21"/><line class="cls-1" x1="42.91" y1="676.33" x2="64.3" y2="697.21"/><line class="cls-1" x1="64.3" y1="676.33" x2="42.91" y2="697.21"/><line class="cls-1" x1="1.05" y1="724.5" x2="22.44" y2="745.39"/><line class="cls-1" x1="22.44" y1="724.5" x2="1.05" y2="745.39"/><line class="cls-1" x1="419.64" y1="724.5" x2="441.03" y2="745.39"/><line class="cls-1" x1="441.03" y1="724.5" x2="419.64" y2="745.39"/><line class="cls-1" x1="377.78" y1="724.5" x2="399.17" y2="745.39"/><line class="cls-1" x1="399.17" y1="724.5" x2="377.78" y2="745.39"/><line class="cls-1" x1="335.92" y1="724.5" x2="357.31" y2="745.39"/><line class="cls-1" x1="357.31" y1="724.5" x2="335.92" y2="745.39"/><line class="cls-1" x1="294.06" y1="724.5" x2="315.45" y2="745.39"/><line class="cls-1" x1="315.45" y1="724.5" x2="294.06" y2="745.39"/><line class="cls-1" x1="252.2" y1="724.5" x2="273.6" y2="745.39"/><line class="cls-1" x1="273.6" y1="724.5" x2="252.2" y2="745.39"/><line class="cls-1" x1="210.34" y1="724.5" x2="231.74" y2="745.39"/><line class="cls-1" x1="231.74" y1="724.5" x2="210.34" y2="745.39"/><line class="cls-1" x1="168.49" y1="724.5" x2="189.88" y2="745.39"/><line class="cls-1" x1="189.88" y1="724.5" x2="168.49" y2="745.39"/><line class="cls-1" x1="126.63" y1="724.5" x2="148.02" y2="745.39"/><line class="cls-1" x1="148.02" y1="724.5" x2="126.63" y2="745.39"/><line class="cls-1" x1="84.77" y1="724.5" x2="106.16" y2="745.39"/><line class="cls-1" x1="106.16" y1="724.5" x2="84.77" y2="745.39"/><line class="cls-1" x1="42.91" y1="724.5" x2="64.3" y2="745.39"/><line class="cls-1" x1="64.3" y1="724.5" x2="42.91" y2="745.39"/><line class="cls-1" x1="1.05" y1="777.33" x2="22.44" y2="798.21"/><line class="cls-1" x1="22.44" y1="777.33" x2="1.05" y2="798.21"/><line class="cls-1" x1="419.64" y1="777.33" x2="441.03" y2="798.21"/><line class="cls-1" x1="441.03" y1="777.33" x2="419.64" y2="798.21"/><line class="cls-1" x1="377.78" y1="777.33" x2="399.17" y2="798.21"/><line class="cls-1" x1="399.17" y1="777.33" x2="377.78" y2="798.21"/><line class="cls-1" x1="501.64" y1="724.5" x2="523.03" y2="745.39"/><line class="cls-1" x1="523.03" y1="724.5" x2="501.64" y2="745.39"/><line class="cls-1" x1="459.78" y1="724.5" x2="481.17" y2="745.39"/><line class="cls-1" x1="481.17" y1="724.5" x2="459.78" y2="745.39"/><line class="cls-1" x1="501.64" y1="777.33" x2="523.03" y2="798.21"/><line class="cls-1" x1="523.03" y1="777.33" x2="501.64" y2="798.21"/><line class="cls-1" x1="459.78" y1="777.33" x2="481.17" y2="798.21"/><line class="cls-1" x1="481.17" y1="777.33" x2="459.78" y2="798.21"/><line class="cls-1" x1="335.92" y1="777.33" x2="357.31" y2="798.21"/><line class="cls-1" x1="357.31" y1="777.33" x2="335.92" y2="798.21"/><line class="cls-1" x1="294.06" y1="777.33" x2="315.45" y2="798.21"/><line class="cls-1" x1="315.45" y1="777.33" x2="294.06" y2="798.21"/><line class="cls-1" x1="252.2" y1="777.33" x2="273.6" y2="798.21"/><line class="cls-1" x1="273.6" y1="777.33" x2="252.2" y2="798.21"/><line class="cls-1" x1="210.34" y1="777.33" x2="231.74" y2="798.21"/><line class="cls-1" x1="231.74" y1="777.33" x2="210.34" y2="798.21"/><line class="cls-1" x1="168.49" y1="777.33" x2="189.88" y2="798.21"/><line class="cls-1" x1="189.88" y1="777.33" x2="168.49" y2="798.21"/><line class="cls-1" x1="126.63" y1="777.33" x2="148.02" y2="798.21"/><line class="cls-1" x1="148.02" y1="777.33" x2="126.63" y2="798.21"/><line class="cls-1" x1="84.77" y1="777.33" x2="106.16" y2="798.21"/><line class="cls-1" x1="106.16" y1="777.33" x2="84.77" y2="798.21"/><line class="cls-1" x1="42.91" y1="777.33" x2="64.3" y2="798.21"/><line class="cls-1" x1="64.3" y1="777.33" x2="42.91" y2="798.21"/></g></g></svg>