<svg xmlns="http://www.w3.org/2000/svg" width="442" height="697" viewBox="0 0 442 697"><g><g><path fill="none" stroke="#fff" stroke-miterlimit="20" stroke-width="3" d="M419.593 1.862l21.391 20.886"/></g><g><path fill="none" stroke="#fff" stroke-miterlimit="20" stroke-width="3" d="M1 1.862l21.391 20.886"/></g><g><path fill="none" stroke="#fff" stroke-miterlimit="20" stroke-width="3" d="M22.391 1.862L1.001 22.748"/></g><g><path fill="none" stroke="#fff" stroke-miterlimit="20" stroke-width="3" d="M440.984 1.862l-21.39 20.886"/></g><g><path fill="none" stroke="#fff" stroke-miterlimit="20" stroke-width="3" d="M377.734 1.862l21.392 20.886"/></g><g><path fill="none" stroke="#fff" stroke-miterlimit="20" stroke-width="3" d="M399.125 1.862l-21.392 20.886"/></g><g><path fill="none" stroke="#fff" stroke-miterlimit="20" stroke-width="3" d="M335.875 1.862l21.392 20.886"/></g><g><path fill="none" stroke="#fff" stroke-miterlimit="20" stroke-width="3" d="M357.266 1.862l-21.392 20.886"/></g><g><path fill="none" stroke="#fff" stroke-miterlimit="20" stroke-width="3" d="M294.016 1.862l21.39 20.886"/></g><g><path fill="none" stroke="#fff" stroke-miterlimit="20" stroke-width="3" d="M315.407 1.862l-21.391 20.886"/></g><g><path fill="none" stroke="#fff" stroke-miterlimit="20" stroke-width="3" d="M252.156 1.862l21.391 20.886"/></g><g><path fill="none" stroke="#fff" stroke-miterlimit="20" stroke-width="3" d="M273.547 1.862l-21.39 20.886"/></g><g><path fill="none" stroke="#fff" stroke-miterlimit="20" stroke-width="3" d="M210.297 1.862l21.39 20.886"/></g><g><path fill="none" stroke="#fff" stroke-miterlimit="20" stroke-width="3" d="M231.688 1.862l-21.391 20.886"/></g><g><path fill="none" stroke="#fff" stroke-miterlimit="20" stroke-width="3" d="M168.438 1.862l21.39 20.886"/></g><g><path fill="none" stroke="#fff" stroke-miterlimit="20" stroke-width="3" d="M189.829 1.862l-21.391 20.886"/></g><g><path fill="none" stroke="#fff" stroke-miterlimit="20" stroke-width="3" d="M126.578 1.862l21.391 20.886"/></g><g><path fill="none" stroke="#fff" stroke-miterlimit="20" stroke-width="3" d="M147.97 1.862l-21.392 20.886"/></g><g><path fill="none" stroke="#fff" stroke-miterlimit="20" stroke-width="3" d="M84.719 1.862l21.39 20.886"/></g><g><path fill="none" stroke="#fff" stroke-miterlimit="20" stroke-width="3" d="M106.11 1.862L84.719 22.748"/></g><g><path fill="none" stroke="#fff" stroke-miterlimit="20" stroke-width="3" d="M42.86 1.862l21.39 20.886"/></g><g><path fill="none" stroke="#fff" stroke-miterlimit="20" stroke-width="3" d="M64.25 1.862L42.86 22.748"/></g><g><path fill="none" stroke="#fff" stroke-miterlimit="20" stroke-width="3" d="M1 54.688l21.391 20.885"/></g><g><path fill="none" stroke="#fff" stroke-miterlimit="20" stroke-width="3" d="M22.391 54.688L1.001 75.573"/></g><g><path fill="none" stroke="#fff" stroke-miterlimit="20" stroke-width="3" d="M419.593 54.688l21.391 20.885"/></g><g><path fill="none" stroke="#fff" stroke-miterlimit="20" stroke-width="3" d="M440.984 54.688l-21.39 20.885"/></g><g><path fill="none" stroke="#fff" stroke-miterlimit="20" stroke-width="3" d="M377.734 54.688l21.392 20.885"/></g><g><path fill="none" stroke="#fff" stroke-miterlimit="20" stroke-width="3" d="M399.125 54.688l-21.392 20.885"/></g><g><path fill="none" stroke="#fff" stroke-miterlimit="20" stroke-width="3" d="M335.875 54.688l21.392 20.885"/></g><g><path fill="none" stroke="#fff" stroke-miterlimit="20" stroke-width="3" d="M357.266 54.688l-21.392 20.885"/></g><g><path fill="none" stroke="#fff" stroke-miterlimit="20" stroke-width="3" d="M294.016 54.688l21.39 20.885"/></g><g><path fill="none" stroke="#fff" stroke-miterlimit="20" stroke-width="3" d="M315.407 54.688l-21.391 20.885"/></g><g><path fill="none" stroke="#fff" stroke-miterlimit="20" stroke-width="3" d="M252.156 54.688l21.391 20.885"/></g><g><path fill="none" stroke="#fff" stroke-miterlimit="20" stroke-width="3" d="M273.547 54.688l-21.39 20.885"/></g><g><path fill="none" stroke="#fff" stroke-miterlimit="20" stroke-width="3" d="M210.297 54.688l21.39 20.885"/></g><g><path fill="none" stroke="#fff" stroke-miterlimit="20" stroke-width="3" d="M231.688 54.688l-21.391 20.885"/></g><g><path fill="none" stroke="#fff" stroke-miterlimit="20" stroke-width="3" d="M168.438 54.688l21.39 20.885"/></g><g><path fill="none" stroke="#fff" stroke-miterlimit="20" stroke-width="3" d="M189.829 54.688l-21.391 20.885"/></g><g><path fill="none" stroke="#fff" stroke-miterlimit="20" stroke-width="3" d="M126.578 54.688l21.391 20.885"/></g><g><path fill="none" stroke="#fff" stroke-miterlimit="20" stroke-width="3" d="M147.97 54.688l-21.392 20.885"/></g><g><path fill="none" stroke="#fff" stroke-miterlimit="20" stroke-width="3" d="M84.719 54.688l21.39 20.885"/></g><g><path fill="none" stroke="#fff" stroke-miterlimit="20" stroke-width="3" d="M106.11 54.688L84.719 75.573"/></g><g><path fill="none" stroke="#fff" stroke-miterlimit="20" stroke-width="3" d="M42.86 54.688l21.39 20.885"/></g><g><path fill="none" stroke="#fff" stroke-miterlimit="20" stroke-width="3" d="M64.25 54.688L42.86 75.573"/></g><g><path fill="none" stroke="#fff" stroke-miterlimit="20" stroke-width="3" d="M1 107.513l21.391 20.886"/></g><g><path fill="none" stroke="#fff" stroke-miterlimit="20" stroke-width="3" d="M22.391 107.513l-21.39 20.886"/></g><g><path fill="none" stroke="#fff" stroke-miterlimit="20" stroke-width="3" d="M419.593 107.513l21.391 20.886"/></g><g><path fill="none" stroke="#fff" stroke-miterlimit="20" stroke-width="3" d="M440.984 107.513l-21.39 20.886"/></g><g><path fill="none" stroke="#fff" stroke-miterlimit="20" stroke-width="3" d="M377.734 107.513l21.392 20.886"/></g><g><path fill="none" stroke="#fff" stroke-miterlimit="20" stroke-width="3" d="M399.125 107.513l-21.392 20.886"/></g><g><path fill="none" stroke="#fff" stroke-miterlimit="20" stroke-width="3" d="M335.875 107.513l21.392 20.886"/></g><g><path fill="none" stroke="#fff" stroke-miterlimit="20" stroke-width="3" d="M357.266 107.513l-21.392 20.886"/></g><g><path fill="none" stroke="#fff" stroke-miterlimit="20" stroke-width="3" d="M294.016 107.513l21.39 20.886"/></g><g><path fill="none" stroke="#fff" stroke-miterlimit="20" stroke-width="3" d="M315.407 107.513l-21.391 20.886"/></g><g><path fill="none" stroke="#fff" stroke-miterlimit="20" stroke-width="3" d="M252.156 107.513l21.391 20.886"/></g><g><path fill="none" stroke="#fff" stroke-miterlimit="20" stroke-width="3" d="M273.547 107.513l-21.39 20.886"/></g><g><path fill="none" stroke="#fff" stroke-miterlimit="20" stroke-width="3" d="M210.297 107.513l21.39 20.886"/></g><g><path fill="none" stroke="#fff" stroke-miterlimit="20" stroke-width="3" d="M231.688 107.513l-21.391 20.886"/></g><g><path fill="none" stroke="#fff" stroke-miterlimit="20" stroke-width="3" d="M168.438 107.513l21.39 20.886"/></g><g><path fill="none" stroke="#fff" stroke-miterlimit="20" stroke-width="3" d="M189.829 107.513l-21.391 20.886"/></g><g><path fill="none" stroke="#fff" stroke-miterlimit="20" stroke-width="3" d="M126.578 107.513l21.391 20.886"/></g><g><path fill="none" stroke="#fff" stroke-miterlimit="20" stroke-width="3" d="M147.97 107.513l-21.392 20.886"/></g><g><path fill="none" stroke="#fff" stroke-miterlimit="20" stroke-width="3" d="M84.719 107.513l21.39 20.886"/></g><g><path fill="none" stroke="#fff" stroke-miterlimit="20" stroke-width="3" d="M106.11 107.513l-21.391 20.886"/></g><g><path fill="none" stroke="#fff" stroke-miterlimit="20" stroke-width="3" d="M42.86 107.513l21.39 20.886"/></g><g><path fill="none" stroke="#fff" stroke-miterlimit="20" stroke-width="3" d="M64.25 107.513l-21.39 20.886"/></g><g><path fill="none" stroke="#fff" stroke-miterlimit="20" stroke-width="3" d="M1 160.338l21.391 20.886"/></g><g><path fill="none" stroke="#fff" stroke-miterlimit="20" stroke-width="3" d="M22.391 160.338l-21.39 20.886"/></g><g><path fill="none" stroke="#fff" stroke-miterlimit="20" stroke-width="3" d="M419.593 160.338l21.391 20.886"/></g><g><path fill="none" stroke="#fff" stroke-miterlimit="20" stroke-width="3" d="M440.984 160.338l-21.39 20.886"/></g><g><path fill="none" stroke="#fff" stroke-miterlimit="20" stroke-width="3" d="M377.734 160.338l21.392 20.886"/></g><g><path fill="none" stroke="#fff" stroke-miterlimit="20" stroke-width="3" d="M399.125 160.338l-21.392 20.886"/></g><g><path fill="none" stroke="#fff" stroke-miterlimit="20" stroke-width="3" d="M335.875 160.338l21.392 20.886"/></g><g><path fill="none" stroke="#fff" stroke-miterlimit="20" stroke-width="3" d="M357.266 160.338l-21.392 20.886"/></g><g><path fill="none" stroke="#fff" stroke-miterlimit="20" stroke-width="3" d="M294.016 160.338l21.39 20.886"/></g><g><path fill="none" stroke="#fff" stroke-miterlimit="20" stroke-width="3" d="M315.407 160.338l-21.391 20.886"/></g><g><path fill="none" stroke="#fff" stroke-miterlimit="20" stroke-width="3" d="M252.156 160.338l21.391 20.886"/></g><g><path fill="none" stroke="#fff" stroke-miterlimit="20" stroke-width="3" d="M273.547 160.338l-21.39 20.886"/></g><g><path fill="none" stroke="#fff" stroke-miterlimit="20" stroke-width="3" d="M210.297 160.338l21.39 20.886"/></g><g><path fill="none" stroke="#fff" stroke-miterlimit="20" stroke-width="3" d="M231.688 160.338l-21.391 20.886"/></g><g><path fill="none" stroke="#fff" stroke-miterlimit="20" stroke-width="3" d="M168.438 160.338l21.39 20.886"/></g><g><path fill="none" stroke="#fff" stroke-miterlimit="20" stroke-width="3" d="M189.829 160.338l-21.391 20.886"/></g><g><path fill="none" stroke="#fff" stroke-miterlimit="20" stroke-width="3" d="M126.578 160.338l21.391 20.886"/></g><g><path fill="none" stroke="#fff" stroke-miterlimit="20" stroke-width="3" d="M147.97 160.338l-21.392 20.886"/></g><g><path fill="none" stroke="#fff" stroke-miterlimit="20" stroke-width="3" d="M84.719 160.338l21.39 20.886"/></g><g><path fill="none" stroke="#fff" stroke-miterlimit="20" stroke-width="3" d="M106.11 160.338l-21.391 20.886"/></g><g><path fill="none" stroke="#fff" stroke-miterlimit="20" stroke-width="3" d="M42.86 160.338l21.39 20.886"/></g><g><path fill="none" stroke="#fff" stroke-miterlimit="20" stroke-width="3" d="M64.25 160.338l-21.39 20.886"/></g><g><path fill="none" stroke="#fff" stroke-miterlimit="20" stroke-width="3" d="M1 213.163l21.391 20.886"/></g><g><path fill="none" stroke="#fff" stroke-miterlimit="20" stroke-width="3" d="M22.391 213.163L1.001 234.05"/></g><g><path fill="none" stroke="#fff" stroke-miterlimit="20" stroke-width="3" d="M419.593 213.163l21.391 20.886"/></g><g><path fill="none" stroke="#fff" stroke-miterlimit="20" stroke-width="3" d="M440.984 213.163l-21.39 20.886"/></g><g><path fill="none" stroke="#fff" stroke-miterlimit="20" stroke-width="3" d="M377.734 213.163l21.392 20.886"/></g><g><path fill="none" stroke="#fff" stroke-miterlimit="20" stroke-width="3" d="M399.125 213.163l-21.392 20.886"/></g><g><path fill="none" stroke="#fff" stroke-miterlimit="20" stroke-width="3" d="M335.875 213.163l21.392 20.886"/></g><g><path fill="none" stroke="#fff" stroke-miterlimit="20" stroke-width="3" d="M357.266 213.163l-21.392 20.886"/></g><g><path fill="none" stroke="#fff" stroke-miterlimit="20" stroke-width="3" d="M294.016 213.163l21.39 20.886"/></g><g><path fill="none" stroke="#fff" stroke-miterlimit="20" stroke-width="3" d="M315.407 213.163l-21.391 20.886"/></g><g><path fill="none" stroke="#fff" stroke-miterlimit="20" stroke-width="3" d="M252.156 213.163l21.391 20.886"/></g><g><path fill="none" stroke="#fff" stroke-miterlimit="20" stroke-width="3" d="M273.547 213.163l-21.39 20.886"/></g><g><path fill="none" stroke="#fff" stroke-miterlimit="20" stroke-width="3" d="M210.297 213.163l21.39 20.886"/></g><g><path fill="none" stroke="#fff" stroke-miterlimit="20" stroke-width="3" d="M231.688 213.163l-21.391 20.886"/></g><g><path fill="none" stroke="#fff" stroke-miterlimit="20" stroke-width="3" d="M168.438 213.163l21.39 20.886"/></g><g><path fill="none" stroke="#fff" stroke-miterlimit="20" stroke-width="3" d="M189.829 213.163l-21.391 20.886"/></g><g><path fill="none" stroke="#fff" stroke-miterlimit="20" stroke-width="3" d="M126.578 213.163l21.391 20.886"/></g><g><path fill="none" stroke="#fff" stroke-miterlimit="20" stroke-width="3" d="M147.97 213.163l-21.392 20.886"/></g><g><path fill="none" stroke="#fff" stroke-miterlimit="20" stroke-width="3" d="M84.719 213.163l21.39 20.886"/></g><g><path fill="none" stroke="#fff" stroke-miterlimit="20" stroke-width="3" d="M106.11 213.163L84.719 234.05"/></g><g><path fill="none" stroke="#fff" stroke-miterlimit="20" stroke-width="3" d="M42.86 213.163l21.39 20.886"/></g><g><path fill="none" stroke="#fff" stroke-miterlimit="20" stroke-width="3" d="M64.25 213.163L42.86 234.05"/></g><g><path fill="none" stroke="#fff" stroke-miterlimit="20" stroke-width="3" d="M1 265.988l21.391 20.886"/></g><g><path fill="none" stroke="#fff" stroke-miterlimit="20" stroke-width="3" d="M22.391 265.988l-21.39 20.886"/></g><g><path fill="none" stroke="#fff" stroke-miterlimit="20" stroke-width="3" d="M419.593 265.988l21.391 20.886"/></g><g><path fill="none" stroke="#fff" stroke-miterlimit="20" stroke-width="3" d="M440.984 265.988l-21.39 20.886"/></g><g><path fill="none" stroke="#fff" stroke-miterlimit="20" stroke-width="3" d="M377.734 265.988l21.392 20.886"/></g><g><path fill="none" stroke="#fff" stroke-miterlimit="20" stroke-width="3" d="M399.125 265.988l-21.392 20.886"/></g><g><path fill="none" stroke="#fff" stroke-miterlimit="20" stroke-width="3" d="M335.875 265.988l21.392 20.886"/></g><g><path fill="none" stroke="#fff" stroke-miterlimit="20" stroke-width="3" d="M357.266 265.988l-21.392 20.886"/></g><g><path fill="none" stroke="#fff" stroke-miterlimit="20" stroke-width="3" d="M294.016 265.988l21.39 20.886"/></g><g><path fill="none" stroke="#fff" stroke-miterlimit="20" stroke-width="3" d="M315.407 265.988l-21.391 20.886"/></g><g><path fill="none" stroke="#fff" stroke-miterlimit="20" stroke-width="3" d="M252.156 265.988l21.391 20.886"/></g><g><path fill="none" stroke="#fff" stroke-miterlimit="20" stroke-width="3" d="M273.547 265.988l-21.39 20.886"/></g><g><path fill="none" stroke="#fff" stroke-miterlimit="20" stroke-width="3" d="M210.297 265.988l21.39 20.886"/></g><g><path fill="none" stroke="#fff" stroke-miterlimit="20" stroke-width="3" d="M231.688 265.988l-21.391 20.886"/></g><g><path fill="none" stroke="#fff" stroke-miterlimit="20" stroke-width="3" d="M168.438 265.988l21.39 20.886"/></g><g><path fill="none" stroke="#fff" stroke-miterlimit="20" stroke-width="3" d="M189.829 265.988l-21.391 20.886"/></g><g><path fill="none" stroke="#fff" stroke-miterlimit="20" stroke-width="3" d="M126.578 265.988l21.391 20.886"/></g><g><path fill="none" stroke="#fff" stroke-miterlimit="20" stroke-width="3" d="M147.97 265.988l-21.392 20.886"/></g><g><path fill="none" stroke="#fff" stroke-miterlimit="20" stroke-width="3" d="M84.719 265.988l21.39 20.886"/></g><g><path fill="none" stroke="#fff" stroke-miterlimit="20" stroke-width="3" d="M106.11 265.988l-21.391 20.886"/></g><g><path fill="none" stroke="#fff" stroke-miterlimit="20" stroke-width="3" d="M42.86 265.988l21.39 20.886"/></g><g><path fill="none" stroke="#fff" stroke-miterlimit="20" stroke-width="3" d="M64.25 265.988l-21.39 20.886"/></g><g><path fill="none" stroke="#fff" stroke-miterlimit="20" stroke-width="3" d="M1 318.813L22.391 339.7"/></g><g><path fill="none" stroke="#fff" stroke-miterlimit="20" stroke-width="3" d="M22.391 318.813L1.001 339.7"/></g><g><path fill="none" stroke="#fff" stroke-miterlimit="20" stroke-width="3" d="M419.593 318.813l21.391 20.886"/></g><g><path fill="none" stroke="#fff" stroke-miterlimit="20" stroke-width="3" d="M440.984 318.813l-21.39 20.886"/></g><g><path fill="none" stroke="#fff" stroke-miterlimit="20" stroke-width="3" d="M377.734 318.813l21.392 20.886"/></g><g><path fill="none" stroke="#fff" stroke-miterlimit="20" stroke-width="3" d="M399.125 318.813L377.733 339.7"/></g><g><path fill="none" stroke="#fff" stroke-miterlimit="20" stroke-width="3" d="M335.875 318.813l21.392 20.886"/></g><g><path fill="none" stroke="#fff" stroke-miterlimit="20" stroke-width="3" d="M357.266 318.813L335.874 339.7"/></g><g><path fill="none" stroke="#fff" stroke-miterlimit="20" stroke-width="3" d="M294.016 318.813l21.39 20.886"/></g><g><path fill="none" stroke="#fff" stroke-miterlimit="20" stroke-width="3" d="M315.407 318.813L294.016 339.7"/></g><g><path fill="none" stroke="#fff" stroke-miterlimit="20" stroke-width="3" d="M252.156 318.813l21.391 20.886"/></g><g><path fill="none" stroke="#fff" stroke-miterlimit="20" stroke-width="3" d="M273.547 318.813l-21.39 20.886"/></g><g><path fill="none" stroke="#fff" stroke-miterlimit="20" stroke-width="3" d="M210.297 318.813l21.39 20.886"/></g><g><path fill="none" stroke="#fff" stroke-miterlimit="20" stroke-width="3" d="M231.688 318.813L210.297 339.7"/></g><g><path fill="none" stroke="#fff" stroke-miterlimit="20" stroke-width="3" d="M168.438 318.813l21.39 20.886"/></g><g><path fill="none" stroke="#fff" stroke-miterlimit="20" stroke-width="3" d="M189.829 318.813L168.438 339.7"/></g><g><path fill="none" stroke="#fff" stroke-miterlimit="20" stroke-width="3" d="M126.578 318.813L147.97 339.7"/></g><g><path fill="none" stroke="#fff" stroke-miterlimit="20" stroke-width="3" d="M147.97 318.813L126.577 339.7"/></g><g><path fill="none" stroke="#fff" stroke-miterlimit="20" stroke-width="3" d="M84.719 318.813l21.39 20.886"/></g><g><path fill="none" stroke="#fff" stroke-miterlimit="20" stroke-width="3" d="M106.11 318.813L84.719 339.7"/></g><g><path fill="none" stroke="#fff" stroke-miterlimit="20" stroke-width="3" d="M42.86 318.813L64.25 339.7"/></g><g><path fill="none" stroke="#fff" stroke-miterlimit="20" stroke-width="3" d="M64.25 318.813L42.86 339.7"/></g><g><path fill="none" stroke="#fff" stroke-miterlimit="20" stroke-width="3" d="M1 371.639l21.391 20.886"/></g><g><path fill="none" stroke="#fff" stroke-miterlimit="20" stroke-width="3" d="M22.391 371.639l-21.39 20.886"/></g><g><path fill="none" stroke="#fff" stroke-miterlimit="20" stroke-width="3" d="M419.593 371.639l21.391 20.886"/></g><g><path fill="none" stroke="#fff" stroke-miterlimit="20" stroke-width="3" d="M440.984 371.639l-21.39 20.886"/></g><g><path fill="none" stroke="#fff" stroke-miterlimit="20" stroke-width="3" d="M377.734 371.639l21.392 20.886"/></g><g><path fill="none" stroke="#fff" stroke-miterlimit="20" stroke-width="3" d="M399.125 371.639l-21.392 20.886"/></g><g><path fill="none" stroke="#fff" stroke-miterlimit="20" stroke-width="3" d="M335.875 371.639l21.392 20.886"/></g><g><path fill="none" stroke="#fff" stroke-miterlimit="20" stroke-width="3" d="M357.266 371.639l-21.392 20.886"/></g><g><path fill="none" stroke="#fff" stroke-miterlimit="20" stroke-width="3" d="M294.016 371.639l21.39 20.886"/></g><g><path fill="none" stroke="#fff" stroke-miterlimit="20" stroke-width="3" d="M315.407 371.639l-21.391 20.886"/></g><g><path fill="none" stroke="#fff" stroke-miterlimit="20" stroke-width="3" d="M252.156 371.639l21.391 20.886"/></g><g><path fill="none" stroke="#fff" stroke-miterlimit="20" stroke-width="3" d="M273.547 371.639l-21.39 20.886"/></g><g><path fill="none" stroke="#fff" stroke-miterlimit="20" stroke-width="3" d="M210.297 371.639l21.39 20.886"/></g><g><path fill="none" stroke="#fff" stroke-miterlimit="20" stroke-width="3" d="M231.688 371.639l-21.391 20.886"/></g><g><path fill="none" stroke="#fff" stroke-miterlimit="20" stroke-width="3" d="M168.438 371.639l21.39 20.886"/></g><g><path fill="none" stroke="#fff" stroke-miterlimit="20" stroke-width="3" d="M189.829 371.639l-21.391 20.886"/></g><g><path fill="none" stroke="#fff" stroke-miterlimit="20" stroke-width="3" d="M126.578 371.639l21.391 20.886"/></g><g><path fill="none" stroke="#fff" stroke-miterlimit="20" stroke-width="3" d="M147.97 371.639l-21.392 20.886"/></g><g><path fill="none" stroke="#fff" stroke-miterlimit="20" stroke-width="3" d="M84.719 371.639l21.39 20.886"/></g><g><path fill="none" stroke="#fff" stroke-miterlimit="20" stroke-width="3" d="M106.11 371.639l-21.391 20.886"/></g><g><path fill="none" stroke="#fff" stroke-miterlimit="20" stroke-width="3" d="M42.86 371.639l21.39 20.886"/></g><g><path fill="none" stroke="#fff" stroke-miterlimit="20" stroke-width="3" d="M64.25 371.639l-21.39 20.886"/></g><g><path fill="none" stroke="#fff" stroke-miterlimit="20" stroke-width="3" d="M1 424.464l21.391 20.886"/></g><g><path fill="none" stroke="#fff" stroke-miterlimit="20" stroke-width="3" d="M22.391 424.464L1.001 445.35"/></g><g><path fill="none" stroke="#fff" stroke-miterlimit="20" stroke-width="3" d="M419.593 424.464l21.391 20.886"/></g><g><path fill="none" stroke="#fff" stroke-miterlimit="20" stroke-width="3" d="M440.984 424.464l-21.39 20.886"/></g><g><path fill="none" stroke="#fff" stroke-miterlimit="20" stroke-width="3" d="M377.734 424.464l21.392 20.886"/></g><g><path fill="none" stroke="#fff" stroke-miterlimit="20" stroke-width="3" d="M399.125 424.464l-21.392 20.886"/></g><g><path fill="none" stroke="#fff" stroke-miterlimit="20" stroke-width="3" d="M335.875 424.464l21.392 20.886"/></g><g><path fill="none" stroke="#fff" stroke-miterlimit="20" stroke-width="3" d="M357.266 424.464l-21.392 20.886"/></g><g><path fill="none" stroke="#fff" stroke-miterlimit="20" stroke-width="3" d="M294.016 424.464l21.39 20.886"/></g><g><path fill="none" stroke="#fff" stroke-miterlimit="20" stroke-width="3" d="M315.407 424.464l-21.391 20.886"/></g><g><path fill="none" stroke="#fff" stroke-miterlimit="20" stroke-width="3" d="M252.156 424.464l21.391 20.886"/></g><g><path fill="none" stroke="#fff" stroke-miterlimit="20" stroke-width="3" d="M273.547 424.464l-21.39 20.886"/></g><g><path fill="none" stroke="#fff" stroke-miterlimit="20" stroke-width="3" d="M210.297 424.464l21.39 20.886"/></g><g><path fill="none" stroke="#fff" stroke-miterlimit="20" stroke-width="3" d="M231.688 424.464l-21.391 20.886"/></g><g><path fill="none" stroke="#fff" stroke-miterlimit="20" stroke-width="3" d="M168.438 424.464l21.39 20.886"/></g><g><path fill="none" stroke="#fff" stroke-miterlimit="20" stroke-width="3" d="M189.829 424.464l-21.391 20.886"/></g><g><path fill="none" stroke="#fff" stroke-miterlimit="20" stroke-width="3" d="M126.578 424.464l21.391 20.886"/></g><g><path fill="none" stroke="#fff" stroke-miterlimit="20" stroke-width="3" d="M147.97 424.464l-21.392 20.886"/></g><g><path fill="none" stroke="#fff" stroke-miterlimit="20" stroke-width="3" d="M84.719 424.464l21.39 20.886"/></g><g><path fill="none" stroke="#fff" stroke-miterlimit="20" stroke-width="3" d="M106.11 424.464L84.719 445.35"/></g><g><path fill="none" stroke="#fff" stroke-miterlimit="20" stroke-width="3" d="M42.86 424.464l21.39 20.886"/></g><g><path fill="none" stroke="#fff" stroke-miterlimit="20" stroke-width="3" d="M64.25 424.464L42.86 445.35"/></g><g><path fill="none" stroke="#fff" stroke-miterlimit="20" stroke-width="3" d="M1 477.29l21.391 20.885"/></g><g><path fill="none" stroke="#fff" stroke-miterlimit="20" stroke-width="3" d="M22.391 477.29l-21.39 20.885"/></g><g><path fill="none" stroke="#fff" stroke-miterlimit="20" stroke-width="3" d="M419.593 477.29l21.391 20.885"/></g><g><path fill="none" stroke="#fff" stroke-miterlimit="20" stroke-width="3" d="M440.984 477.29l-21.39 20.885"/></g><g><path fill="none" stroke="#fff" stroke-miterlimit="20" stroke-width="3" d="M377.734 477.29l21.392 20.885"/></g><g><path fill="none" stroke="#fff" stroke-miterlimit="20" stroke-width="3" d="M399.125 477.29l-21.392 20.885"/></g><g><path fill="none" stroke="#fff" stroke-miterlimit="20" stroke-width="3" d="M335.875 477.29l21.392 20.885"/></g><g><path fill="none" stroke="#fff" stroke-miterlimit="20" stroke-width="3" d="M357.266 477.29l-21.392 20.885"/></g><g><path fill="none" stroke="#fff" stroke-miterlimit="20" stroke-width="3" d="M294.016 477.29l21.39 20.885"/></g><g><path fill="none" stroke="#fff" stroke-miterlimit="20" stroke-width="3" d="M315.407 477.29l-21.391 20.885"/></g><g><path fill="none" stroke="#fff" stroke-miterlimit="20" stroke-width="3" d="M252.156 477.29l21.391 20.885"/></g><g><path fill="none" stroke="#fff" stroke-miterlimit="20" stroke-width="3" d="M273.547 477.29l-21.39 20.885"/></g><g><path fill="none" stroke="#fff" stroke-miterlimit="20" stroke-width="3" d="M210.297 477.29l21.39 20.885"/></g><g><path fill="none" stroke="#fff" stroke-miterlimit="20" stroke-width="3" d="M231.688 477.29l-21.391 20.885"/></g><g><path fill="none" stroke="#fff" stroke-miterlimit="20" stroke-width="3" d="M168.438 477.29l21.39 20.885"/></g><g><path fill="none" stroke="#fff" stroke-miterlimit="20" stroke-width="3" d="M189.829 477.29l-21.391 20.885"/></g><g><path fill="none" stroke="#fff" stroke-miterlimit="20" stroke-width="3" d="M126.578 477.29l21.391 20.885"/></g><g><path fill="none" stroke="#fff" stroke-miterlimit="20" stroke-width="3" d="M147.97 477.29l-21.392 20.885"/></g><g><path fill="none" stroke="#fff" stroke-miterlimit="20" stroke-width="3" d="M84.719 477.29l21.39 20.885"/></g><g><path fill="none" stroke="#fff" stroke-miterlimit="20" stroke-width="3" d="M106.11 477.29l-21.391 20.885"/></g><g><path fill="none" stroke="#fff" stroke-miterlimit="20" stroke-width="3" d="M42.86 477.29l21.39 20.885"/></g><g><path fill="none" stroke="#fff" stroke-miterlimit="20" stroke-width="3" d="M64.25 477.29l-21.39 20.885"/></g><g><path fill="none" stroke="#fff" stroke-miterlimit="20" stroke-width="3" d="M1 530.114L22.391 551"/></g><g><path fill="none" stroke="#fff" stroke-miterlimit="20" stroke-width="3" d="M22.391 530.114L1.001 551"/></g><g><path fill="none" stroke="#fff" stroke-miterlimit="20" stroke-width="3" d="M419.593 530.114L440.984 551"/></g><g><path fill="none" stroke="#fff" stroke-miterlimit="20" stroke-width="3" d="M440.984 530.114L419.594 551"/></g><g><path fill="none" stroke="#fff" stroke-miterlimit="20" stroke-width="3" d="M377.734 530.114L399.126 551"/></g><g><path fill="none" stroke="#fff" stroke-miterlimit="20" stroke-width="3" d="M399.125 530.114L377.733 551"/></g><g><path fill="none" stroke="#fff" stroke-miterlimit="20" stroke-width="3" d="M335.875 530.114L357.267 551"/></g><g><path fill="none" stroke="#fff" stroke-miterlimit="20" stroke-width="3" d="M357.266 530.114L335.874 551"/></g><g><path fill="none" stroke="#fff" stroke-miterlimit="20" stroke-width="3" d="M294.016 530.114L315.406 551"/></g><g><path fill="none" stroke="#fff" stroke-miterlimit="20" stroke-width="3" d="M315.407 530.114L294.016 551"/></g><g><path fill="none" stroke="#fff" stroke-miterlimit="20" stroke-width="3" d="M252.156 530.114L273.547 551"/></g><g><path fill="none" stroke="#fff" stroke-miterlimit="20" stroke-width="3" d="M273.547 530.114L252.157 551"/></g><g><path fill="none" stroke="#fff" stroke-miterlimit="20" stroke-width="3" d="M210.297 530.114L231.687 551"/></g><g><path fill="none" stroke="#fff" stroke-miterlimit="20" stroke-width="3" d="M231.688 530.114L210.297 551"/></g><g><path fill="none" stroke="#fff" stroke-miterlimit="20" stroke-width="3" d="M168.438 530.114L189.827 551"/></g><g><path fill="none" stroke="#fff" stroke-miterlimit="20" stroke-width="3" d="M189.829 530.114L168.438 551"/></g><g><path fill="none" stroke="#fff" stroke-miterlimit="20" stroke-width="3" d="M126.578 530.114L147.97 551"/></g><g><path fill="none" stroke="#fff" stroke-miterlimit="20" stroke-width="3" d="M147.97 530.114L126.577 551"/></g><g><path fill="none" stroke="#fff" stroke-miterlimit="20" stroke-width="3" d="M84.719 530.114L106.109 551"/></g><g><path fill="none" stroke="#fff" stroke-miterlimit="20" stroke-width="3" d="M106.11 530.114L84.719 551"/></g><g><path fill="none" stroke="#fff" stroke-miterlimit="20" stroke-width="3" d="M42.86 530.114L64.25 551"/></g><g><path fill="none" stroke="#fff" stroke-miterlimit="20" stroke-width="3" d="M64.25 530.114L42.86 551"/></g><g><path fill="none" stroke="#fff" stroke-miterlimit="20" stroke-width="3" d="M1 579.29l21.391 20.885"/></g><g><path fill="none" stroke="#fff" stroke-miterlimit="20" stroke-width="3" d="M22.391 579.29l-21.39 20.885"/></g><g><path fill="none" stroke="#fff" stroke-miterlimit="20" stroke-width="3" d="M419.593 579.29l21.391 20.885"/></g><g><path fill="none" stroke="#fff" stroke-miterlimit="20" stroke-width="3" d="M440.984 579.29l-21.39 20.885"/></g><g><path fill="none" stroke="#fff" stroke-miterlimit="20" stroke-width="3" d="M377.734 579.29l21.392 20.885"/></g><g><path fill="none" stroke="#fff" stroke-miterlimit="20" stroke-width="3" d="M399.125 579.29l-21.392 20.885"/></g><g><path fill="none" stroke="#fff" stroke-miterlimit="20" stroke-width="3" d="M335.875 579.29l21.392 20.885"/></g><g><path fill="none" stroke="#fff" stroke-miterlimit="20" stroke-width="3" d="M357.266 579.29l-21.392 20.885"/></g><g><path fill="none" stroke="#fff" stroke-miterlimit="20" stroke-width="3" d="M294.016 579.29l21.39 20.885"/></g><g><path fill="none" stroke="#fff" stroke-miterlimit="20" stroke-width="3" d="M315.407 579.29l-21.391 20.885"/></g><g><path fill="none" stroke="#fff" stroke-miterlimit="20" stroke-width="3" d="M252.156 579.29l21.391 20.885"/></g><g><path fill="none" stroke="#fff" stroke-miterlimit="20" stroke-width="3" d="M273.547 579.29l-21.39 20.885"/></g><g><path fill="none" stroke="#fff" stroke-miterlimit="20" stroke-width="3" d="M210.297 579.29l21.39 20.885"/></g><g><path fill="none" stroke="#fff" stroke-miterlimit="20" stroke-width="3" d="M231.688 579.29l-21.391 20.885"/></g><g><path fill="none" stroke="#fff" stroke-miterlimit="20" stroke-width="3" d="M168.438 579.29l21.39 20.885"/></g><g><path fill="none" stroke="#fff" stroke-miterlimit="20" stroke-width="3" d="M189.829 579.29l-21.391 20.885"/></g><g><path fill="none" stroke="#fff" stroke-miterlimit="20" stroke-width="3" d="M126.578 579.29l21.391 20.885"/></g><g><path fill="none" stroke="#fff" stroke-miterlimit="20" stroke-width="3" d="M147.97 579.29l-21.392 20.885"/></g><g><path fill="none" stroke="#fff" stroke-miterlimit="20" stroke-width="3" d="M84.719 579.29l21.39 20.885"/></g><g><path fill="none" stroke="#fff" stroke-miterlimit="20" stroke-width="3" d="M106.11 579.29l-21.391 20.885"/></g><g><path fill="none" stroke="#fff" stroke-miterlimit="20" stroke-width="3" d="M42.86 579.29l21.39 20.885"/></g><g><path fill="none" stroke="#fff" stroke-miterlimit="20" stroke-width="3" d="M64.25 579.29l-21.39 20.885"/></g><g><path fill="none" stroke="#fff" stroke-miterlimit="20" stroke-width="3" d="M1 632.114L22.391 653"/></g><g><path fill="none" stroke="#fff" stroke-miterlimit="20" stroke-width="3" d="M22.391 632.114L1.001 653"/></g><g><path fill="none" stroke="#fff" stroke-miterlimit="20" stroke-width="3" d="M419.593 632.114L440.984 653"/></g><g><path fill="none" stroke="#fff" stroke-miterlimit="20" stroke-width="3" d="M440.984 632.114L419.594 653"/></g><g><path fill="none" stroke="#fff" stroke-miterlimit="20" stroke-width="3" d="M377.734 632.114L399.126 653"/></g><g><path fill="none" stroke="#fff" stroke-miterlimit="20" stroke-width="3" d="M399.125 632.114L377.733 653"/></g><g><path fill="none" stroke="#fff" stroke-miterlimit="20" stroke-width="3" d="M335.875 632.114L357.267 653"/></g><g><path fill="none" stroke="#fff" stroke-miterlimit="20" stroke-width="3" d="M357.266 632.114L335.874 653"/></g><g><path fill="none" stroke="#fff" stroke-miterlimit="20" stroke-width="3" d="M294.016 632.114L315.406 653"/></g><g><path fill="none" stroke="#fff" stroke-miterlimit="20" stroke-width="3" d="M315.407 632.114L294.016 653"/></g><g><path fill="none" stroke="#fff" stroke-miterlimit="20" stroke-width="3" d="M252.156 632.114L273.547 653"/></g><g><path fill="none" stroke="#fff" stroke-miterlimit="20" stroke-width="3" d="M273.547 632.114L252.157 653"/></g><g><path fill="none" stroke="#fff" stroke-miterlimit="20" stroke-width="3" d="M210.297 632.114L231.687 653"/></g><g><path fill="none" stroke="#fff" stroke-miterlimit="20" stroke-width="3" d="M231.688 632.114L210.297 653"/></g><g><path fill="none" stroke="#fff" stroke-miterlimit="20" stroke-width="3" d="M168.438 632.114L189.827 653"/></g><g><path fill="none" stroke="#fff" stroke-miterlimit="20" stroke-width="3" d="M189.829 632.114L168.438 653"/></g><g><path fill="none" stroke="#fff" stroke-miterlimit="20" stroke-width="3" d="M126.578 632.114L147.97 653"/></g><g><path fill="none" stroke="#fff" stroke-miterlimit="20" stroke-width="3" d="M147.97 632.114L126.577 653"/></g><g><path fill="none" stroke="#fff" stroke-miterlimit="20" stroke-width="3" d="M84.719 632.114L106.109 653"/></g><g><path fill="none" stroke="#fff" stroke-miterlimit="20" stroke-width="3" d="M106.11 632.114L84.719 653"/></g><g><path fill="none" stroke="#fff" stroke-miterlimit="20" stroke-width="3" d="M42.86 632.114L64.25 653"/></g><g><path fill="none" stroke="#fff" stroke-miterlimit="20" stroke-width="3" d="M64.25 632.114L42.86 653"/></g><g><path fill="none" stroke="#fff" stroke-miterlimit="20" stroke-width="3" d="M1 675.114L22.391 696"/></g><g><path fill="none" stroke="#fff" stroke-miterlimit="20" stroke-width="3" d="M22.391 675.114L1.001 696"/></g><g><path fill="none" stroke="#fff" stroke-miterlimit="20" stroke-width="3" d="M419.593 675.114L440.984 696"/></g><g><path fill="none" stroke="#fff" stroke-miterlimit="20" stroke-width="3" d="M440.984 675.114L419.594 696"/></g><g><path fill="none" stroke="#fff" stroke-miterlimit="20" stroke-width="3" d="M377.734 675.114L399.126 696"/></g><g><path fill="none" stroke="#fff" stroke-miterlimit="20" stroke-width="3" d="M399.125 675.114L377.733 696"/></g><g><path fill="none" stroke="#fff" stroke-miterlimit="20" stroke-width="3" d="M335.875 675.114L357.267 696"/></g><g><path fill="none" stroke="#fff" stroke-miterlimit="20" stroke-width="3" d="M357.266 675.114L335.874 696"/></g><g><path fill="none" stroke="#fff" stroke-miterlimit="20" stroke-width="3" d="M294.016 675.114L315.406 696"/></g><g><path fill="none" stroke="#fff" stroke-miterlimit="20" stroke-width="3" d="M315.407 675.114L294.016 696"/></g><g><path fill="none" stroke="#fff" stroke-miterlimit="20" stroke-width="3" d="M252.156 675.114L273.547 696"/></g><g><path fill="none" stroke="#fff" stroke-miterlimit="20" stroke-width="3" d="M273.547 675.114L252.157 696"/></g><g><path fill="none" stroke="#fff" stroke-miterlimit="20" stroke-width="3" d="M210.297 675.114L231.687 696"/></g><g><path fill="none" stroke="#fff" stroke-miterlimit="20" stroke-width="3" d="M231.688 675.114L210.297 696"/></g><g><path fill="none" stroke="#fff" stroke-miterlimit="20" stroke-width="3" d="M168.438 675.114L189.827 696"/></g><g><path fill="none" stroke="#fff" stroke-miterlimit="20" stroke-width="3" d="M189.829 675.114L168.438 696"/></g><g><path fill="none" stroke="#fff" stroke-miterlimit="20" stroke-width="3" d="M126.578 675.114L147.97 696"/></g><g><path fill="none" stroke="#fff" stroke-miterlimit="20" stroke-width="3" d="M147.97 675.114L126.577 696"/></g><g><path fill="none" stroke="#fff" stroke-miterlimit="20" stroke-width="3" d="M84.719 675.114L106.109 696"/></g><g><path fill="none" stroke="#fff" stroke-miterlimit="20" stroke-width="3" d="M106.11 675.114L84.719 696"/></g><g><path fill="none" stroke="#fff" stroke-miterlimit="20" stroke-width="3" d="M42.86 675.114L64.25 696"/></g><g><path fill="none" stroke="#fff" stroke-miterlimit="20" stroke-width="3" d="M64.25 675.114L42.86 696"/></g></g></svg>